<svg xmlns="http://www.w3.org/2000/svg" width="15.2in" height="10.992in" viewBox="0 0 1094.4 791.455">
  <g>
    <path d="M115.752,395.486c2.643-4.672,5.117-9.166,7.7-13.595a341.9,341.9,0,0,1,38.78-53.212,469.856,469.856,0,0,1,83.585-74.433A518.155,518.155,0,0,1,420.236,174.78c15.156-3.761,30.434-6.9,45.855-9.282q18.263-2.818,36.7-4.331a509.679,509.679,0,0,1,54.8-1.863c11.087.3,22.179.691,33.228,1.819,5.925.605,11.872,1.008,17.787,1.7,6.73.782,13.462,1.621,20.146,2.722,9.923,1.635,19.814,3.452,29.656,5.558a519.894,519.894,0,0,1,219.5,105.359,442.953,442.953,0,0,1,67.2,67.659,336.084,336.084,0,0,1,32.466,49.363c.382.708.678,1.462,1.07,2.318-.467.946-.886,1.87-1.366,2.759a346.239,346.239,0,0,1-44.818,63.963,471.419,471.419,0,0,1-84.043,74.841,517.5,517.5,0,0,1-169.694,78.146c-15.519,3.988-31.168,7.3-46.993,9.833-13.8,2.206-27.641,3.948-41.577,5.034-17.834,1.39-35.683,2.339-53.569,1.726-10.879-.372-21.757-.8-32.621-1.71-12.291-1.027-24.546-2.337-36.711-4.27-98.738-15.686-186.382-55.528-262.218-120.879a420.68,420.68,0,0,1-57.757-60.576,340.614,340.614,0,0,1-30.243-46.415C116.648,397.535,116.347,396.771,115.752,395.486Zm213.824-.864a207.947,207.947,0,0,1,4.028-39.593,213.434,213.434,0,0,1,8.7-31.426,11.006,11.006,0,0,1,1.04-2.208,1.365,1.365,0,0,1,1.583-.641c1.173.367,2.346.738,3.5,1.163,10.014,3.693,20.038,7.359,30.028,11.116,5.448,2.049,5.381,1.458,3.293,7.418a164.7,164.7,0,0,0-8.24,35.955,170.587,170.587,0,0,0-.716,33.835,180.983,180.983,0,0,0,5.759,33.336c20.472,73.432,84.957,122.884,155.544,127.644a185.61,185.61,0,0,0,37.49-1.311,167.233,167.233,0,0,0,34.019-8.373c68.326-24.433,115.64-89.717,115.781-163.306a175.571,175.571,0,0,0-7.235-51.05C692.626,275.339,627.109,225.129,553.476,222.8a180.166,180.166,0,0,0-35.015,2.068,173.42,173.42,0,0,0-32.678,8.7,8.324,8.324,0,0,1-1.758.532,1.479,1.479,0,0,1-1.6-.661,35.6,35.6,0,0,1-1.564-3.327c-2.294-5.717-4.548-11.45-6.839-17.168-.61-1.523-1.283-3.023-1.96-4.518a1.916,1.916,0,0,0-1.936-1.213,13.891,13.891,0,0,0-1.839.129c-10.518,1.835-21.014,3.8-31.406,6.254a480.84,480.84,0,0,0-126.438,49.137c-37.631,21.2-71.922,46.83-102.253,77.652a337,337,0,0,0-40.248,48.983c-1.028,1.536-2.009,3.1-3.007,4.658a2.949,2.949,0,0,0,.053,3.466c3.824,5.6,7.519,11.288,11.55,16.731,17.332,23.4,37.513,44.127,59.706,62.909,52.189,44.166,111.3,75.421,176.9,94.524a16.279,16.279,0,0,0,2.416.424c.169.023.519-.157.522-.25.008-.34.028-.822-.176-1-1.233-1.084-2.512-2.115-3.8-3.133C361.243,527.52,329.382,465.332,329.576,394.622ZM670.307,217.467c.618,1.694,2.273,2.3,3.558,3.241a212.935,212.935,0,0,1,22.284,18.485Q757.684,298.4,763.834,383.58a206.848,206.848,0,0,1-1.852,44.875,214.386,214.386,0,0,1-12.057,46.4,216.941,216.941,0,0,1-68.643,93.135c-1.444,1.148-2.886,2.3-4.311,3.468-.127.105-.226.482-.165.536.246.217.6.543.843.493,1.406-.286,2.8-.625,4.184-1.024a477.306,477.306,0,0,0,157.129-78.838,415.669,415.669,0,0,0,65.12-60.991,303.487,303.487,0,0,0,24.385-32.527c.765-1.185,1.8-2.274,1.7-4.023-.79-1.269-1.59-2.709-2.534-4.048-4.143-5.876-8.165-11.847-12.525-17.559-17.411-22.811-37.523-43.036-59.522-61.4A474.594,474.594,0,0,0,725.811,235a509.451,509.451,0,0,0-53.151-17.641A2.579,2.579,0,0,0,670.307,217.467Z"/>
    <path d="M429.673,352.172c1.77.583,3.728,1.161,5.64,1.868q42.153,15.589,84.295,31.207,11.547,4.275,23.109,8.513a10.361,10.361,0,0,0,2.36.592c.255.029.84-.5.808-.694a13.8,13.8,0,0,0-.737-2.954q-5.451-13.742-10.963-27.456Q518.6,324.373,503.023,285.5c-.609-1.522-1.122-3.082-1.659-4.631a1.933,1.933,0,0,1,.964-2.055c.95-.388,1.889-.813,2.858-1.146a125.769,125.769,0,0,1,56.492-6.159,119.507,119.507,0,0,1,43.315,13.306q50.911,27.268,65.052,83.327c2.884,11.428,3.571,23.106,3.133,34.869C671.233,455.144,635.423,503.637,581,519a121.469,121.469,0,0,1-34.074,4.691c-28.873-.234-54.977-8.906-77.767-26.745-24.393-19.094-39.81-43.97-46.218-74.266a119.492,119.492,0,0,1-2.023-37.384,132.413,132.413,0,0,1,6.565-30,15.988,15.988,0,0,1,1.438-2.661C429.015,352.474,429.266,352.413,429.673,352.172Z"/>
  </g>
</svg>
