<svg xmlns="http://www.w3.org/2000/svg" width="1221.2" height="637.2" viewBox="0 0 1221.2 637.2">
  <g>
    <g>
      <path d="M617.738,286.781c-16.63,0-30.11,12.875-30.11,28.758s13.48,28.757,30.11,28.757,30.11-12.875,30.11-28.757S634.368,286.781,617.738,286.781Zm0,0c-16.63,0-30.11,12.875-30.11,28.758s13.48,28.757,30.11,28.757,30.11-12.875,30.11-28.757S634.368,286.781,617.738,286.781Zm0,0c-16.63,0-30.11,12.875-30.11,28.758s13.48,28.757,30.11,28.757,30.11-12.875,30.11-28.757S634.368,286.781,617.738,286.781Zm0,0c-16.63,0-30.11,12.875-30.11,28.758s13.48,28.757,30.11,28.757,30.11-12.875,30.11-28.757S634.368,286.781,617.738,286.781Zm0,0c-16.63,0-30.11,12.875-30.11,28.758s13.48,28.757,30.11,28.757,30.11-12.875,30.11-28.757S634.368,286.781,617.738,286.781Zm0,0c-16.63,0-30.11,12.875-30.11,28.758s13.48,28.757,30.11,28.757,30.11-12.875,30.11-28.757S634.368,286.781,617.738,286.781Zm0,0c-16.63,0-30.11,12.875-30.11,28.758s13.48,28.757,30.11,28.757,30.11-12.875,30.11-28.757S634.368,286.781,617.738,286.781Zm0,0c-16.63,0-30.11,12.875-30.11,28.758s13.48,28.757,30.11,28.757,30.11-12.875,30.11-28.757S634.368,286.781,617.738,286.781Zm0,0c-16.63,0-30.11,12.875-30.11,28.758s13.48,28.757,30.11,28.757,30.11-12.875,30.11-28.757S634.368,286.781,617.738,286.781Zm0,0c-16.63,0-30.11,12.875-30.11,28.758s13.48,28.757,30.11,28.757,30.11-12.875,30.11-28.757S634.368,286.781,617.738,286.781Zm0,0c-16.63,0-30.11,12.875-30.11,28.758s13.48,28.757,30.11,28.757,30.11-12.875,30.11-28.757S634.368,286.781,617.738,286.781Zm0,0c-16.63,0-30.11,12.875-30.11,28.758s13.48,28.757,30.11,28.757,30.11-12.875,30.11-28.757S634.368,286.781,617.738,286.781Zm0,0c-16.63,0-30.11,12.875-30.11,28.758s13.48,28.757,30.11,28.757,30.11-12.875,30.11-28.757S634.368,286.781,617.738,286.781Zm0,0c-16.63,0-30.11,12.875-30.11,28.758s13.48,28.757,30.11,28.757,30.11-12.875,30.11-28.757S634.368,286.781,617.738,286.781Zm0,0c-16.63,0-30.11,12.875-30.11,28.758s13.48,28.757,30.11,28.757,30.11-12.875,30.11-28.757S634.368,286.781,617.738,286.781Zm0,0c-16.63,0-30.11,12.875-30.11,28.758s13.48,28.757,30.11,28.757,30.11-12.875,30.11-28.757S634.368,286.781,617.738,286.781Zm0,0c-16.63,0-30.11,12.875-30.11,28.758s13.48,28.757,30.11,28.757,30.11-12.875,30.11-28.757S634.368,286.781,617.738,286.781Zm0,0c-16.63,0-30.11,12.875-30.11,28.758s13.48,28.757,30.11,28.757,30.11-12.875,30.11-28.757S634.368,286.781,617.738,286.781Zm0,0c-16.63,0-30.11,12.875-30.11,28.758s13.48,28.757,30.11,28.757,30.11-12.875,30.11-28.757S634.368,286.781,617.738,286.781Zm0,0c-16.63,0-30.11,12.875-30.11,28.758s13.48,28.757,30.11,28.757,30.11-12.875,30.11-28.757S634.368,286.781,617.738,286.781Zm0,0c-16.63,0-30.11,12.875-30.11,28.758s13.48,28.757,30.11,28.757,30.11-12.875,30.11-28.757S634.368,286.781,617.738,286.781Zm0,0c-16.63,0-30.11,12.875-30.11,28.758s13.48,28.757,30.11,28.757,30.11-12.875,30.11-28.757S634.368,286.781,617.738,286.781Zm0,0c-16.63,0-30.11,12.875-30.11,28.758s13.48,28.757,30.11,28.757,30.11-12.875,30.11-28.757S634.368,286.781,617.738,286.781Zm0,0c-16.63,0-30.11,12.875-30.11,28.758s13.48,28.757,30.11,28.757,30.11-12.875,30.11-28.757S634.368,286.781,617.738,286.781Zm0,0c-16.63,0-30.11,12.875-30.11,28.758s13.48,28.757,30.11,28.757,30.11-12.875,30.11-28.757S634.368,286.781,617.738,286.781Zm0,0c-16.63,0-30.11,12.875-30.11,28.758s13.48,28.757,30.11,28.757,30.11-12.875,30.11-28.757S634.368,286.781,617.738,286.781Zm0,0c-16.63,0-30.11,12.875-30.11,28.758s13.48,28.757,30.11,28.757,30.11-12.875,30.11-28.757S634.368,286.781,617.738,286.781Zm0,0c-16.63,0-30.11,12.875-30.11,28.758s13.48,28.757,30.11,28.757,30.11-12.875,30.11-28.757S634.368,286.781,617.738,286.781Zm0,0c-16.63,0-30.11,12.875-30.11,28.758s13.48,28.757,30.11,28.757,30.11-12.875,30.11-28.757S634.368,286.781,617.738,286.781Zm0,0c-16.63,0-30.11,12.875-30.11,28.758s13.48,28.757,30.11,28.757,30.11-12.875,30.11-28.757S634.368,286.781,617.738,286.781Zm0,0c-16.63,0-30.11,12.875-30.11,28.758s13.48,28.757,30.11,28.757,30.11-12.875,30.11-28.757S634.368,286.781,617.738,286.781Zm0,0c-16.63,0-30.11,12.875-30.11,28.758s13.48,28.757,30.11,28.757,30.11-12.875,30.11-28.757S634.368,286.781,617.738,286.781Zm194.39,5.874a192.282,192.282,0,0,0-16.42-54.152,21.225,21.225,0,0,0-13.89-11.509c-37.26-9.847-77.5-15.281-126.42-17.392-14.33-.611-29.4-.936-45.36-1.012-70.45.315-123.63,5.673-171.83,18.423a21.081,21.081,0,0,0-13.82,11.4c-12.05,25.987-17.28,50.322-17.28,83.167,0,29.149,4.9,52.72,14.73,76.8a21.284,21.284,0,0,0,14.31,12.292c48.74,13.142,102.43,18.662,173.89,18.977,75.3-.334,130.87-6.437,181.71-21.145a12.3,12.3,0,0,0,8.08-7.134c10.06-24.928,14.29-49.96,14.29-79.787A203.182,203.182,0,0,0,812.128,292.655Zm-194.39,78.268c-33.88,0-61.35-24.966-61.35-55.767s27.47-55.766,61.35-55.766a65,65,0,0,1,37.66,11.748,57.028,57.028,0,0,1,18.49,21.517,51.333,51.333,0,0,1,5.2,22.5C679.088,345.957,651.618,370.923,617.738,370.923Zm95.76-78.268c-10.81,0-19.58-7.965-19.58-17.793s8.77-17.793,19.58-17.793,19.58,7.956,19.58,17.793S724.308,292.655,713.5,292.655Zm-95.76-5.874c-16.63,0-30.11,12.875-30.11,28.758s13.48,28.757,30.11,28.757,30.11-12.875,30.11-28.757S634.368,286.781,617.738,286.781Zm0,0c-16.63,0-30.11,12.875-30.11,28.758s13.48,28.757,30.11,28.757,30.11-12.875,30.11-28.757S634.368,286.781,617.738,286.781Zm0,0c-16.63,0-30.11,12.875-30.11,28.758s13.48,28.757,30.11,28.757,30.11-12.875,30.11-28.757S634.368,286.781,617.738,286.781Zm0,0c-16.63,0-30.11,12.875-30.11,28.758s13.48,28.757,30.11,28.757,30.11-12.875,30.11-28.757S634.368,286.781,617.738,286.781Zm0,0c-16.63,0-30.11,12.875-30.11,28.758s13.48,28.757,30.11,28.757,30.11-12.875,30.11-28.757S634.368,286.781,617.738,286.781Zm0,0c-16.63,0-30.11,12.875-30.11,28.758s13.48,28.757,30.11,28.757,30.11-12.875,30.11-28.757S634.368,286.781,617.738,286.781Zm0,0c-16.63,0-30.11,12.875-30.11,28.758s13.48,28.757,30.11,28.757,30.11-12.875,30.11-28.757S634.368,286.781,617.738,286.781Zm0,0c-16.63,0-30.11,12.875-30.11,28.758s13.48,28.757,30.11,28.757,30.11-12.875,30.11-28.757S634.368,286.781,617.738,286.781Zm0,0c-16.63,0-30.11,12.875-30.11,28.758s13.48,28.757,30.11,28.757,30.11-12.875,30.11-28.757S634.368,286.781,617.738,286.781Zm0,0c-16.63,0-30.11,12.875-30.11,28.758s13.48,28.757,30.11,28.757,30.11-12.875,30.11-28.757S634.368,286.781,617.738,286.781Zm0,0c-16.63,0-30.11,12.875-30.11,28.758s13.48,28.757,30.11,28.757,30.11-12.875,30.11-28.757S634.368,286.781,617.738,286.781Zm0,0c-16.63,0-30.11,12.875-30.11,28.758s13.48,28.757,30.11,28.757,30.11-12.875,30.11-28.757S634.368,286.781,617.738,286.781Zm0,0c-16.63,0-30.11,12.875-30.11,28.758s13.48,28.757,30.11,28.757,30.11-12.875,30.11-28.757S634.368,286.781,617.738,286.781Zm0,0c-16.63,0-30.11,12.875-30.11,28.758s13.48,28.757,30.11,28.757,30.11-12.875,30.11-28.757S634.368,286.781,617.738,286.781Zm0,0c-16.63,0-30.11,12.875-30.11,28.758s13.48,28.757,30.11,28.757,30.11-12.875,30.11-28.757S634.368,286.781,617.738,286.781Zm0,0c-16.63,0-30.11,12.875-30.11,28.758s13.48,28.757,30.11,28.757,30.11-12.875,30.11-28.757S634.368,286.781,617.738,286.781Zm0,0c-16.63,0-30.11,12.875-30.11,28.758s13.48,28.757,30.11,28.757,30.11-12.875,30.11-28.757S634.368,286.781,617.738,286.781Zm0,0c-16.63,0-30.11,12.875-30.11,28.758s13.48,28.757,30.11,28.757,30.11-12.875,30.11-28.757S634.368,286.781,617.738,286.781Zm0,0c-16.63,0-30.11,12.875-30.11,28.758s13.48,28.757,30.11,28.757,30.11-12.875,30.11-28.757S634.368,286.781,617.738,286.781Zm0,0c-16.63,0-30.11,12.875-30.11,28.758s13.48,28.757,30.11,28.757,30.11-12.875,30.11-28.757S634.368,286.781,617.738,286.781Zm0,0c-16.63,0-30.11,12.875-30.11,28.758s13.48,28.757,30.11,28.757,30.11-12.875,30.11-28.757S634.368,286.781,617.738,286.781Zm0,0c-16.63,0-30.11,12.875-30.11,28.758s13.48,28.757,30.11,28.757,30.11-12.875,30.11-28.757S634.368,286.781,617.738,286.781Zm0,0c-16.63,0-30.11,12.875-30.11,28.758s13.48,28.757,30.11,28.757,30.11-12.875,30.11-28.757S634.368,286.781,617.738,286.781Zm0,0c-16.63,0-30.11,12.875-30.11,28.758s13.48,28.757,30.11,28.757,30.11-12.875,30.11-28.757S634.368,286.781,617.738,286.781Zm0,0c-16.63,0-30.11,12.875-30.11,28.758s13.48,28.757,30.11,28.757,30.11-12.875,30.11-28.757S634.368,286.781,617.738,286.781Zm0,0c-16.63,0-30.11,12.875-30.11,28.758s13.48,28.757,30.11,28.757,30.11-12.875,30.11-28.757S634.368,286.781,617.738,286.781Zm0,0c-16.63,0-30.11,12.875-30.11,28.758s13.48,28.757,30.11,28.757,30.11-12.875,30.11-28.757S634.368,286.781,617.738,286.781Zm0,0c-16.63,0-30.11,12.875-30.11,28.758s13.48,28.757,30.11,28.757,30.11-12.875,30.11-28.757S634.368,286.781,617.738,286.781Zm0,0c-16.63,0-30.11,12.875-30.11,28.758s13.48,28.757,30.11,28.757,30.11-12.875,30.11-28.757S634.368,286.781,617.738,286.781Zm0,0c-16.63,0-30.11,12.875-30.11,28.758s13.48,28.757,30.11,28.757,30.11-12.875,30.11-28.757S634.368,286.781,617.738,286.781Zm0,0c-16.63,0-30.11,12.875-30.11,28.758s13.48,28.757,30.11,28.757,30.11-12.875,30.11-28.757S634.368,286.781,617.738,286.781Zm0,0c-16.63,0-30.11,12.875-30.11,28.758s13.48,28.757,30.11,28.757,30.11-12.875,30.11-28.757S634.368,286.781,617.738,286.781Zm0,0c-16.63,0-30.11,12.875-30.11,28.758s13.48,28.757,30.11,28.757,30.11-12.875,30.11-28.757S634.368,286.781,617.738,286.781Z" fill="#fff"/>
      <path d="M694.528,507.48c-1.64-9.94-11.23-15.84-20.83-14.87-1.04.11-5.81.53-9.1.82q.93,10.455,1.88,20.89,14.64-1.38,28.52-3.44C694.858,509.85,694.718,508.85,694.528,507.48Zm203.83-86.7a23.684,23.684,0,0,0-11.84,16.42q12.18-7.9,24.27-16.54C907.518,417.56,902.558,418.44,898.358,420.78ZM618.348,120.12q-3.525-.045-7.09-.06c-1.36,2.84-2.62,5.56-4.36,9.35,3.13-.02,4.71-.03,7.82,0,3.13.03,4.7.04,7.83.1C620.868,125.71,619.648,122.97,618.348,120.12ZM963.338,249.8q-6.54-5.3-12.99-10.32c-.69,4.57-1.32,8.37-2.31,14.12a57.877,57.877,0,0,0-.07,18.76c-8.81-6.68-17.99-13.06-27.33-18.99a9.051,9.051,0,0,0,7.8-7.59c1.18-8.42,1.75-12.94,2.65-20.93q-4.995-3.69-9.95-7.21c-3.18,4.76-4.88,7.29-8.13,12.2a20.967,20.967,0,0,0-2.78,16.95q-14.85-8.745-29.87-17.14a24.055,24.055,0,0,0,14.68-10.41q4.23-6.885,8.5-13.75-13.425-8.97-26.73-16.88c-.62,1.12-1.28,2.33-2.01,3.67-7.6-3.66-11.45-5.42-19.19-8.8-2.22,4.43-3.32,6.66-5.51,11.11,6.74,2.95,10.09,4.47,16.71,7.63a29.939,29.939,0,0,0,19.4,2.21c-5.02,8.64-7.51,12.96-12.43,21.65-18.86-9.1-37.91-17.56-57.3-25.47a23.7,23.7,0,0,0,13.24-12.14q4.56-10.2,9.19-20.39c-11.94-5.81-23.94-11.05-36.09-15.73q-4.38,11.775-8.71,23.56a21.07,21.07,0,0,0,1.45,17.24c-11.14-3.53-22.29-6.88-33.53-10.07a22.583,22.583,0,0,0,11.96-13.24q4.02-12.45,8.12-24.9-17.985-5.94-36.6-10.37a28.008,28.008,0,0,1-13.23,6.85c2.44,8.19,3.63,12.31,5.76,20.49a59.321,59.321,0,0,0,7.74,17.2c-11.06-2.55-22.08-4.82-33.25-6.86a8.684,8.684,0,0,0,4.06-9.95c-2.6-8.7-4.01-13.09-6.94-21.78-4.64-.76-6.97-1.1-11.63-1.77-.98,5.94-1.47,8.91-2.43,14.85a21.018,21.018,0,0,0,4.55,16.61c-11.6-1.61-23.18-3.04-34.83-4.3a22.7,22.7,0,0,0,9.18-15.16q1.68-13.695,3.38-27.41-16.71-1.68-34.28-2.48l-2.12-.09q6.09,14.46,11.59,29.09a49.01,49.01,0,0,0,3.4,7.15,47.867,47.867,0,0,0,6.15,8.31q-3.1-.285-6.24-.54c-8.94-.72-17.93-1.21-26.87-1.44.28-.09.41-.14.68-.22,3.05-1.01,3.94-5.85,1.89-10.91-.65-1.63-.98-2.48-1.65-4.13-5.58-.18-8.69-.25-13.69-.29-.86-.01-1.29-.01-2.14-.01-6.33-.06-9.5-.04-15.82.09-.71,1.64-1.04,2.48-1.73,4.09-2.13,5.02-1.29,9.99,1.73,10.94.27.1.41.13.68.23-11.03.1-22.14.62-33.13,1.53a47.782,47.782,0,0,0,9.77-15.34q5.73-14.61,12.07-29.05a619.6,619.6,0,0,0-87.11,7.77,19.2,19.2,0,0,0,1.46,8.45c.23.43.32.7.55,1.09,6.35,10.67,22.24,15.66,34.26,11.43,6.2-2.18,11.24-4.51,12.34-12.35,5.45,7.46,8.09,11.21,13.22,18.78.35.38-.28.88-1.63,2.26-6.36,4.75-8.69,6.04-17.01,8.67-21.88,6.92-50.76,1-62.39-20.38-.23-.42-.34-.64-.57-1.06a30.543,30.543,0,0,1-3.71-12.4,441.116,441.116,0,0,0-66.41,19.91q11.43,10.98,22.36,22.36a52.224,52.224,0,0,0,15.09,10.88c-10.54,2.93-21.04,6.29-31.33,10,.22-.17.34-.27.55-.44,2.44-1.93,1.27-6.83-2.68-10.76-1.27-1.27-1.92-1.94-3.21-3.22-2.95,1.04-5.16,1.83-7.36,2.64s-4.4,1.63-7.31,2.74c-5.83,2.22-8.75,3.38-14.52,5.76.02,1.76.05,2.67.07,4.41.06,5.41,2.81,9.66,6,9.48.28-.01.43-.03.71-.02-10.09,4.03-20.1,8.5-29.83,13.33a45.752,45.752,0,0,0,2.8-17.69q-.57-13.35-.77-26.76c-15.81,8.4-31.55,17.86-47.45,28.45a29.351,29.351,0,0,1,4.07,1.89c4.34,2.44,7.73,6.63,8.75,10.9,2.99,12.54-5.65,24.76-15.94,31.13-9.3,5.75-21.89,7.66-32.34,4.48a23.977,23.977,0,0,0-10.43-.9c6.34-7.26,13-14.34,19.87-21.1a5.557,5.557,0,0,0,6.65,5.21,23.377,23.377,0,0,0,4.86-1.64,12.333,12.333,0,0,0,1.44-.75c4.41-2.75,7.03-7.09,6.26-9.45a4.893,4.893,0,0,0-2.31-2.29c-3.39-1.9-8.42-1.72-16.88,1.16-.37.13-.74.25-1.11.37h-.01c-34.67,25.51-70.63,56.37-110.1,93.26,18.27,16.48,36.13,32.3,53.89,47.31.57-2.15,1.14-4.31,1.71-6.46a45.417,45.417,0,0,0,1.27-17.38c7.74,6.69,15.72,13.19,23.84,19.41a8.818,8.818,0,0,0-7.91,6.76q-1.35,5.61-2.63,11.23,9.555,7.83,19.11,15.31,5.4-3.255,10.77-6.57a8.991,8.991,0,0,0,3.88-9.71c8.27,5.78,16.75,11.36,25.33,16.65a46.176,46.176,0,0,0-16.03,6.7q-3.96,2.625-7.94,5.19,9.27,6.945,18.62,13.54,2.415-4.08,4.83-8.15a21.3,21.3,0,0,0,2.13-16.29c8.84,5.48,17.89,10.73,27.03,15.66a21.152,21.152,0,0,0-12.89,10.05l-5.28,9.57q5.2,3.465,10.46,6.82a17.1,17.1,0,0,1,4.31-9.94c7.94-8.58,21.94-8.14,32.09-3.53,8.19,3.72,16.66,13.32,18.34,22.46a20.875,20.875,0,0,0,3.93,8.54c-10.22-1.69-15.34-2.66-25.6-4.85a4.962,4.962,0,0,0,1.06-7.53,12.462,12.462,0,0,0-3.59-3.04c-.33-.15-.71-.46-1.14-.67-4.2-1.99-8.93-1.67-10.4.07-1.02,1.21-.99,3.4.02,5.76.95,2.21,3.32,4.61,6.64,7.29,1.13.9,2.26,1.84,3.35,2.83.01,0,.02.01.03.02q14.5,8.13,29.53,15.37c2.03-5.16,3.69-9.39,6.25-15.91a21.012,21.012,0,0,0-.4-16.37c9.44,3.9,19.04,7.54,28.69,10.88a21.4,21.4,0,0,0-11.03,12.03c-2.53,7.1-4.11,11.5-6.18,17.29q14.61,6.345,29.83,11.78c2.05-6.82,3.44-11.47,5.83-19.41a20.792,20.792,0,0,0-1.75-16.15c9.68,3.08,19.49,5.88,29.33,8.39a21.422,21.422,0,0,0-9.97,12.91c-2.21,8.29-3.48,13-5.42,20.29q8.64,2.7,17.51,5.1,8.64-11.5,16.98-23.27a9.4,9.4,0,0,0,.05-10.56c8.89,1.97,13.34,2.87,22.28,4.48,3.16,10.19,1.85,5.75,3.77,12.27,2.27,9.57,4.76,18.75,7.38,27.91q12.5,2.025,25.5,3.49,1.215-11.37,2.44-22.74a21.463,21.463,0,0,0-4.62-15.65c10,1.22,20.09,2.15,30.14,2.79a21.344,21.344,0,0,0-7.38,14.43q-.87,11.49-1.76,22.97,21.915,1.74,45.37,1.9,20.235-.135,39.1-1.34-.675-11.415-1.36-22.83a21.423,21.423,0,0,0-7.25-14.66c6.77-.34,10.73-.58,16.56-1.05,3.13-.29,13.09-1.16,16.21-1.5,18.24-2.59,37.91,10.41,41.22,28.86.21,1.26.36,2.2.53,3.14,3.36-.62,6.7-1.28,10-1.97q-2.025-10.965-4.05-21.92a21.082,21.082,0,0,0-8.76-13.47c17.99-3.35,35.71-7.33,53.4-12,2.48,9.09,3.72,13.64,6.2,22.73a23.819,23.819,0,0,0-16.8-2c-6.22,1.54-9.34,2.27-15.59,3.63.95,4.39,1.42,6.58,2.37,10.97,7.17-1.57,10.75-2.41,17.87-4.19.7,2.8,1.25,5.02,1.77,7.13,9.96-2.94,19.66-6.18,29.17-9.72-6.34-3.75-10.24-9.7-10.42-15.9-.34-11.65,9.75-21.15,20.17-24.94,8.41-3.06,21.08-2.07,28.58,3.29a20.492,20.492,0,0,0,8.74,3.37c-8.5,5.95-12.83,8.84-21.62,14.44a4.956,4.956,0,0,0-4.46-6.14,12.4,12.4,0,0,0-4.64.32c-.34.12-.82.17-1.27.32-4.35,1.5-7.47,5.04-7.3,7.31.12,1.58,1.64,3.13,3.99,4.12,2.19.92,5.51.99,9.72.59a63.671,63.671,0,0,1,10.7-.24.014.014,0,0,0,.02,0q11.85-5.49,23.39-11.64-2.79-6.735-5.57-13.46a21.3,21.3,0,0,0-11.62-11.46c9.52-3.83,18.97-7.95,28.25-12.33a21.439,21.439,0,0,0,.37,16.37q2.61,5.8,5.23,11.62,3.315-1.935,6.62-3.9c-2.8-17.01,6.71-34.73,21.89-43.15a40.643,40.643,0,0,1,20.26-5.1,17.143,17.143,0,0,0,9.31-2.54c-2.29,8.47-3.67,13.32-5.99,20.75q11.325-8.13,22.7-16.87c-.81-1.27-1.63-2.53-2.44-3.8a20.8,20.8,0,0,0-13.59-9.11c9.21-5.98,18.24-12.08,27.22-18.39a5.985,5.985,0,0,0,3.75,6.95q5.52,1.935,11.07,3.76,7.8-6.345,15.7-12.96l-.94-1.21a20.732,20.732,0,0,0-14.52-7.73c8.35-6.37,16.55-13.03,24.51-19.89a19.284,19.284,0,0,0,4.16,14.67l1.47,1.77c14.87-12.68,30.13-26.01,45.97-39.97C1012.3,291.23,987.388,269.27,963.338,249.8Zm-517.82-74.28c-1.81-5.56,1.9-11.56,8.36-13.27s13.01,1.56,14.57,7.18-2.24,11.4-8.45,13.04S447.338,181.07,445.518,175.52ZM338.6,206.27c5.88-3,12.98-1.14,15.77,4.03s.38,11.59-5.28,14.47-12.6,1.23-15.61-3.82S332.718,209.27,338.6,206.27Zm630.45,116.09c-64.66,47.16-114.8,78.22-169.87,97.41-52.43,18.27-109.34,25.77-187.52,26.18-76.5-.4-132.63-7.6-184.13-25.02-56.42-19.09-107.28-50.43-173.27-98.57a3.515,3.515,0,0,1,.01-5.68c67.06-48.91,118.5-80.51,176.02-99.49,50.75-16.76,106.24-23.7,181.37-24.1,15.96.08,31.03.47,45.36,1.17,53.14,2.62,96.05,9.73,136.02,22.93,46.94,15.5,89.82,39.38,140.44,74.21,11.42,7.86,23.23,16.27,35.57,25.28A3.51,3.51,0,0,1,969.048,322.36ZM390.648,161c-2.63,1.18-5.26,2.38-7.88,3.62-.03,2.34-.05,4.76-.08,7.84,2.86-1.12,4.31-1.7,7.18-2.8s4.33-1.64,7.23-2.7C394.558,164.58,392.588,162.76,390.648,161Zm105.46,330.01q-4.305,6.435-8.7,12.81,5.835,1.335,11.78,2.54C498.118,501.12,496.928,494.76,496.108,491.01Z" fill="#fff"/>
    </g>
    <path d="M695.388,513.7c-.15-1.12-.27-1.98-.39-2.82-.14-1.03-.28-2.03-.47-3.4-1.64-9.94-11.23-15.84-20.83-14.87-1.04.11-5.81.53-9.1.82q.93,10.455,1.88,20.89.9,9.945,1.79,19.9c2.5-.26,8.32-.84,9.71-.99C687.828,532.18,696.538,524.19,695.388,513.7Zm0,0c-.15-1.12-.27-1.98-.39-2.82-.14-1.03-.28-2.03-.47-3.4-1.64-9.94-11.23-15.84-20.83-14.87-1.04.11-5.81.53-9.1.82q.93,10.455,1.88,20.89.9,9.945,1.79,19.9c2.5-.26,8.32-.84,9.71-.99C687.828,532.18,696.538,524.19,695.388,513.7Zm0,0c-.15-1.12-.27-1.98-.39-2.82-.14-1.03-.28-2.03-.47-3.4-1.64-9.94-11.23-15.84-20.83-14.87-1.04.11-5.81.53-9.1.82q.93,10.455,1.88,20.89.9,9.945,1.79,19.9c2.5-.26,8.32-.84,9.71-.99C687.828,532.18,696.538,524.19,695.388,513.7Zm0,0c-.15-1.12-.27-1.98-.39-2.82-.14-1.03-.28-2.03-.47-3.4-1.64-9.94-11.23-15.84-20.83-14.87-1.04.11-5.81.53-9.1.82q.93,10.455,1.88,20.89.9,9.945,1.79,19.9c2.5-.26,8.32-.84,9.71-.99C687.828,532.18,696.538,524.19,695.388,513.7Zm0,0c-.15-1.12-.27-1.98-.39-2.82-.14-1.03-.28-2.03-.47-3.4-1.64-9.94-11.23-15.84-20.83-14.87-1.04.11-5.81.53-9.1.82q.93,10.455,1.88,20.89.9,9.945,1.79,19.9c2.5-.26,8.32-.84,9.71-.99C687.828,532.18,696.538,524.19,695.388,513.7Zm0,0c-.15-1.12-.27-1.98-.39-2.82-.14-1.03-.28-2.03-.47-3.4-1.64-9.94-11.23-15.84-20.83-14.87-1.04.11-5.81.53-9.1.82q.93,10.455,1.88,20.89.9,9.945,1.79,19.9c2.5-.26,8.32-.84,9.71-.99C687.828,532.18,696.538,524.19,695.388,513.7Zm0,0c-.15-1.12-.27-1.98-.39-2.82-.14-1.03-.28-2.03-.47-3.4-1.64-9.94-11.23-15.84-20.83-14.87-1.04.11-5.81.53-9.1.82q.93,10.455,1.88,20.89.9,9.945,1.79,19.9c2.5-.26,8.32-.84,9.71-.99C687.828,532.18,696.538,524.19,695.388,513.7Zm0,0c-.15-1.12-.27-1.98-.39-2.82-.14-1.03-.28-2.03-.47-3.4-1.64-9.94-11.23-15.84-20.83-14.87-1.04.11-5.81.53-9.1.82q.93,10.455,1.88,20.89.9,9.945,1.79,19.9c2.5-.26,8.32-.84,9.71-.99C687.828,532.18,696.538,524.19,695.388,513.7Zm0,0c-.15-1.12-.27-1.98-.39-2.82-.14-1.03-.28-2.03-.47-3.4-1.64-9.94-11.23-15.84-20.83-14.87-1.04.11-5.81.53-9.1.82q.93,10.455,1.88,20.89.9,9.945,1.79,19.9c2.5-.26,8.32-.84,9.71-.99C687.828,532.18,696.538,524.19,695.388,513.7Zm282.62-145.47q-7.9,6.615-15.7,12.96c11.07,3.66,22.24,7.01,33.52,9.96Q986.9,379.69,978.008,368.23ZM695.388,513.7c-.15-1.12-.27-1.98-.39-2.82-.14-1.03-.28-2.03-.47-3.4-1.64-9.94-11.23-15.84-20.83-14.87-1.04.11-5.81.53-9.1.82q.93,10.455,1.88,20.89.9,9.945,1.79,19.9c2.5-.26,8.32-.84,9.71-.99C687.828,532.18,696.538,524.19,695.388,513.7Zm0,0c-.15-1.12-.27-1.98-.39-2.82-.14-1.03-.28-2.03-.47-3.4-1.64-9.94-11.23-15.84-20.83-14.87-1.04.11-5.81.53-9.1.82q.93,10.455,1.88,20.89.9,9.945,1.79,19.9c2.5-.26,8.32-.84,9.71-.99C687.828,532.18,696.538,524.19,695.388,513.7Zm282.62-145.47q-7.9,6.615-15.7,12.96c11.07,3.66,22.24,7.01,33.52,9.96Q986.9,379.69,978.008,368.23ZM695.388,513.7c-.15-1.12-.27-1.98-.39-2.82-.14-1.03-.28-2.03-.47-3.4-1.64-9.94-11.23-15.84-20.83-14.87-1.04.11-5.81.53-9.1.82q.93,10.455,1.88,20.89.9,9.945,1.79,19.9c2.5-.26,8.32-.84,9.71-.99C687.828,532.18,696.538,524.19,695.388,513.7Zm-196.2-7.34q-5.955-1.2-11.78-2.54-1.695,2.46-3.41,4.92c4.9,1.04,12.89,2.84,16.46,3.48C500.088,510.67,499.648,508.62,499.188,506.36Zm0,0c-1.07-5.24-2.26-11.6-3.08-15.35q-4.305,6.435-8.7,12.81-1.695,2.46-3.41,4.92c4.9,1.04,12.89,2.84,16.46,3.48C500.088,510.67,499.648,508.62,499.188,506.36Zm196.2,7.34c-.15-1.12-.27-1.98-.39-2.82-.14-1.03-.28-2.03-.47-3.4-1.64-9.94-11.23-15.84-20.83-14.87-1.04.11-5.81.53-9.1.82q.93,10.455,1.88,20.89.9,9.945,1.79,19.9c2.5-.26,8.32-.84,9.71-.99C687.828,532.18,696.538,524.19,695.388,513.7Zm282.62-145.47q-7.9,6.615-15.7,12.96c11.07,3.66,22.24,7.01,33.52,9.96Q986.9,379.69,978.008,368.23ZM695.388,513.7c-.15-1.12-.27-1.98-.39-2.82-.14-1.03-.28-2.03-.47-3.4-1.64-9.94-11.23-15.84-20.83-14.87-1.04.11-5.81.53-9.1.82q.93,10.455,1.88,20.89.9,9.945,1.79,19.9c2.5-.26,8.32-.84,9.71-.99C687.828,532.18,696.538,524.19,695.388,513.7Zm-196.2-7.34c-1.07-5.24-2.26-11.6-3.08-15.35q-4.305,6.435-8.7,12.81-1.695,2.46-3.41,4.92c4.9,1.04,12.89,2.84,16.46,3.48C500.088,510.67,499.648,508.62,499.188,506.36Zm0,0c-1.07-5.24-2.26-11.6-3.08-15.35q-4.305,6.435-8.7,12.81-1.695,2.46-3.41,4.92c4.9,1.04,12.89,2.84,16.46,3.48C500.088,510.67,499.648,508.62,499.188,506.36Zm196.2,7.34c-.15-1.12-.27-1.98-.39-2.82-.14-1.03-.28-2.03-.47-3.4-1.64-9.94-11.23-15.84-20.83-14.87-1.04.11-5.81.53-9.1.82q.93,10.455,1.88,20.89.9,9.945,1.79,19.9c2.5-.26,8.32-.84,9.71-.99C687.828,532.18,696.538,524.19,695.388,513.7Zm282.62-145.47q-7.9,6.615-15.7,12.96c11.07,3.66,22.24,7.01,33.52,9.96Q986.9,379.69,978.008,368.23ZM695.388,513.7c-.15-1.12-.27-1.98-.39-2.82-.14-1.03-.28-2.03-.47-3.4-1.64-9.94-11.23-15.84-20.83-14.87-1.04.11-5.81.53-9.1.82q.93,10.455,1.88,20.89.9,9.945,1.79,19.9c2.5-.26,8.32-.84,9.71-.99C687.828,532.18,696.538,524.19,695.388,513.7Zm-196.2-7.34c-1.07-5.24-2.26-11.6-3.08-15.35q-4.305,6.435-8.7,12.81-1.695,2.46-3.41,4.92c4.9,1.04,12.89,2.84,16.46,3.48C500.088,510.67,499.648,508.62,499.188,506.36Zm0,0c-1.07-5.24-2.26-11.6-3.08-15.35q-4.305,6.435-8.7,12.81-1.695,2.46-3.41,4.92c4.9,1.04,12.89,2.84,16.46,3.48C500.088,510.67,499.648,508.62,499.188,506.36Zm196.2,7.34c-.15-1.12-.27-1.98-.39-2.82-.14-1.03-.28-2.03-.47-3.4-1.64-9.94-11.23-15.84-20.83-14.87-1.04.11-5.81.53-9.1.82q.93,10.455,1.88,20.89.9,9.945,1.79,19.9c2.5-.26,8.32-.84,9.71-.99C687.828,532.18,696.538,524.19,695.388,513.7Zm282.62-145.47q-7.9,6.615-15.7,12.96c11.07,3.66,22.24,7.01,33.52,9.96Q986.9,379.69,978.008,368.23ZM695.388,513.7c-.15-1.12-.27-1.98-.39-2.82-.14-1.03-.28-2.03-.47-3.4-1.64-9.94-11.23-15.84-20.83-14.87-1.04.11-5.81.53-9.1.82q.93,10.455,1.88,20.89.9,9.945,1.79,19.9c2.5-.26,8.32-.84,9.71-.99C687.828,532.18,696.538,524.19,695.388,513.7Zm-196.2-7.34c-1.07-5.24-2.26-11.6-3.08-15.35q-4.305,6.435-8.7,12.81-1.695,2.46-3.41,4.92c4.9,1.04,12.89,2.84,16.46,3.48C500.088,510.67,499.648,508.62,499.188,506.36Zm0,0c-1.07-5.24-2.26-11.6-3.08-15.35q-4.305,6.435-8.7,12.81-1.695,2.46-3.41,4.92c4.9,1.04,12.89,2.84,16.46,3.48C500.088,510.67,499.648,508.62,499.188,506.36Zm196.2,7.34c-.15-1.12-.27-1.98-.39-2.82-.14-1.03-.28-2.03-.47-3.4-1.64-9.94-11.23-15.84-20.83-14.87-1.04.11-5.81.53-9.1.82q.93,10.455,1.88,20.89.9,9.945,1.79,19.9c2.5-.26,8.32-.84,9.71-.99C687.828,532.18,696.538,524.19,695.388,513.7Zm282.62-145.47q-7.9,6.615-15.7,12.96c11.07,3.66,22.24,7.01,33.52,9.96Q986.9,379.69,978.008,368.23ZM695.388,513.7c-.15-1.12-.27-1.98-.39-2.82-.14-1.03-.28-2.03-.47-3.4-1.64-9.94-11.23-15.84-20.83-14.87-1.04.11-5.81.53-9.1.82q.93,10.455,1.88,20.89.9,9.945,1.79,19.9c2.5-.26,8.32-.84,9.71-.99C687.828,532.18,696.538,524.19,695.388,513.7Zm-196.2-7.34c-1.07-5.24-2.26-11.6-3.08-15.35q-4.305,6.435-8.7,12.81-1.695,2.46-3.41,4.92c4.9,1.04,12.89,2.84,16.46,3.48C500.088,510.67,499.648,508.62,499.188,506.36Zm0,0c-1.07-5.24-2.26-11.6-3.08-15.35q-4.305,6.435-8.7,12.81-1.695,2.46-3.41,4.92c4.9,1.04,12.89,2.84,16.46,3.48C500.088,510.67,499.648,508.62,499.188,506.36Zm196.2,7.34c-.15-1.12-.27-1.98-.39-2.82-.14-1.03-.28-2.03-.47-3.4-1.64-9.94-11.23-15.84-20.83-14.87-1.04.11-5.81.53-9.1.82q.93,10.455,1.88,20.89.9,9.945,1.79,19.9c2.5-.26,8.32-.84,9.71-.99C687.828,532.18,696.538,524.19,695.388,513.7Zm282.62-145.47q-7.9,6.615-15.7,12.96c11.07,3.66,22.24,7.01,33.52,9.96Q986.9,379.69,978.008,368.23ZM695.388,513.7c-.15-1.12-.27-1.98-.39-2.82-.14-1.03-.28-2.03-.47-3.4-1.64-9.94-11.23-15.84-20.83-14.87-1.04.11-5.81.53-9.1.82q.93,10.455,1.88,20.89.9,9.945,1.79,19.9c2.5-.26,8.32-.84,9.71-.99C687.828,532.18,696.538,524.19,695.388,513.7Zm-196.2-7.34c-1.07-5.24-2.26-11.6-3.08-15.35q-4.305,6.435-8.7,12.81-1.695,2.46-3.41,4.92c4.9,1.04,12.89,2.84,16.46,3.48C500.088,510.67,499.648,508.62,499.188,506.36ZM390.648,161c-2.29-2.08-4.53-4.09-7.63-6.82-.12,4.24-.19,7.24-.25,10.44-.03,2.34-.05,4.76-.08,7.84,2.86-1.12,4.31-1.7,7.18-2.8s4.33-1.64,7.23-2.7C394.558,164.58,392.588,162.76,390.648,161Zm108.54,345.36c-1.07-5.24-2.26-11.6-3.08-15.35q-4.305,6.435-8.7,12.81-1.695,2.46-3.41,4.92c4.9,1.04,12.89,2.84,16.46,3.48C500.088,510.67,499.648,508.62,499.188,506.36Zm196.2,7.34c-.15-1.12-.27-1.98-.39-2.82-.14-1.03-.28-2.03-.47-3.4-1.64-9.94-11.23-15.84-20.83-14.87-1.04.11-5.81.53-9.1.82q.93,10.455,1.88,20.89.9,9.945,1.79,19.9c2.5-.26,8.32-.84,9.71-.99C687.828,532.18,696.538,524.19,695.388,513.7Zm282.62-145.47q-7.9,6.615-15.7,12.96c11.07,3.66,22.24,7.01,33.52,9.96Q986.9,379.69,978.008,368.23ZM695.388,513.7c-.15-1.12-.27-1.98-.39-2.82-.14-1.03-.28-2.03-.47-3.4-1.64-9.94-11.23-15.84-20.83-14.87-1.04.11-5.81.53-9.1.82q.93,10.455,1.88,20.89.9,9.945,1.79,19.9c2.5-.26,8.32-.84,9.71-.99C687.828,532.18,696.538,524.19,695.388,513.7Zm-196.2-7.34c-1.07-5.24-2.26-11.6-3.08-15.35q-4.305,6.435-8.7,12.81-1.695,2.46-3.41,4.92c4.9,1.04,12.89,2.84,16.46,3.48C500.088,510.67,499.648,508.62,499.188,506.36ZM390.648,161c-2.29-2.08-4.53-4.09-7.63-6.82-.12,4.24-.19,7.24-.25,10.44-.03,2.34-.05,4.76-.08,7.84,2.86-1.12,4.31-1.7,7.18-2.8s4.33-1.64,7.23-2.7C394.558,164.58,392.588,162.76,390.648,161Zm0,0c-2.29-2.08-4.53-4.09-7.63-6.82-.12,4.24-.19,7.24-.25,10.44-.03,2.34-.05,4.76-.08,7.84,2.86-1.12,4.31-1.7,7.18-2.8s4.33-1.64,7.23-2.7C394.558,164.58,392.588,162.76,390.648,161Zm108.54,345.36c-1.07-5.24-2.26-11.6-3.08-15.35q-4.305,6.435-8.7,12.81-1.695,2.46-3.41,4.92c4.9,1.04,12.89,2.84,16.46,3.48C500.088,510.67,499.648,508.62,499.188,506.36Zm119.16-386.24c-1.02-2.23-2.1-4.54-3.49-7.48-1.44,2.92-2.55,5.21-3.6,7.42-1.36,2.84-2.62,5.56-4.36,9.35,3.13-.02,4.71-.03,7.82,0,3.13.03,4.7.04,7.83.1C620.868,125.71,619.648,122.97,618.348,120.12Zm77.04,393.58c-.15-1.12-.27-1.98-.39-2.82-.14-1.03-.28-2.03-.47-3.4-1.64-9.94-11.23-15.84-20.83-14.87-1.04.11-5.81.53-9.1.82q.93,10.455,1.88,20.89.9,9.945,1.79,19.9c2.5-.26,8.32-.84,9.71-.99C687.828,532.18,696.538,524.19,695.388,513.7Zm282.62-145.47q-7.9,6.615-15.7,12.96c11.07,3.66,22.24,7.01,33.52,9.96Q986.9,379.69,978.008,368.23ZM695.388,513.7c-.15-1.12-.27-1.98-.39-2.82-.14-1.03-.28-2.03-.47-3.4-1.64-9.94-11.23-15.84-20.83-14.87-1.04.11-5.81.53-9.1.82q.93,10.455,1.88,20.89.9,9.945,1.79,19.9c2.5-.26,8.32-.84,9.71-.99C687.828,532.18,696.538,524.19,695.388,513.7Zm-196.2-7.34c-1.07-5.24-2.26-11.6-3.08-15.35q-4.305,6.435-8.7,12.81-1.695,2.46-3.41,4.92c4.9,1.04,12.89,2.84,16.46,3.48C500.088,510.67,499.648,508.62,499.188,506.36ZM390.648,161c-2.29-2.08-4.53-4.09-7.63-6.82-.12,4.24-.19,7.24-.25,10.44-.03,2.34-.05,4.76-.08,7.84,2.86-1.12,4.31-1.7,7.18-2.8s4.33-1.64,7.23-2.7C394.558,164.58,392.588,162.76,390.648,161Zm227.7-40.88c-1.02-2.23-2.1-4.54-3.49-7.48-1.44,2.92-2.55,5.21-3.6,7.42-1.36,2.84-2.62,5.56-4.36,9.35,3.13-.02,4.71-.03,7.82,0,3.13.03,4.7.04,7.83.1C620.868,125.71,619.648,122.97,618.348,120.12ZM390.648,161c-2.29-2.08-4.53-4.09-7.63-6.82-.12,4.24-.19,7.24-.25,10.44-.03,2.34-.05,4.76-.08,7.84,2.86-1.12,4.31-1.7,7.18-2.8s4.33-1.64,7.23-2.7C394.558,164.58,392.588,162.76,390.648,161Zm108.54,345.36c-1.07-5.24-2.26-11.6-3.08-15.35q-4.305,6.435-8.7,12.81-1.695,2.46-3.41,4.92c4.9,1.04,12.89,2.84,16.46,3.48C500.088,510.67,499.648,508.62,499.188,506.36Zm119.16-386.24c-1.02-2.23-2.1-4.54-3.49-7.48-1.44,2.92-2.55,5.21-3.6,7.42-1.36,2.84-2.62,5.56-4.36,9.35,3.13-.02,4.71-.03,7.82,0,3.13.03,4.7.04,7.83.1C620.868,125.71,619.648,122.97,618.348,120.12Zm77.04,393.58c-.15-1.12-.27-1.98-.39-2.82-.14-1.03-.28-2.03-.47-3.4-1.64-9.94-11.23-15.84-20.83-14.87-1.04.11-5.81.53-9.1.82q.93,10.455,1.88,20.89.9,9.945,1.79,19.9c2.5-.26,8.32-.84,9.71-.99C687.828,532.18,696.538,524.19,695.388,513.7ZM723.6,112.21c-8.23-1.43-12.36-2.09-20.64-3.28-.77,4.63-1.16,6.94-1.93,11.57,8.1,1.14,12.17,1.78,20.21,3.18,3.84.67,7.13-.77,7.54-2.65.33-1.49.49-2.26.81-3.73C729.968,115.55,727.528,112.89,723.6,112.21Zm254.41,256.02q-7.9,6.615-15.7,12.96c11.07,3.66,22.24,7.01,33.52,9.96Q986.9,379.69,978.008,368.23ZM695.388,513.7c-.15-1.12-.27-1.98-.39-2.82-.14-1.03-.28-2.03-.47-3.4-1.64-9.94-11.23-15.84-20.83-14.87-1.04.11-5.81.53-9.1.82q.93,10.455,1.88,20.89.9,9.945,1.79,19.9c2.5-.26,8.32-.84,9.71-.99C687.828,532.18,696.538,524.19,695.388,513.7Zm-196.2-7.34c-1.07-5.24-2.26-11.6-3.08-15.35q-4.305,6.435-8.7,12.81-1.695,2.46-3.41,4.92c4.9,1.04,12.89,2.84,16.46,3.48C500.088,510.67,499.648,508.62,499.188,506.36ZM390.648,161c-2.29-2.08-4.53-4.09-7.63-6.82-.12,4.24-.19,7.24-.25,10.44-.03,2.34-.05,4.76-.08,7.84,2.86-1.12,4.31-1.7,7.18-2.8s4.33-1.64,7.23-2.7C394.558,164.58,392.588,162.76,390.648,161Zm227.7-40.88c-1.02-2.23-2.1-4.54-3.49-7.48-1.44,2.92-2.55,5.21-3.6,7.42-1.36,2.84-2.62,5.56-4.36,9.35,3.13-.02,4.71-.03,7.82,0,3.13.03,4.7.04,7.83.1C620.868,125.71,619.648,122.97,618.348,120.12Zm105.25-7.91c-8.23-1.43-12.36-2.09-20.64-3.28-.77,4.63-1.16,6.94-1.93,11.57,8.1,1.14,12.17,1.78,20.21,3.18,3.84.67,7.13-.77,7.54-2.65.33-1.49.49-2.26.81-3.73C729.968,115.55,727.528,112.89,723.6,112.21ZM390.648,161c-2.29-2.08-4.53-4.09-7.63-6.82-.12,4.24-.19,7.24-.25,10.44-.03,2.34-.05,4.76-.08,7.84,2.86-1.12,4.31-1.7,7.18-2.8s4.33-1.64,7.23-2.7C394.558,164.58,392.588,162.76,390.648,161Zm108.54,345.36c-1.07-5.24-2.26-11.6-3.08-15.35q-4.305,6.435-8.7,12.81-1.695,2.46-3.41,4.92c4.9,1.04,12.89,2.84,16.46,3.48C500.088,510.67,499.648,508.62,499.188,506.36Zm119.16-386.24c-1.02-2.23-2.1-4.54-3.49-7.48-1.44,2.92-2.55,5.21-3.6,7.42-1.36,2.84-2.62,5.56-4.36,9.35,3.13-.02,4.71-.03,7.82,0,3.13.03,4.7.04,7.83.1C620.868,125.71,619.648,122.97,618.348,120.12Zm77.04,393.58c-.15-1.12-.27-1.98-.39-2.82-.14-1.03-.28-2.03-.47-3.4-1.64-9.94-11.23-15.84-20.83-14.87-1.04.11-5.81.53-9.1.82q.93,10.455,1.88,20.89.9,9.945,1.79,19.9c2.5-.26,8.32-.84,9.71-.99C687.828,532.18,696.538,524.19,695.388,513.7ZM723.6,112.21c-8.23-1.43-12.36-2.09-20.64-3.28-.77,4.63-1.16,6.94-1.93,11.57,8.1,1.14,12.17,1.78,20.21,3.18,3.84.67,7.13-.77,7.54-2.65.33-1.49.49-2.26.81-3.73C729.968,115.55,727.528,112.89,723.6,112.21Zm232.38,90.42c-6.81-4.44-10.27-6.6-17.25-10.8-2.7,3.91-4.05,5.87-6.73,9.79,6.84,4.12,10.25,6.25,16.91,10.58,3.2,2.08,6.79,2,7.96.45.93-1.24,1.41-1.86,2.34-3.09C960.308,208.11,959.238,204.76,955.978,202.63Zm22.03,165.6q-7.9,6.615-15.7,12.96c11.07,3.66,22.24,7.01,33.52,9.96Q986.9,379.69,978.008,368.23ZM695.388,513.7c-.15-1.12-.27-1.98-.39-2.82-.14-1.03-.28-2.03-.47-3.4-1.64-9.94-11.23-15.84-20.83-14.87-1.04.11-5.81.53-9.1.82q.93,10.455,1.88,20.89.9,9.945,1.79,19.9c2.5-.26,8.32-.84,9.71-.99C687.828,532.18,696.538,524.19,695.388,513.7Zm-196.2-7.34c-1.07-5.24-2.26-11.6-3.08-15.35q-4.305,6.435-8.7,12.81-1.695,2.46-3.41,4.92c4.9,1.04,12.89,2.84,16.46,3.48C500.088,510.67,499.648,508.62,499.188,506.36ZM390.648,161c-2.29-2.08-4.53-4.09-7.63-6.82-.12,4.24-.19,7.24-.25,10.44-.03,2.34-.05,4.76-.08,7.84,2.86-1.12,4.31-1.7,7.18-2.8s4.33-1.64,7.23-2.7C394.558,164.58,392.588,162.76,390.648,161Zm227.7-40.88c-1.02-2.23-2.1-4.54-3.49-7.48-1.44,2.92-2.55,5.21-3.6,7.42-1.36,2.84-2.62,5.56-4.36,9.35,3.13-.02,4.71-.03,7.82,0,3.13.03,4.7.04,7.83.1C620.868,125.71,619.648,122.97,618.348,120.12Zm105.25-7.91c-8.23-1.43-12.36-2.09-20.64-3.28-.77,4.63-1.16,6.94-1.93,11.57,8.1,1.14,12.17,1.78,20.21,3.18,3.84.67,7.13-.77,7.54-2.65.33-1.49.49-2.26.81-3.73C729.968,115.55,727.528,112.89,723.6,112.21Zm232.38,90.42c-6.81-4.44-10.27-6.6-17.25-10.8-2.7,3.91-4.05,5.87-6.73,9.79,6.84,4.12,10.25,6.25,16.91,10.58,3.2,2.08,6.79,2,7.96.45.93-1.24,1.41-1.86,2.34-3.09C960.308,208.11,959.238,204.76,955.978,202.63Zm211.27,109.77c-33.19-30.93-64.61-58.57-94.97-83.15C934.558,117.81,818.448,69.26,657.018,61.79q-22.575-1.05-46.4-1.04c-228.54,0-358.97,67.4-556.67,251.68a3.524,3.524,0,0,0,.04,5.19c166.76,150.25,308.34,257.2,557.67,258.83,249.42-1.63,372.97-98.1,555.52-258.83A3.519,3.519,0,0,0,1167.248,312.4ZM922.108,160.78c7.84,4.2,11.76,6.39,19.38,10.85,1.57.91,2.35,1.37,3.9,2.29,8.88,5.26,13.44,7.97,21.89,13.61,11.2,7.48,18.22,22.25,10.12,34.66-.98,1.2-1.48,1.82-2.46,3.02-5.29,6.47-14.41,8.98-23.57,7.42-.38,2.6-.71,4.8-1.02,6.85-.69,4.57-1.32,8.37-2.31,14.12a57.877,57.877,0,0,0-.07,18.76c-8.81-6.68-17.99-13.06-27.33-18.99a9.051,9.051,0,0,0,7.8-7.59c1.18-8.42,1.75-12.94,2.65-20.93.06-.54.13-1.08.19-1.65-3.9-2.46-5.86-3.66-9.81-6.05-.11.17-.22.33-.33.49-3.18,4.76-4.88,7.29-8.13,12.2a20.967,20.967,0,0,0-2.78,16.95q-14.85-8.745-29.87-17.14a24.055,24.055,0,0,0,14.68-10.41q4.23-6.885,8.5-13.75,8.43-13.59,17.01-27.09A19.625,19.625,0,0,0,922.108,160.78Zm-667.84,155.9c67.06-48.91,118.5-80.51,176.02-99.49,50.75-16.76,106.24-23.7,181.37-24.1,15.96.08,31.03.47,45.36,1.17,53.14,2.62,96.05,9.73,136.02,22.93,46.94,15.5,89.82,39.38,140.44,74.21,11.42,7.86,23.23,16.27,35.57,25.28a3.51,3.51,0,0,1,0,5.68c-64.66,47.16-114.8,78.22-169.87,97.41-52.43,18.27-109.34,25.77-187.52,26.18-76.5-.4-132.63-7.6-184.13-25.02-56.42-19.09-107.28-50.43-173.27-98.57A3.515,3.515,0,0,1,254.268,316.68ZM338.6,206.27c5.88-3,12.98-1.14,15.77,4.03s.38,11.59-5.28,14.47-12.6,1.23-15.61-3.82S332.718,209.27,338.6,206.27Zm115.28-44.02c6.46-1.72,13.01,1.56,14.57,7.18s-2.24,11.4-8.45,13.04-12.66-1.4-14.48-6.95S447.418,163.96,453.878,162.25Zm460.61-5.47c-5.29,8.71-7.91,13.06-13.1,21.8a27.441,27.441,0,0,0-13.91-14.34c-7.14-3.41-10.76-5.04-18.03-8.24-2.19,4.3-3.29,6.46-5.47,10.77,8.02,3.51,11.98,5.33,19.85,9.12-2.89,5.21-4.63,8.35-7.02,12.72-.62,1.12-1.28,2.33-2.01,3.67-7.6-3.66-11.45-5.42-19.19-8.8-2.22,4.43-3.32,6.66-5.51,11.11,6.74,2.95,10.09,4.47,16.71,7.63a29.939,29.939,0,0,0,19.4,2.21c-5.02,8.64-7.51,12.96-12.43,21.65-18.86-9.1-37.91-17.56-57.3-25.47a23.7,23.7,0,0,0,13.24-12.14q4.56-10.2,9.19-20.39,5.295-11.7,10.68-23.36a18.885,18.885,0,0,0-.89-17.37Q882.148,140.91,914.488,156.78Zm-147.35-54.53c25.41,6.67,50.45,14.23,75.3,22.75-4.08,9.32-6.11,13.98-10.12,23.31-3.04-5.73-8.78-10.33-15.74-12.65-2.67-.89-4.01-1.33-6.7-2.19q-3.54,9.435-7.06,18.88-4.38,11.775-8.71,23.56a21.07,21.07,0,0,0,1.45,17.24c-11.14-3.53-22.29-6.88-33.53-10.07a22.583,22.583,0,0,0,11.96-13.24q4.02-12.45,8.12-24.9,2.955-9.045,5.95-18.07c-2.73-.76-4.09-1.13-6.82-1.87a30.587,30.587,0,0,0-20.97,1.6C763,116.86,764.378,111.98,767.138,102.25ZM696.588,89.4c1.85.24,2.77.37,4.61.61,10.49,1.4,16.3,1.88,26.17,4.05,11.37,2.51,28.47,13.29,24.53,27.78-.4,1.47-.58,2.22-.97,3.71a19.328,19.328,0,0,1-5.42,9.02,28.008,28.008,0,0,1-13.23,6.85c2.44,8.19,3.63,12.31,5.76,20.49a59.321,59.321,0,0,0,7.74,17.2c-11.06-2.55-22.08-4.82-33.25-6.86a8.684,8.684,0,0,0,4.06-9.95c-2.6-8.7-4.01-13.09-6.94-21.78-4.64-.76-6.97-1.1-11.63-1.77-.98,5.94-1.47,8.91-2.43,14.85a21.018,21.018,0,0,0,4.55,16.61c-11.6-1.61-23.18-3.04-34.83-4.3a22.7,22.7,0,0,0,9.18-15.16q1.68-13.695,3.38-27.41l2.46-19.74c.74-5.9-1.53-11.92-6.39-16.69C683.028,87.76,687.578,88.26,696.588,89.4Zm-99.84-5.66c3.67-.07,6.42-.11,9.16-.13s5.51-.01,9.17.01c7.31.05,10.99.12,18.31.37-3.8,2.73-5.05,7.04-3.29,10.88q5.88,12.84,11.37,25.9,6.09,14.46,11.59,29.09a49.01,49.01,0,0,0,3.4,7.15,47.867,47.867,0,0,0,6.15,8.31q-3.1-.285-6.24-.54c-8.94-.72-17.93-1.21-26.87-1.44.28-.09.41-.14.68-.22,3.05-1.01,3.94-5.85,1.89-10.91-.65-1.63-.98-2.48-1.65-4.13-5.58-.18-8.69-.25-13.69-.29-.86-.01-1.29-.01-2.14-.01-6.33-.06-9.5-.04-15.82.09-.71,1.64-1.04,2.48-1.73,4.09-2.13,5.02-1.29,9.99,1.73,10.94.27.1.41.13.68.23-11.03.1-22.14.62-33.13,1.53a47.782,47.782,0,0,0,9.77-15.34q5.73-14.61,12.07-29.05,5.655-12.915,11.71-25.62C601.7,90.82,600.518,86.53,596.748,83.74Zm-85.7,6.39a62.111,62.111,0,0,1,28.77-2.37,31.788,31.788,0,0,0,13.17-.58c-4.24,9.51-6.25,14.27-10.08,23.84-5.42-6.49-16.84-6.05-23.76-3.81-9.47,3.08-17.53,11.2-18.1,20.83a19.2,19.2,0,0,0,1.46,8.45c.23.43.32.7.55,1.09,6.35,10.67,22.24,15.66,34.26,11.43,6.2-2.18,11.24-4.51,12.34-12.35,5.45,7.46,8.09,11.21,13.22,18.78.35.38-.28.88-1.63,2.26-6.36,4.75-8.69,6.04-17.01,8.67-21.88,6.92-50.76,1-62.39-20.38-.23-.42-.34-.64-.57-1.06a30.543,30.543,0,0,1-3.71-12.4C476.178,113.61,493.488,96.25,511.048,90.13Zm-148.47,40.56c2.5-1,5.03-1.98,8.4-3.26,6.73-2.57,10.12-3.83,16.94-6.23a8.584,8.584,0,0,0,1.61,11.17q10.965,9.84,21.63,20.07,11.43,10.98,22.36,22.36a52.224,52.224,0,0,0,15.09,10.88c-10.54,2.93-21.04,6.29-31.33,10,.22-.17.34-.27.55-.44,2.44-1.93,1.27-6.83-2.68-10.76-1.27-1.27-1.92-1.94-3.21-3.22-2.95,1.04-5.16,1.83-7.36,2.64s-4.4,1.63-7.31,2.74c-5.83,2.22-8.75,3.38-14.52,5.76.02,1.76.05,2.67.07,4.41.06,5.41,2.81,9.66,6,9.48.28-.01.43-.03.71-.02-10.09,4.03-20.1,8.5-29.83,13.33a45.752,45.752,0,0,0,2.8-17.69q-.57-13.35-.77-26.76-.255-16.1,0-32.14c.06-4.15-2.85-7.69-7.48-8.9C357.568,132.73,360.078,131.7,362.578,130.69Zm-99.95,49.28c10.68-6.6,24.15-9.1,36.07-4.92a31.538,31.538,0,0,0,11.1,1.82c-7.93,6.45-15.7,13.22-23.15,20.22.14-3.33-3.01-5.8-6.7-5.15a17.155,17.155,0,0,0-5.46,1.79c-.35.23-.93.44-1.41.74-4.77,2.95-7.44,7.8-6.57,10.08.6,1.57,2.87,2.64,5.84,2.88,2.77.21,6.69-.75,11.31-2.43,9.66-3.5,20.92-5.02,30.62-1.4a29.351,29.351,0,0,1,4.07,1.89c4.34,2.44,7.73,6.63,8.75,10.9,2.99,12.54-5.65,24.76-15.94,31.13-9.3,5.75-21.89,7.66-32.34,4.48a23.977,23.977,0,0,0-10.43-.9c6.34-7.26,13-14.34,19.87-21.1a5.557,5.557,0,0,0,6.65,5.21,23.377,23.377,0,0,0,4.86-1.64,12.333,12.333,0,0,0,1.44-.75c4.41-2.75,7.03-7.09,6.26-9.45a4.893,4.893,0,0,0-2.31-2.29c-3.39-1.9-8.42-1.72-16.88,1.16-.37.13-.74.25-1.11.37h-.01c-6.24,2.1-13.04,3.99-19.99,3.49-9.93-.71-18.71-5.48-21.03-12.26C241.528,200.38,251.338,186.95,262.628,179.97Zm-22.72,257.96q-14.46-10.005-28.36-20.78a8.4,8.4,0,0,0,8.2-6.55q5.085-23.865,11.2-47.42c.57-2.15,1.14-4.31,1.71-6.46a45.417,45.417,0,0,0,1.27-17.38c7.74,6.69,15.72,13.19,23.84,19.41a8.818,8.818,0,0,0-7.91,6.76q-1.35,5.61-2.63,11.23-3.465,15.09-6.51,30.27,12.93-7.305,25.62-14.96,5.4-3.255,10.77-6.57a8.991,8.991,0,0,0,3.88-9.71c8.27,5.78,16.75,11.36,25.33,16.65a46.176,46.176,0,0,0-16.03,6.7q-3.96,2.625-7.94,5.19-19.05,12.375-38.64,23.85C240.328,430.03,238.888,433.95,239.908,437.93Zm59.77,36.8q-15.465-8.415-30.48-17.66a19.192,19.192,0,0,0,13.9-9.12q8.94-15.045,17.87-30.1,2.415-4.08,4.83-8.15a21.3,21.3,0,0,0,2.13-16.29c8.84,5.48,17.89,10.73,27.03,15.66a21.152,21.152,0,0,0-12.89,10.05l-5.28,9.57q-8.115,14.685-16.21,29.38A19.5,19.5,0,0,0,299.678,474.73Zm66.36,13.3c-8.34,10.09-23.37,9.19-34.13,4.07-9.86-4.69-18-13.5-19.99-24.54a23.31,23.31,0,0,0-3.64-9.08c10.66,3.15,15.99,4.58,26.64,7.2a4.955,4.955,0,0,0-1.15,7.67,21.181,21.181,0,0,0,3.78,3.06,11.618,11.618,0,0,0,1.34.76c4.52,2.14,9.4,1.89,10.89.11a4.381,4.381,0,0,0,.62-2.92c-.2-3.55-2.89-7.18-9.12-12.32-4.83-3.99-9.72-8.67-12.2-14.73a24.583,24.583,0,0,1-1.83-11.8,17.1,17.1,0,0,1,4.31-9.94c7.94-8.58,21.94-8.14,32.09-3.53,8.19,3.72,16.66,13.32,18.34,22.46a20.875,20.875,0,0,0,3.93,8.54c-10.22-1.69-15.34-2.66-25.6-4.85a4.962,4.962,0,0,0,1.06-7.53,12.462,12.462,0,0,0-3.59-3.04c-.33-.15-.71-.46-1.14-.67-4.2-1.99-8.93-1.67-10.4.07-1.02,1.21-.99,3.4.02,5.76.95,2.21,3.32,4.61,6.64,7.29,1.13.9,2.26,1.84,3.35,2.83.01,0,.02.01.03.02,6.67,5.99,12.24,13.41,13.14,22.67A17.788,17.788,0,0,1,366.038,488.03Zm39.43,32.57c-17.88-6.33-29.83-26.38-22.5-45.05,1.08-2.75,1.99-5.09,2.85-7.26,2.03-5.16,3.69-9.39,6.25-15.91a21.012,21.012,0,0,0-.4-16.37c9.44,3.9,19.04,7.54,28.69,10.88a21.4,21.4,0,0,0-11.03,12.03c-2.53,7.1-4.11,11.5-6.18,17.29-.67,1.86-1.38,3.87-2.2,6.15-3.17,8.87,1.23,18.72,9.98,21.62,8.63,2.86,17.98-2.42,20.69-11.44.49-1.64.94-3.14,1.36-4.55,2.05-6.82,3.44-11.47,5.83-19.41a20.792,20.792,0,0,0-1.75-16.15c9.68,3.08,19.49,5.88,29.33,8.39a21.422,21.422,0,0,0-9.97,12.91c-2.21,8.29-3.48,13-5.42,20.29-.32,1.18-.65,2.43-1.01,3.77C444.988,516.38,423.258,526.9,405.468,520.6Zm186.79,32.86c-19.41-.55-38.83-1.92-58.1-4.24-.05-.01-.08-.01-.13-.02l-.5-.06c-10.44-1.33-20.78-2.82-31.17-4.47a8.721,8.721,0,0,0,4.05-9.68c-.48-1.76-.72-2.64-1.19-4.4-9.73-1.63-22.12-4.32-32.15-6.44-.85,1.18-1.69,2.36-2.54,3.54-3.13,4.13-3.54,8.75-.86,10.38.24.15.35.22.59.36-10.51-2.41-20.91-4.97-31.33-7.72a38.241,38.241,0,0,0,13.51-10.7q8.175-10.35,16.07-20.89,8.64-11.5,16.98-23.27a9.4,9.4,0,0,0,.05-10.56c8.89,1.97,13.34,2.87,22.28,4.48,3.16,10.19,1.85,5.75,3.77,12.27,2.27,9.57,4.76,18.75,7.38,27.91,2.49,8.66,5.08,17.29,7.71,26.23a37.107,37.107,0,0,0,7.21,12.71,19.59,19.59,0,0,0,8.26-13.9q1.155-10.77,2.32-21.55,1.215-11.37,2.44-22.74a21.463,21.463,0,0,0-4.62-15.65c10,1.22,20.09,2.15,30.14,2.79a21.344,21.344,0,0,0-7.38,14.43q-.87,11.49-1.76,22.97-.75,9.765-1.5,19.54c5.69.44,8.52.63,14.22.94a24.434,24.434,0,0,0,16.9-5.47C592.638,539.53,592.508,544.18,592.258,553.46Zm82.57-2.89h.08c-.13.02-.26.03-.39.04a.772.772,0,0,0-.15.02c-.01-.01-.01-.01-.02-.01-10.53.94-21.01,1.71-31.57,2.32a19.743,19.743,0,0,0,6.28-15.4q-.645-10.875-1.3-21.74-.675-11.415-1.36-22.83a21.423,21.423,0,0,0-7.25-14.66c6.77-.34,10.73-.58,16.56-1.05,3.13-.29,13.09-1.16,16.21-1.5,18.24-2.59,37.91,10.41,41.22,28.86.21,1.26.36,2.2.53,3.14.14.92.3,1.83.51,3.05C717.608,531.58,694.028,548.33,674.828,550.57Zm48.7-6.65a19.794,19.794,0,0,0,4.23-16.04q-2.04-11.04-4.09-22.09-2.025-10.965-4.05-21.92a21.082,21.082,0,0,0-8.76-13.47c17.99-3.35,35.71-7.33,53.4-12,2.48,9.09,3.72,13.64,6.2,22.73a23.819,23.819,0,0,0-16.8-2c-6.22,1.54-9.34,2.27-15.59,3.63.95,4.39,1.42,6.58,2.37,10.97,7.17-1.57,10.75-2.41,17.87-4.19.7,2.8,1.25,5.02,1.77,7.13.75,3,1.45,5.79,2.43,9.74-7.33,1.84-11.01,2.7-18.38,4.31.98,4.52,1.47,6.78,2.45,11.29,6.67-1.45,10-2.23,16.64-3.87a24.225,24.225,0,0,0,14.56-10.18c2.45,8.96,3.67,13.44,6.11,22.41C763.908,535.68,743.858,540.18,723.528,543.92Zm101.35-25.35c-10.22,3.53-22.04,2.86-30.99-3.67a22.95,22.95,0,0,0-8.78-3.98c9.61-5.18,14.35-7.86,23.67-13.42a4.964,4.964,0,0,0,4.47,6.32,21.013,21.013,0,0,0,4.79-.45,11.547,11.547,0,0,0,1.48-.39c4.67-1.62,7.96-5.21,7.79-7.54a4.311,4.311,0,0,0-1.57-2.52c-2.6-2.4-7.03-3.13-14.98-2.47-6.16.51-12.83.56-18.73-2.06a25.119,25.119,0,0,1-2.78-1.44c-6.34-3.75-10.24-9.7-10.42-15.9-.34-11.65,9.75-21.15,20.17-24.94,8.41-3.06,21.08-2.07,28.58,3.29a20.492,20.492,0,0,0,8.74,3.37c-8.5,5.95-12.83,8.84-21.62,14.44a4.956,4.956,0,0,0-4.46-6.14,12.4,12.4,0,0,0-4.64.32c-.34.12-.82.17-1.27.32-4.35,1.5-7.47,5.04-7.3,7.31.12,1.58,1.64,3.13,3.99,4.12,2.19.92,5.51.99,9.72.59a63.671,63.671,0,0,1,10.7-.24.014.014,0,0,0,.02,0c6.76.5,13.32,2.43,18.69,6.99a17.769,17.769,0,0,1,6.2,11.29C847.388,504.8,836.108,514.7,824.878,518.57Zm30.52-12.42a19.583,19.583,0,0,0,.89-16.62q-5.715-13.83-11.44-27.68-2.79-6.735-5.57-13.46a21.3,21.3,0,0,0-11.62-11.46c9.52-3.83,18.97-7.95,28.25-12.33a21.439,21.439,0,0,0,.37,16.37q2.61,5.8,5.23,11.62,6.525,14.49,13.05,28.97a19.348,19.348,0,0,0,12.71,10.68C876.7,497.07,866.128,501.69,855.4,506.15Zm90.47-51.41a7.5,7.5,0,0,0-2.47,2.54,44.755,44.755,0,0,1-16.45,15.7c-18.86,10.47-45.7,7.11-55.58-14.15-.19-.41-.28-.61-.47-1.02a36.513,36.513,0,0,1-2.77-9.12c-2.8-17.01,6.71-34.73,21.89-43.15a40.643,40.643,0,0,1,20.26-5.1,17.143,17.143,0,0,0,9.31-2.54c-2.29,8.47-3.67,13.32-5.99,20.75-.93.68-1.87,1.35-2.81,2.01-3.27-3.1-8.23-2.22-12.43.12a23.684,23.684,0,0,0-11.84,16.42,20.4,20.4,0,0,0,1.62,12.21c.2.4.3.61.5,1.01,5.86,11,19.67,13.02,29.97,7.32a21.255,21.255,0,0,0,7.03-6.16c-1.04-1.83-1.56-2.75-2.59-4.58-4.39,2.52-6.59,3.75-11.01,6.17-3.25-6-4.87-8.99-8.11-14.99q16.98-9.285,33.34-19.63a20.4,20.4,0,0,0,1.88,16.53c4.54,7.47,6.82,11.2,11.36,18.66A7.544,7.544,0,0,0,945.868,454.74Zm62.12-36.02a5.692,5.692,0,0,0-4.1-7.17c-16.21-4.3-32.21-9.4-48.01-15.04q9.6,13.92,19.2,27.85a19.1,19.1,0,0,0,14.49,8.01q-14.43,10.305-29.4,19.82a19.2,19.2,0,0,0-1.94-16.33L936.3,401.78c-.81-1.27-1.63-2.53-2.44-3.8a20.8,20.8,0,0,0-13.59-9.11c9.21-5.98,18.24-12.08,27.22-18.39a5.985,5.985,0,0,0,3.75,6.95q5.52,1.935,11.07,3.76c11.07,3.66,22.24,7.01,33.52,9.96q-8.925-11.46-17.82-22.92l-.94-1.21a20.732,20.732,0,0,0-14.52-7.73c8.35-6.37,16.55-13.03,24.51-19.89a19.284,19.284,0,0,0,4.16,14.67l1.47,1.77q13.92,16.785,27.85,33.55a18.979,18.979,0,0,0,15.31,6.69Q1022.228,407.765,1007.988,418.72Zm-51.12-206.07c.93-1.24,1.41-1.86,2.34-3.09,1.1-1.45.03-4.8-3.23-6.93-6.81-4.44-10.27-6.6-17.25-10.8-2.7,3.91-4.05,5.87-6.73,9.79,6.84,4.12,10.25,6.25,16.91,10.58C952.108,214.28,955.7,214.2,956.868,212.65Zm-228.09-91.62c.33-1.49.49-2.26.81-3.73.38-1.75-2.06-4.41-5.99-5.09-8.23-1.43-12.36-2.09-20.64-3.28-.77,4.63-1.16,6.94-1.93,11.57,8.1,1.14,12.17,1.78,20.21,3.18C725.078,124.35,728.368,122.91,728.778,121.03ZM695,510.88c-.14-1.03-.28-2.03-.47-3.4-1.64-9.94-11.23-15.84-20.83-14.87-1.04.11-5.81.53-9.1.82q.93,10.455,1.88,20.89.9,9.945,1.79,19.9c2.5-.26,8.32-.84,9.71-.99,9.85-1.05,18.56-9.04,17.41-19.53C695.238,512.58,695.118,511.72,695,510.88Zm-80.28-381.47c3.13.03,4.7.04,7.83.1-1.68-3.8-2.9-6.54-4.2-9.39-1.02-2.23-2.1-4.54-3.49-7.48-1.44,2.92-2.55,5.21-3.6,7.42-1.36,2.84-2.62,5.56-4.36,9.35C610.028,129.39,611.608,129.38,614.718,129.41Zm-118.61,361.6q-4.305,6.435-8.7,12.81-1.695,2.46-3.41,4.92c4.9,1.04,12.89,2.84,16.46,3.48-.37-1.55-.81-3.6-1.27-5.86C498.118,501.12,496.928,494.76,496.108,491.01ZM397.1,166.96c-2.54-2.38-4.51-4.2-6.45-5.96-2.29-2.08-4.53-4.09-7.63-6.82-.12,4.24-.19,7.24-.25,10.44-.03,2.34-.05,4.76-.08,7.84,2.86-1.12,4.31-1.7,7.18-2.8S394.2,168.02,397.1,166.96Zm326.5-54.75c-8.23-1.43-12.36-2.09-20.64-3.28-.77,4.63-1.16,6.94-1.93,11.57,8.1,1.14,12.17,1.78,20.21,3.18,3.84.67,7.13-.77,7.54-2.65.33-1.49.49-2.26.81-3.73C729.968,115.55,727.528,112.89,723.6,112.21Zm-105.25,7.91c-1.02-2.23-2.1-4.54-3.49-7.48-1.44,2.92-2.55,5.21-3.6,7.42-1.36,2.84-2.62,5.56-4.36,9.35,3.13-.02,4.71-.03,7.82,0,3.13.03,4.7.04,7.83.1C620.868,125.71,619.648,122.97,618.348,120.12ZM390.648,161c-2.29-2.08-4.53-4.09-7.63-6.82-.12,4.24-.19,7.24-.25,10.44-.03,2.34-.05,4.76-.08,7.84,2.86-1.12,4.31-1.7,7.18-2.8s4.33-1.64,7.23-2.7C394.558,164.58,392.588,162.76,390.648,161Zm108.54,345.36c-1.07-5.24-2.26-11.6-3.08-15.35q-4.305,6.435-8.7,12.81-1.695,2.46-3.41,4.92c4.9,1.04,12.89,2.84,16.46,3.48C500.088,510.67,499.648,508.62,499.188,506.36Zm196.2,7.34c-.15-1.12-.27-1.98-.39-2.82-.14-1.03-.28-2.03-.47-3.4-1.64-9.94-11.23-15.84-20.83-14.87-1.04.11-5.81.53-9.1.82q.93,10.455,1.88,20.89.9,9.945,1.79,19.9c2.5-.26,8.32-.84,9.71-.99C687.828,532.18,696.538,524.19,695.388,513.7Zm282.62-145.47q-7.9,6.615-15.7,12.96c11.07,3.66,22.24,7.01,33.52,9.96Q986.9,379.69,978.008,368.23ZM723.6,112.21c-8.23-1.43-12.36-2.09-20.64-3.28-.77,4.63-1.16,6.94-1.93,11.57,8.1,1.14,12.17,1.78,20.21,3.18,3.84.67,7.13-.77,7.54-2.65.33-1.49.49-2.26.81-3.73C729.968,115.55,727.528,112.89,723.6,112.21ZM695.388,513.7c-.15-1.12-.27-1.98-.39-2.82-.14-1.03-.28-2.03-.47-3.4-1.64-9.94-11.23-15.84-20.83-14.87-1.04.11-5.81.53-9.1.82q.93,10.455,1.88,20.89.9,9.945,1.79,19.9c2.5-.26,8.32-.84,9.71-.99C687.828,532.18,696.538,524.19,695.388,513.7Zm-77.04-393.58c-1.02-2.23-2.1-4.54-3.49-7.48-1.44,2.92-2.55,5.21-3.6,7.42-1.36,2.84-2.62,5.56-4.36,9.35,3.13-.02,4.71-.03,7.82,0,3.13.03,4.7.04,7.83.1C620.868,125.71,619.648,122.97,618.348,120.12ZM499.188,506.36c-1.07-5.24-2.26-11.6-3.08-15.35q-4.305,6.435-8.7,12.81-1.695,2.46-3.41,4.92c4.9,1.04,12.89,2.84,16.46,3.48C500.088,510.67,499.648,508.62,499.188,506.36ZM390.648,161c-2.29-2.08-4.53-4.09-7.63-6.82-.12,4.24-.19,7.24-.25,10.44-.03,2.34-.05,4.76-.08,7.84,2.86-1.12,4.31-1.7,7.18-2.8s4.33-1.64,7.23-2.7C394.558,164.58,392.588,162.76,390.648,161ZM723.6,112.21c-8.23-1.43-12.36-2.09-20.64-3.28-.77,4.63-1.16,6.94-1.93,11.57,8.1,1.14,12.17,1.78,20.21,3.18,3.84.67,7.13-.77,7.54-2.65.33-1.49.49-2.26.81-3.73C729.968,115.55,727.528,112.89,723.6,112.21Zm-105.25,7.91c-1.02-2.23-2.1-4.54-3.49-7.48-1.44,2.92-2.55,5.21-3.6,7.42-1.36,2.84-2.62,5.56-4.36,9.35,3.13-.02,4.71-.03,7.82,0,3.13.03,4.7.04,7.83.1C620.868,125.71,619.648,122.97,618.348,120.12ZM390.648,161c-2.29-2.08-4.53-4.09-7.63-6.82-.12,4.24-.19,7.24-.25,10.44-.03,2.34-.05,4.76-.08,7.84,2.86-1.12,4.31-1.7,7.18-2.8s4.33-1.64,7.23-2.7C394.558,164.58,392.588,162.76,390.648,161Zm108.54,345.36c-1.07-5.24-2.26-11.6-3.08-15.35q-4.305,6.435-8.7,12.81-1.695,2.46-3.41,4.92c4.9,1.04,12.89,2.84,16.46,3.48C500.088,510.67,499.648,508.62,499.188,506.36Zm196.2,7.34c-.15-1.12-.27-1.98-.39-2.82-.14-1.03-.28-2.03-.47-3.4-1.64-9.94-11.23-15.84-20.83-14.87-1.04.11-5.81.53-9.1.82q.93,10.455,1.88,20.89.9,9.945,1.79,19.9c2.5-.26,8.32-.84,9.71-.99C687.828,532.18,696.538,524.19,695.388,513.7Zm282.62-145.47q-7.9,6.615-15.7,12.96c11.07,3.66,22.24,7.01,33.52,9.96Q986.9,379.69,978.008,368.23ZM723.6,112.21c-8.23-1.43-12.36-2.09-20.64-3.28-.77,4.63-1.16,6.94-1.93,11.57,8.1,1.14,12.17,1.78,20.21,3.18,3.84.67,7.13-.77,7.54-2.65.33-1.49.49-2.26.81-3.73C729.968,115.55,727.528,112.89,723.6,112.21ZM695.388,513.7c-.15-1.12-.27-1.98-.39-2.82-.14-1.03-.28-2.03-.47-3.4-1.64-9.94-11.23-15.84-20.83-14.87-1.04.11-5.81.53-9.1.82q.93,10.455,1.88,20.89.9,9.945,1.79,19.9c2.5-.26,8.32-.84,9.71-.99C687.828,532.18,696.538,524.19,695.388,513.7Zm-77.04-393.58c-1.02-2.23-2.1-4.54-3.49-7.48-1.44,2.92-2.55,5.21-3.6,7.42-1.36,2.84-2.62,5.56-4.36,9.35,3.13-.02,4.71-.03,7.82,0,3.13.03,4.7.04,7.83.1C620.868,125.71,619.648,122.97,618.348,120.12ZM499.188,506.36c-1.07-5.24-2.26-11.6-3.08-15.35q-4.305,6.435-8.7,12.81-1.695,2.46-3.41,4.92c4.9,1.04,12.89,2.84,16.46,3.48C500.088,510.67,499.648,508.62,499.188,506.36ZM390.648,161c-2.29-2.08-4.53-4.09-7.63-6.82-.12,4.24-.19,7.24-.25,10.44-.03,2.34-.05,4.76-.08,7.84,2.86-1.12,4.31-1.7,7.18-2.8s4.33-1.64,7.23-2.7C394.558,164.58,392.588,162.76,390.648,161Zm0,0c-2.29-2.08-4.53-4.09-7.63-6.82-.12,4.24-.19,7.24-.25,10.44-.03,2.34-.05,4.76-.08,7.84,2.86-1.12,4.31-1.7,7.18-2.8s4.33-1.64,7.23-2.7C394.558,164.58,392.588,162.76,390.648,161Zm108.54,345.36c-1.07-5.24-2.26-11.6-3.08-15.35q-4.305,6.435-8.7,12.81-1.695,2.46-3.41,4.92c4.9,1.04,12.89,2.84,16.46,3.48C500.088,510.67,499.648,508.62,499.188,506.36Zm196.2,7.34c-.15-1.12-.27-1.98-.39-2.82-.14-1.03-.28-2.03-.47-3.4-1.64-9.94-11.23-15.84-20.83-14.87-1.04.11-5.81.53-9.1.82q.93,10.455,1.88,20.89.9,9.945,1.79,19.9c2.5-.26,8.32-.84,9.71-.99C687.828,532.18,696.538,524.19,695.388,513.7Zm282.62-145.47q-7.9,6.615-15.7,12.96c11.07,3.66,22.24,7.01,33.52,9.96Q986.9,379.69,978.008,368.23ZM695.388,513.7c-.15-1.12-.27-1.98-.39-2.82-.14-1.03-.28-2.03-.47-3.4-1.64-9.94-11.23-15.84-20.83-14.87-1.04.11-5.81.53-9.1.82q.93,10.455,1.88,20.89.9,9.945,1.79,19.9c2.5-.26,8.32-.84,9.71-.99C687.828,532.18,696.538,524.19,695.388,513.7Zm-196.2-7.34c-1.07-5.24-2.26-11.6-3.08-15.35q-4.305,6.435-8.7,12.81-1.695,2.46-3.41,4.92c4.9,1.04,12.89,2.84,16.46,3.48C500.088,510.67,499.648,508.62,499.188,506.36ZM390.648,161c-2.29-2.08-4.53-4.09-7.63-6.82-.12,4.24-.19,7.24-.25,10.44-.03,2.34-.05,4.76-.08,7.84,2.86-1.12,4.31-1.7,7.18-2.8s4.33-1.64,7.23-2.7C394.558,164.58,392.588,162.76,390.648,161Zm0,0c-2.29-2.08-4.53-4.09-7.63-6.82-.12,4.24-.19,7.24-.25,10.44-.03,2.34-.05,4.76-.08,7.84,2.86-1.12,4.31-1.7,7.18-2.8s4.33-1.64,7.23-2.7C394.558,164.58,392.588,162.76,390.648,161Zm108.54,345.36c-1.07-5.24-2.26-11.6-3.08-15.35q-4.305,6.435-8.7,12.81-1.695,2.46-3.41,4.92c4.9,1.04,12.89,2.84,16.46,3.48C500.088,510.67,499.648,508.62,499.188,506.36Zm196.2,7.34c-.15-1.12-.27-1.98-.39-2.82-.14-1.03-.28-2.03-.47-3.4-1.64-9.94-11.23-15.84-20.83-14.87-1.04.11-5.81.53-9.1.82q.93,10.455,1.88,20.89.9,9.945,1.79,19.9c2.5-.26,8.32-.84,9.71-.99C687.828,532.18,696.538,524.19,695.388,513.7Zm282.62-145.47q-7.9,6.615-15.7,12.96c11.07,3.66,22.24,7.01,33.52,9.96Q986.9,379.69,978.008,368.23ZM695.388,513.7c-.15-1.12-.27-1.98-.39-2.82-.14-1.03-.28-2.03-.47-3.4-1.64-9.94-11.23-15.84-20.83-14.87-1.04.11-5.81.53-9.1.82q.93,10.455,1.88,20.89.9,9.945,1.79,19.9c2.5-.26,8.32-.84,9.71-.99C687.828,532.18,696.538,524.19,695.388,513.7Zm-196.2-7.34c-1.07-5.24-2.26-11.6-3.08-15.35q-4.305,6.435-8.7,12.81-1.695,2.46-3.41,4.92c4.9,1.04,12.89,2.84,16.46,3.48C500.088,510.67,499.648,508.62,499.188,506.36ZM390.648,161c-2.29-2.08-4.53-4.09-7.63-6.82-.12,4.24-.19,7.24-.25,10.44-.03,2.34-.05,4.76-.08,7.84,2.86-1.12,4.31-1.7,7.18-2.8s4.33-1.64,7.23-2.7C394.558,164.58,392.588,162.76,390.648,161Zm108.54,345.36c-1.07-5.24-2.26-11.6-3.08-15.35q-4.305,6.435-8.7,12.81-1.695,2.46-3.41,4.92c4.9,1.04,12.89,2.84,16.46,3.48C500.088,510.67,499.648,508.62,499.188,506.36Zm196.2,7.34c-.15-1.12-.27-1.98-.39-2.82-.14-1.03-.28-2.03-.47-3.4-1.64-9.94-11.23-15.84-20.83-14.87-1.04.11-5.81.53-9.1.82q.93,10.455,1.88,20.89.9,9.945,1.79,19.9c2.5-.26,8.32-.84,9.71-.99C687.828,532.18,696.538,524.19,695.388,513.7Zm282.62-145.47q-7.9,6.615-15.7,12.96c11.07,3.66,22.24,7.01,33.52,9.96Q986.9,379.69,978.008,368.23ZM695.388,513.7c-.15-1.12-.27-1.98-.39-2.82-.14-1.03-.28-2.03-.47-3.4-1.64-9.94-11.23-15.84-20.83-14.87-1.04.11-5.81.53-9.1.82q.93,10.455,1.88,20.89.9,9.945,1.79,19.9c2.5-.26,8.32-.84,9.71-.99C687.828,532.18,696.538,524.19,695.388,513.7Zm-196.2-7.34c-1.07-5.24-2.26-11.6-3.08-15.35q-4.305,6.435-8.7,12.81-1.695,2.46-3.41,4.92c4.9,1.04,12.89,2.84,16.46,3.48C500.088,510.67,499.648,508.62,499.188,506.36Zm0,0c-1.07-5.24-2.26-11.6-3.08-15.35q-4.305,6.435-8.7,12.81-1.695,2.46-3.41,4.92c4.9,1.04,12.89,2.84,16.46,3.48C500.088,510.67,499.648,508.62,499.188,506.36Zm196.2,7.34c-.15-1.12-.27-1.98-.39-2.82-.14-1.03-.28-2.03-.47-3.4-1.64-9.94-11.23-15.84-20.83-14.87-1.04.11-5.81.53-9.1.82q.93,10.455,1.88,20.89.9,9.945,1.79,19.9c2.5-.26,8.32-.84,9.71-.99C687.828,532.18,696.538,524.19,695.388,513.7Zm282.62-145.47q-7.9,6.615-15.7,12.96c11.07,3.66,22.24,7.01,33.52,9.96Q986.9,379.69,978.008,368.23ZM695.388,513.7c-.15-1.12-.27-1.98-.39-2.82-.14-1.03-.28-2.03-.47-3.4-1.64-9.94-11.23-15.84-20.83-14.87-1.04.11-5.81.53-9.1.82q.93,10.455,1.88,20.89.9,9.945,1.79,19.9c2.5-.26,8.32-.84,9.71-.99C687.828,532.18,696.538,524.19,695.388,513.7Zm-196.2-7.34c-1.07-5.24-2.26-11.6-3.08-15.35q-4.305,6.435-8.7,12.81-1.695,2.46-3.41,4.92c4.9,1.04,12.89,2.84,16.46,3.48C500.088,510.67,499.648,508.62,499.188,506.36Zm0,0c-1.07-5.24-2.26-11.6-3.08-15.35q-4.305,6.435-8.7,12.81-1.695,2.46-3.41,4.92c4.9,1.04,12.89,2.84,16.46,3.48C500.088,510.67,499.648,508.62,499.188,506.36Zm196.2,7.34c-.15-1.12-.27-1.98-.39-2.82-.14-1.03-.28-2.03-.47-3.4-1.64-9.94-11.23-15.84-20.83-14.87-1.04.11-5.81.53-9.1.82q.93,10.455,1.88,20.89.9,9.945,1.79,19.9c2.5-.26,8.32-.84,9.71-.99C687.828,532.18,696.538,524.19,695.388,513.7Zm282.62-145.47q-7.9,6.615-15.7,12.96c11.07,3.66,22.24,7.01,33.52,9.96Q986.9,379.69,978.008,368.23ZM695.388,513.7c-.15-1.12-.27-1.98-.39-2.82-.14-1.03-.28-2.03-.47-3.4-1.64-9.94-11.23-15.84-20.83-14.87-1.04.11-5.81.53-9.1.82q.93,10.455,1.88,20.89.9,9.945,1.79,19.9c2.5-.26,8.32-.84,9.71-.99C687.828,532.18,696.538,524.19,695.388,513.7Zm-196.2-7.34c-1.07-5.24-2.26-11.6-3.08-15.35q-4.305,6.435-8.7,12.81-1.695,2.46-3.41,4.92c4.9,1.04,12.89,2.84,16.46,3.48C500.088,510.67,499.648,508.62,499.188,506.36Zm0,0c-1.07-5.24-2.26-11.6-3.08-15.35q-4.305,6.435-8.7,12.81-1.695,2.46-3.41,4.92c4.9,1.04,12.89,2.84,16.46,3.48C500.088,510.67,499.648,508.62,499.188,506.36Zm196.2,7.34c-.15-1.12-.27-1.98-.39-2.82-.14-1.03-.28-2.03-.47-3.4-1.64-9.94-11.23-15.84-20.83-14.87-1.04.11-5.81.53-9.1.82q.93,10.455,1.88,20.89.9,9.945,1.79,19.9c2.5-.26,8.32-.84,9.71-.99C687.828,532.18,696.538,524.19,695.388,513.7Zm282.62-145.47q-7.9,6.615-15.7,12.96c11.07,3.66,22.24,7.01,33.52,9.96Q986.9,379.69,978.008,368.23ZM695.388,513.7c-.15-1.12-.27-1.98-.39-2.82-.14-1.03-.28-2.03-.47-3.4-1.64-9.94-11.23-15.84-20.83-14.87-1.04.11-5.81.53-9.1.82q.93,10.455,1.88,20.89.9,9.945,1.79,19.9c2.5-.26,8.32-.84,9.71-.99C687.828,532.18,696.538,524.19,695.388,513.7Zm-196.2-7.34c-1.07-5.24-2.26-11.6-3.08-15.35q-4.305,6.435-8.7,12.81-1.695,2.46-3.41,4.92c4.9,1.04,12.89,2.84,16.46,3.48C500.088,510.67,499.648,508.62,499.188,506.36Zm0,0c-1.07-5.24-2.26-11.6-3.08-15.35q-4.305,6.435-8.7,12.81-1.695,2.46-3.41,4.92c4.9,1.04,12.89,2.84,16.46,3.48C500.088,510.67,499.648,508.62,499.188,506.36Zm196.2,7.34c-.15-1.12-.27-1.98-.39-2.82-.14-1.03-.28-2.03-.47-3.4-1.64-9.94-11.23-15.84-20.83-14.87-1.04.11-5.81.53-9.1.82q.93,10.455,1.88,20.89.9,9.945,1.79,19.9c2.5-.26,8.32-.84,9.71-.99C687.828,532.18,696.538,524.19,695.388,513.7Zm282.62-145.47q-7.9,6.615-15.7,12.96c11.07,3.66,22.24,7.01,33.52,9.96Q986.9,379.69,978.008,368.23ZM695.388,513.7c-.15-1.12-.27-1.98-.39-2.82-.14-1.03-.28-2.03-.47-3.4-1.64-9.94-11.23-15.84-20.83-14.87-1.04.11-5.81.53-9.1.82q.93,10.455,1.88,20.89.9,9.945,1.79,19.9c2.5-.26,8.32-.84,9.71-.99C687.828,532.18,696.538,524.19,695.388,513.7Zm-196.2-7.34c-1.07-5.24-2.26-11.6-3.08-15.35q-4.305,6.435-8.7,12.81-1.695,2.46-3.41,4.92c4.9,1.04,12.89,2.84,16.46,3.48C500.088,510.67,499.648,508.62,499.188,506.36Zm196.2,7.34c-.15-1.12-.27-1.98-.39-2.82-.14-1.03-.28-2.03-.47-3.4-1.64-9.94-11.23-15.84-20.83-14.87-1.04.11-5.81.53-9.1.82q.93,10.455,1.88,20.89.9,9.945,1.79,19.9c2.5-.26,8.32-.84,9.71-.99C687.828,532.18,696.538,524.19,695.388,513.7Zm282.62-145.47q-7.9,6.615-15.7,12.96c11.07,3.66,22.24,7.01,33.52,9.96Q986.9,379.69,978.008,368.23ZM695.388,513.7c-.15-1.12-.27-1.98-.39-2.82-.14-1.03-.28-2.03-.47-3.4-1.64-9.94-11.23-15.84-20.83-14.87-1.04.11-5.81.53-9.1.82q.93,10.455,1.88,20.89.9,9.945,1.79,19.9c2.5-.26,8.32-.84,9.71-.99C687.828,532.18,696.538,524.19,695.388,513.7Zm0,0c-.15-1.12-.27-1.98-.39-2.82-.14-1.03-.28-2.03-.47-3.4-1.64-9.94-11.23-15.84-20.83-14.87-1.04.11-5.81.53-9.1.82q.93,10.455,1.88,20.89.9,9.945,1.79,19.9c2.5-.26,8.32-.84,9.71-.99C687.828,532.18,696.538,524.19,695.388,513.7Zm0,0c-.15-1.12-.27-1.98-.39-2.82-.14-1.03-.28-2.03-.47-3.4-1.64-9.94-11.23-15.84-20.83-14.87-1.04.11-5.81.53-9.1.82q.93,10.455,1.88,20.89.9,9.945,1.79,19.9c2.5-.26,8.32-.84,9.71-.99C687.828,532.18,696.538,524.19,695.388,513.7Zm0,0c-.15-1.12-.27-1.98-.39-2.82-.14-1.03-.28-2.03-.47-3.4-1.64-9.94-11.23-15.84-20.83-14.87-1.04.11-5.81.53-9.1.82q.93,10.455,1.88,20.89.9,9.945,1.79,19.9c2.5-.26,8.32-.84,9.71-.99C687.828,532.18,696.538,524.19,695.388,513.7Zm0,0c-.15-1.12-.27-1.98-.39-2.82-.14-1.03-.28-2.03-.47-3.4-1.64-9.94-11.23-15.84-20.83-14.87-1.04.11-5.81.53-9.1.82q.93,10.455,1.88,20.89.9,9.945,1.79,19.9c2.5-.26,8.32-.84,9.71-.99C687.828,532.18,696.538,524.19,695.388,513.7Zm0,0c-.15-1.12-.27-1.98-.39-2.82-.14-1.03-.28-2.03-.47-3.4-1.64-9.94-11.23-15.84-20.83-14.87-1.04.11-5.81.53-9.1.82q.93,10.455,1.88,20.89.9,9.945,1.79,19.9c2.5-.26,8.32-.84,9.71-.99C687.828,532.18,696.538,524.19,695.388,513.7Zm0,0c-.15-1.12-.27-1.98-.39-2.82-.14-1.03-.28-2.03-.47-3.4-1.64-9.94-11.23-15.84-20.83-14.87-1.04.11-5.81.53-9.1.82q.93,10.455,1.88,20.89.9,9.945,1.79,19.9c2.5-.26,8.32-.84,9.71-.99C687.828,532.18,696.538,524.19,695.388,513.7Zm0,0c-.15-1.12-.27-1.98-.39-2.82-.14-1.03-.28-2.03-.47-3.4-1.64-9.94-11.23-15.84-20.83-14.87-1.04.11-5.81.53-9.1.82q.93,10.455,1.88,20.89.9,9.945,1.79,19.9c2.5-.26,8.32-.84,9.71-.99C687.828,532.18,696.538,524.19,695.388,513.7Zm0,0c-.15-1.12-.27-1.98-.39-2.82-.14-1.03-.28-2.03-.47-3.4-1.64-9.94-11.23-15.84-20.83-14.87-1.04.11-5.81.53-9.1.82q.93,10.455,1.88,20.89.9,9.945,1.79,19.9c2.5-.26,8.32-.84,9.71-.99C687.828,532.18,696.538,524.19,695.388,513.7Z" fill="#fff"/>
    <circle cx="617.738" cy="315.37" r="30.11" transform="translate(-73.664 260.404) rotate(-22.5)" fill="#fff"/>
    <path d="M913.6,418.65c-.39,1.25-.81,2.57-1.26,4a8.425,8.425,0,0,0-1.55-1.99C911.728,420,912.668,419.33,913.6,418.65Z" fill="#fff"/>
  </g>
</svg>
