<svg xmlns="http://www.w3.org/2000/svg" width="1220.4" height="579.6" viewBox="0 0 1220.4 579.6">
  <g>
    <path d="M1038.258,287.067c-141.8,124.948-236.921,200.015-430,201.278-193.078-1.263-302.241-84.546-431.6-201.278C330.1,143.646,430.65,91.255,607.458,91.255q18.365,0,35.728.8C767.487,97.808,856.892,135.191,962.937,221,986.984,240.466,1011.893,262.426,1038.258,287.067Z" fill="#fff"/>
    <path d="M1071.876,200.45C934.157,89.01,818.047,40.46,656.617,32.99q-22.575-1.05-46.4-1.04c-228.539,0-358.968,67.4-556.669,251.676a3.532,3.532,0,0,0,.044,5.2C220.348,439.073,361.929,546.019,611.257,547.65c249.423-1.631,372.968-98.1,555.521-258.829a3.533,3.533,0,0,0,.074-5.226C1133.663,252.67,1102.241,225.029,1071.876,200.45ZM427.126,392.13c-56.417-19.087-107.274-50.43-173.264-98.569a3.519,3.519,0,0,1,0-5.682c67.06-48.909,118.5-80.5,176.024-99.489,50.75-16.76,106.239-23.7,181.37-24.1,15.96.08,31.03.47,45.36,1.17,53.14,2.62,96.049,9.73,136.02,22.93,46.94,15.5,89.819,39.38,140.44,74.21,11.416,7.859,23.234,16.275,35.573,25.277a3.52,3.52,0,0,1,0,5.683c-64.662,47.163-114.8,78.223-169.874,97.41-52.43,18.27-109.34,25.77-187.52,26.18C534.757,416.75,478.626,409.55,427.126,392.13Z" fill="#ffc200"/>
    <circle cx="617.342" cy="286.572" r="30.11"/>
    <g>
      <path d="M305.919,363.62c-8.586-5.3-17.064-10.869-25.332-16.653a8.987,8.987,0,0,1-3.883,9.71q-18,11.14-36.389,21.537,4.194-20.853,9.138-41.5a8.827,8.827,0,0,1,7.916-6.758c-8.117-6.227-16.1-12.725-23.843-19.413a45.45,45.45,0,0,1-1.27,17.385c-4.768,17.868-9.056,35.787-12.908,53.876a8.387,8.387,0,0,1-8.2,6.544q13.9,10.77,28.359,20.783c-1.017-3.975.424-7.894,3.8-9.771q23.712-13.905,46.582-29.037A45.967,45.967,0,0,1,305.919,363.62Z"/>
      <path d="M321.664,390.316a21.166,21.166,0,0,1,12.9-10.041c-9.145-4.939-18.195-10.182-27.032-15.66A21.3,21.3,0,0,1,305.4,380.9q-11.351,19.128-22.7,38.257a19.22,19.22,0,0,1-13.907,9.116q15,9.243,30.489,17.662a19.515,19.515,0,0,1,.891-16.656Z"/>
      <path d="M352.512,421.27c-3.326-2.679-5.692-5.077-6.641-7.288-1.014-2.363-1.04-4.549-.024-5.758,1.466-1.743,6.2-2.065,10.4-.069.431.205.815.511,1.139.664a12.623,12.623,0,0,1,3.591,3.039,4.962,4.962,0,0,1-1.057,7.536c10.259,2.187,15.381,3.155,25.6,4.849a20.853,20.853,0,0,1-3.93-8.548c-1.676-9.137-10.149-18.739-18.334-22.457-10.148-4.61-24.15-5.049-32.093,3.536-4.787,5.175-5.809,13.58-2.475,21.739,2.477,6.06,7.367,10.74,12.191,14.724,6.23,5.144,8.92,8.775,9.127,12.318a4.379,4.379,0,0,1-.619,2.921c-1.495,1.783-6.375,2.031-10.889-.1a11.072,11.072,0,0,1-1.341-.76,21.275,21.275,0,0,1-3.786-3.062,4.951,4.951,0,0,1,1.153-7.67c-10.65-2.617-15.982-4.055-26.645-7.2a23.393,23.393,0,0,1,3.646,9.077c1.991,11.046,10.132,19.856,19.992,24.545,10.759,5.117,25.791,6.021,34.129-4.076a17.771,17.771,0,0,0,3.387-12.441C367.976,436,360.6,427.71,352.512,421.27Z"/>
      <path d="M449.589,468.994l6.425-24.059a21.48,21.48,0,0,1,9.97-12.917c-9.835-2.5-19.65-5.313-29.323-8.389a20.812,20.812,0,0,1,1.745,16.152c-2.877,9.583-4.315,14.374-7.192,23.956-2.71,9.025-12.057,14.3-20.685,11.44-8.748-2.9-13.156-12.745-9.983-21.616l8.385-23.442a21.394,21.394,0,0,1,11.031-12.031c-9.65-3.336-19.256-6.976-28.695-10.876a21.01,21.01,0,0,1,.4,16.364c-3.641,9.268-5.462,13.9-9.1,23.17-7.323,18.67,4.62,38.723,22.5,45.054C422.859,498.1,444.585,487.581,449.589,468.994Z"/>
      <path d="M575.611,506.92c-5.7-.31-8.535-.5-14.224-.94q1.626-21.255,3.262-42.51a21.345,21.345,0,0,1,7.381-14.43c-10.057-.64-20.143-1.57-30.14-2.79a21.416,21.416,0,0,1,4.615,15.65q-2.372,22.155-4.754,44.29a19.6,19.6,0,0,1-8.266,13.9,37.293,37.293,0,0,1-7.212-12.71c-5.391-18.37-10.673-35.51-15.089-54.14-1.92-6.52-.607-2.08-3.77-12.27-8.932-1.61-13.389-2.51-22.271-4.48a9.384,9.384,0,0,1-.06,10.56q-15.965,22.53-33.044,44.16a38.225,38.225,0,0,1-13.508,10.7c10.415,2.75,20.819,5.31,31.323,7.72-.238-.14-.348-.21-.587-.36-2.675-1.63-2.267-6.25.856-10.38.855-1.18,1.691-2.36,2.546-3.54,10.027,2.12,22.421,4.81,32.149,6.44.467,1.76.706,2.64,1.193,4.4a8.73,8.73,0,0,1-4.058,9.68c10.395,1.65,20.739,3.14,31.174,4.47l.5.06c.05.01.08.01.13.02,19.277,2.32,38.693,3.69,58.1,4.24.258-9.28.388-13.93.656-23.21A24.446,24.446,0,0,1,575.611,506.92ZM483.6,479.94q6.132-8.805,12.105-17.73c1.174,5.36,3.114,16.07,4.347,21.21C496.492,482.78,488.5,480.98,483.6,479.94Z"/>
      <path d="M713.774,482.01c-.418-2.47-.627-3.71-1.035-6.19-3.312-18.45-22.977-31.45-41.22-28.86-3.123.34-13.08,1.21-16.213,1.5-5.829.47-9.788.71-16.562,1.05A21.388,21.388,0,0,1,646,464.17q1.329,22.29,2.666,44.57a19.735,19.735,0,0,1-6.286,15.4c10.563-.61,21.047-1.38,31.571-2.32.01,0,.01,0,.02.01a.772.772,0,0,1,.149-.02c.13-.01.259-.02.388-.04h-.079C693.631,519.53,717.206,502.78,713.774,482.01Zm-36.2,22.42c-1.393.15-7.212.73-9.708.99L664.2,464.63c3.293-.29,8.058-.71,9.1-.82,9.6-.97,19.188,4.93,20.829,14.87.348,2.49.517,3.73.855,6.22C696.138,495.39,687.425,503.38,677.577,504.43Z"/>
      <path d="M762.815,489.341c-6.64,1.64-9.968,2.414-16.641,3.873-.979-4.517-1.469-6.776-2.448-11.292,7.371-1.612,11.047-2.473,18.377-4.31-1.677-6.749-2.515-10.124-4.192-16.874-7.127,1.786-10.7,2.624-17.869,4.191l-2.378-10.965c6.255-1.367,9.375-2.092,15.6-3.629a23.8,23.8,0,0,1,16.8,1.991c-2.479-9.09-3.719-13.635-6.2-22.726-17.694,4.671-35.413,8.654-53.4,12a21.085,21.085,0,0,1,8.758,13.465l8.145,44.015a19.833,19.833,0,0,1-4.229,16.042c20.331-3.747,40.374-8.25,60.361-13.559-2.444-8.961-3.667-13.441-6.111-22.4A24.249,24.249,0,0,1,762.815,489.341Z"/>
      <path d="M839.747,451.684c-8.2-6.971-19.178-7.781-29.409-6.751-4.206.4-7.53.331-9.724-.594-2.346-.989-3.869-2.54-3.985-4.118-.166-2.275,2.949-5.807,7.3-7.309.446-.155.929-.2,1.264-.319a12.358,12.358,0,0,1,4.645-.328,4.961,4.961,0,0,1,4.456,6.147c8.8-5.6,13.122-8.491,21.619-14.439a20.589,20.589,0,0,1-8.741-3.373c-7.5-5.356-20.162-6.35-28.579-3.288-10.413,3.788-20.507,13.291-20.169,24.934.206,7.068,5.245,13.807,13.2,17.34,5.906,2.625,12.575,2.574,18.733,2.065,7.954-.657,12.38.067,14.976,2.465a4.39,4.39,0,0,1,1.58,2.528c.17,2.324-3.127,5.914-7.8,7.535a10.828,10.828,0,0,1-1.474.391,20.709,20.709,0,0,1-4.791.446,4.958,4.958,0,0,1-4.472-6.311c-9.325,5.555-14.062,8.24-23.676,13.414a22.888,22.888,0,0,1,8.783,3.979c8.948,6.533,20.769,7.2,30.99,3.673C835.7,485.9,846.985,476,845.95,462.975A17.761,17.761,0,0,0,839.747,451.684Z"/>
      <path d="M874.153,452.76q-9.138-20.292-18.275-40.586a21.436,21.436,0,0,1-.369-16.378c-9.277,4.38-18.735,8.508-28.253,12.33a21.332,21.332,0,0,1,11.625,11.466l17.01,41.138A19.585,19.585,0,0,1,855,477.345c10.727-4.46,21.3-9.074,31.867-13.907A19.378,19.378,0,0,1,874.153,452.76Z"/>
      <path d="M936.868,389.755q-16.355,10.338-33.336,19.626l8.1,14.987c4.423-2.419,6.626-3.652,11.01-6.166,1.039,1.833,1.559,2.75,2.6,4.583a21.291,21.291,0,0,1-7.037,6.154c-10.3,5.7-24.1,3.683-29.968-7.323l-.5-1c-5.028-10.777.251-23.072,10.225-28.635,4.927-2.748,10.919-3.483,13.981,1.867,3.134-9.9,4.582-14.849,7.245-24.742a17.231,17.231,0,0,1-9.307,2.54,40.633,40.633,0,0,0-20.264,5.1c-17.924,9.932-27.949,32.853-19.114,52.268l.47,1.017c9.881,21.259,36.719,24.626,55.581,14.148a44.682,44.682,0,0,0,16.444-15.693,7.186,7.186,0,0,1,7.115-3.538l-11.364-18.663A20.433,20.433,0,0,1,936.868,389.755Z"/>
      <path d="M1035.445,367.277a19,19,0,0,1-15.31-6.683q-14.661-17.659-29.319-35.32a19.318,19.318,0,0,1-4.158-14.675c-7.956,6.86-16.161,13.519-24.508,19.891a20.754,20.754,0,0,1,14.513,7.725q9.378,12.069,18.76,24.137c-15.041-3.943-29.906-8.591-44.586-13.718a6,6,0,0,1-3.75-6.958c-8.984,6.315-18.01,12.416-27.218,18.4a20.783,20.783,0,0,1,13.587,9.11q12.183,18.94,24.368,37.878a19.209,19.209,0,0,1,1.944,16.335q14.964-9.512,29.4-19.828a19.078,19.078,0,0,1-14.49-8.006l-19.2-27.855c15.792,5.642,31.8,10.743,48.005,15.049a5.685,5.685,0,0,1,4.1,7.162Q1021.818,378.98,1035.445,367.277Z"/>
    </g>
    <path d="M811.732,262.61a208.234,208.234,0,0,0-16.427-56.7,21.462,21.462,0,0,0-13.885-12.046c-37.262-10.311-77.507-16-126.418-18.211-14.33-.64-29.4-.98-45.36-1.06-70.453.328-123.635,5.941-171.833,19.289a21.385,21.385,0,0,0-13.825,11.945c-12.044,27.2-17.272,52.683-17.272,87.076,0,30.523,4.9,55.2,14.727,80.406a21.6,21.6,0,0,0,14.305,12.873c48.744,13.763,102.433,19.544,173.9,19.871,75.3-.347,130.869-6.742,181.707-22.143a12.536,12.536,0,0,0,8.083-7.463c10.054-26.1,14.29-52.31,14.29-83.544A222.588,222.588,0,0,0,811.732,262.61Zm-194.39,81.95c-33.88,0-61.35-26.14-61.35-58.39s27.47-58.39,61.35-58.39A63.008,63.008,0,0,1,655,240.08a59.055,59.055,0,0,1,18.49,22.53,55.839,55.839,0,0,1,5.2,23.56C678.692,318.42,651.222,344.56,617.342,344.56Zm95.76-81.95c-10.81,0-19.58-8.34-19.58-18.63s8.77-18.63,19.58-18.63,19.58,8.33,19.58,18.63S723.912,262.61,713.1,262.61Z"/>
    <g>
      <path d="M331.515,187.592c-1.017-4.267-4.412-8.458-8.747-10.9-10.508-5.916-23.643-4.5-34.69-.492-4.622,1.675-8.543,2.641-11.308,2.425-2.978-.233-5.244-1.3-5.846-2.876-.87-2.275,1.8-7.13,6.57-10.083.478-.3,1.059-.5,1.413-.738a17.252,17.252,0,0,1,5.457-1.792c3.693-.644,6.841,1.819,6.7,5.152,7.456-7,15.222-13.772,23.157-20.219a31.455,31.455,0,0,1-11.1-1.825c-11.924-4.172-25.392-1.678-36.074,4.925-11.289,6.978-21.1,20.406-16.487,33.872,2.321,6.78,11.1,11.546,21.031,12.257,7.364.527,14.558-1.629,21.109-3.859,8.461-2.88,13.492-3.059,16.88-1.156a4.872,4.872,0,0,1,2.306,2.291c.767,2.359-1.845,6.7-6.259,9.445a10.922,10.922,0,0,1-1.439.745,23.147,23.147,0,0,1-4.864,1.642,5.549,5.549,0,0,1-6.645-5.206c-6.87,6.757-13.535,13.837-19.874,21.1a24.182,24.182,0,0,1,10.436.905c10.449,3.183,23.035,1.265,32.334-4.485C325.864,212.353,334.5,200.129,331.515,187.592Z"/>
      <path d="M422.249,166.445c-.212.168-.336.267-.554.435,10.287-3.711,20.8-7.071,31.334-10A52.069,52.069,0,0,1,437.938,146c-14.061-14.671-28.849-28.833-43.992-42.43A8.593,8.593,0,0,1,392.335,92.4c-6.818,2.406-10.21,3.667-16.94,6.233-3.366,1.283-5.9,2.26-8.394,3.264s-5.018,2.034-8.335,3.414c4.629,1.213,7.544,4.748,7.477,8.9-.317,19.566-.05,39.315.778,58.9a45.775,45.775,0,0,1-2.809,17.688c9.731-4.823,19.746-9.3,29.832-13.33-.281,0-.432.008-.711.024-3.186.179-5.931-4.074-6-9.478-.02-1.747-.056-2.65-.072-4.411,5.77-2.379,8.688-3.547,14.516-5.766,2.91-1.109,5.127-1.932,7.318-2.738s4.407-1.6,7.362-2.637c1.289,1.283,1.934,1.951,3.2,3.214C423.516,159.612,424.683,164.505,422.249,166.445Zm-27.963-25.58c-2.87,1.092-4.319,1.67-7.181,2.792.057-7.306.121-10.954.329-18.282,5.725,5.052,8.545,7.62,14.079,12.788C398.617,139.223,397.162,139.77,394.286,140.865Z"/>
      <path d="M660.879,128.205a47.378,47.378,0,0,1-3.4-7.147c-6.961-18.537-14.7-36.961-22.955-54.989-1.76-3.843-.513-8.145,3.287-10.879-7.322-.248-11-.315-18.309-.368-3.666-.026-6.431-.022-9.176-.008s-5.488.057-9.154.124c3.763,2.8,4.943,7.086,3.121,10.913-8.523,17.9-16.534,36.213-23.781,54.671a47.807,47.807,0,0,1-9.77,15.335c10.992-.907,22.1-1.426,33.13-1.526-.271-.1-.413-.135-.684-.231-3.019-.951-3.855-5.919-1.725-10.936.685-1.614,1.021-2.459,1.722-4.095,6.324-.129,9.5-.153,15.82-.091l2.146.008c5,.045,8.106.113,13.685.289.674,1.655,1,2.507,1.658,4.131,2.048,5.066,1.157,9.908-1.9,10.91-.261.085-.392.135-.673.222,8.94.236,17.924.72,26.867,1.443q3.135.254,6.243.541A47.138,47.138,0,0,1,660.879,128.205Zm-41.741-27.594c-3.116-.027-4.69-.025-7.817,0,3.087-6.737,4.668-10.085,7.957-16.771,3.176,6.719,4.7,10.1,7.688,16.874C623.839,100.646,622.265,100.637,619.138,100.611Z"/>
      <path d="M567.3,126.637c-5.133-7.567-7.773-11.315-13.224-18.777-1.1,7.841-6.142,10.167-12.337,12.347-12.02,4.229-27.91-.76-34.267-11.429-.23-.386-.319-.654-.546-1.087-5.338-13.082,4.488-25.344,16.64-29.28,6.916-2.24,18.336-2.68,23.756,3.812,3.833-9.573,5.844-14.334,10.079-23.847a31.712,31.712,0,0,1-13.168.587,62.028,62.028,0,0,0-28.768,2.372c-21.356,7.446-42.384,31.51-29.766,54.791.228.42.34.648.567,1.067,11.612,21.37,40.512,27.293,62.392,20.376,8.323-2.631,10.651-3.917,17-8.67C567.014,127.518,567.645,127.022,567.3,126.637Z"/>
      <path d="M358.789,181.5c2.787,5.166.379,11.593-5.281,14.478s-12.6,1.226-15.608-3.824-.764-11.679,5.114-14.679S356,176.329,358.789,181.5Z"/>
      <path d="M472.868,140.629c1.565,5.618-2.246,11.4-8.453,13.044s-12.663-1.407-14.477-6.958,1.9-11.554,8.356-13.269S471.3,135.01,472.868,140.629Z"/>
      <path d="M971.694,158.731c-8.451-5.64-13-8.347-21.885-13.614-1.552-.922-2.336-1.377-3.9-2.29-7.627-4.457-11.546-6.646-19.388-10.844a19.624,19.624,0,0,1-1.556,17.619q-12.893,20.322-25.508,40.84a24.055,24.055,0,0,1-14.684,10.408q15.036,8.414,29.868,17.139a20.974,20.974,0,0,1,2.781-16.953c3.361-5.076,5.058-7.608,8.466-12.681,3.944,2.39,5.906,3.581,9.8,6.041-1.018,9.069-1.581,13.6-2.841,22.588a9.037,9.037,0,0,1-7.793,7.584c9.335,5.928,18.513,12.309,27.323,18.993a58.166,58.166,0,0,1,.069-18.761c1.449-8.32,2.1-12.551,3.334-20.974,9.159,1.565,18.28-.948,23.572-7.417.981-1.2,1.478-1.815,2.457-3.015C989.916,180.98,982.9,166.211,971.694,158.731Zm-8.064,22.03c-.931,1.23-1.41,1.848-2.346,3.089-1.169,1.551-4.759,1.631-7.955-.449-6.66-4.335-10.071-6.46-16.91-10.583,2.674-3.918,4.032-5.876,6.731-9.792,6.981,4.207,10.436,6.369,17.244,10.8C963.662,175.96,964.727,179.31,963.63,180.761Z"/>
      <path d="M731.784,65.265c-9.871-2.171-15.677-2.658-26.168-4.053-1.839-.244-2.762-.375-4.612-.609C692,59.462,687.45,58.96,678.352,58.111c4.868,4.769,7.135,10.789,6.4,16.693q-2.947,23.562-5.841,47.146a22.731,22.731,0,0,1-9.177,15.161c11.646,1.262,23.227,2.69,34.831,4.3A21,21,0,0,1,700,124.8c.966-5.938,1.455-8.909,2.431-14.851,4.662.666,6.988,1.01,11.628,1.768,2.938,8.687,4.346,13.081,6.947,21.785a8.681,8.681,0,0,1-4.06,9.942c11.169,2.039,22.187,4.314,33.25,6.866a59.272,59.272,0,0,1-7.742-17.206c-2.135-8.177-3.319-12.3-5.76-20.481,9.149-2.095,16.55-7.88,18.647-15.877.39-1.485.571-2.242.969-3.7C760.26,78.546,743.162,67.767,731.784,65.265ZM734.008,88.5c-.322,1.474-.485,2.241-.812,3.736-.41,1.873-3.7,3.317-7.543,2.646-8.037-1.4-12.105-2.037-20.2-3.181.768-4.628,1.158-6.937,1.927-11.565,8.277,1.185,12.414,1.846,20.636,3.275C731.952,84.092,734.391,86.746,734.008,88.5Z"/>
      <path d="M846.861,96.2c-4.08,9.314-6.111,13.977-10.123,23.3-3.039-5.729-8.782-10.328-15.739-12.649-2.67-.89-4.017-1.329-6.7-2.191Q806.339,125.86,798.53,147.1a21.069,21.069,0,0,0,1.442,17.244c-11.139-3.527-22.286-6.877-33.525-10.074a22.567,22.567,0,0,0,11.962-13.232q6.935-21.5,14.066-42.972c-2.729-.759-4.089-1.134-6.82-1.872a30.6,30.6,0,0,0-20.964,1.6c2.724-9.741,4.1-14.615,6.87-24.344C796.971,80.124,822.008,87.681,846.861,96.2Z"/>
      <path d="M918.9,127.976c-5.289,8.709-7.909,13.066-13.1,21.8A27.423,27.423,0,0,0,891.9,135.445c-7.144-3.411-10.759-5.045-18.033-8.241-2.184,4.3-3.285,6.457-5.465,10.767,8.018,3.509,11.981,5.33,19.845,9.115-3.631,6.551-5.433,9.823-9.024,16.4-7.6-3.663-11.451-5.418-19.2-8.807-2.219,4.438-3.317,6.667-5.511,11.116,6.739,2.943,10.09,4.468,16.712,7.623a29.859,29.859,0,0,0,19.4,2.213c-5.019,8.639-7.5,12.966-12.426,21.653-18.858-9.1-37.912-17.563-57.3-25.472a23.63,23.63,0,0,0,13.24-12.141q9.8-21.912,19.87-43.744a18.894,18.894,0,0,0-.891-17.375Q886.567,112.116,918.9,127.976Z"/>
    </g>
  </g>
</svg>
