<svg xmlns="http://www.w3.org/2000/svg" width="2460.477" height="1656" viewBox="0 0 2460.477 1656">
  <g>
    <g>
      <path d="M1244.636,756.826c-33.543,0-60.732,28.777-60.732,64.279s27.189,64.278,60.732,64.278,60.732-28.777,60.732-64.278S1278.179,756.826,1244.636,756.826Zm0,0c-33.543,0-60.732,28.777-60.732,64.279s27.189,64.278,60.732,64.278,60.732-28.777,60.732-64.278S1278.179,756.826,1244.636,756.826Zm0,0c-33.543,0-60.732,28.777-60.732,64.279s27.189,64.278,60.732,64.278,60.732-28.777,60.732-64.278S1278.179,756.826,1244.636,756.826Zm0,0c-33.543,0-60.732,28.777-60.732,64.279s27.189,64.278,60.732,64.278,60.732-28.777,60.732-64.278S1278.179,756.826,1244.636,756.826Zm0,0c-33.543,0-60.732,28.777-60.732,64.279s27.189,64.278,60.732,64.278,60.732-28.777,60.732-64.278S1278.179,756.826,1244.636,756.826Zm0,0c-33.543,0-60.732,28.777-60.732,64.279s27.189,64.278,60.732,64.278,60.732-28.777,60.732-64.278S1278.179,756.826,1244.636,756.826Zm0,0c-33.543,0-60.732,28.777-60.732,64.279s27.189,64.278,60.732,64.278,60.732-28.777,60.732-64.278S1278.179,756.826,1244.636,756.826Zm0,0c-33.543,0-60.732,28.777-60.732,64.279s27.189,64.278,60.732,64.278,60.732-28.777,60.732-64.278S1278.179,756.826,1244.636,756.826Zm0,0c-33.543,0-60.732,28.777-60.732,64.279s27.189,64.278,60.732,64.278,60.732-28.777,60.732-64.278S1278.179,756.826,1244.636,756.826Zm0,0c-33.543,0-60.732,28.777-60.732,64.279s27.189,64.278,60.732,64.278,60.732-28.777,60.732-64.278S1278.179,756.826,1244.636,756.826Zm0,0c-33.543,0-60.732,28.777-60.732,64.279s27.189,64.278,60.732,64.278,60.732-28.777,60.732-64.278S1278.179,756.826,1244.636,756.826Zm0,0c-33.543,0-60.732,28.777-60.732,64.279s27.189,64.278,60.732,64.278,60.732-28.777,60.732-64.278S1278.179,756.826,1244.636,756.826Zm0,0c-33.543,0-60.732,28.777-60.732,64.279s27.189,64.278,60.732,64.278,60.732-28.777,60.732-64.278S1278.179,756.826,1244.636,756.826Zm0,0c-33.543,0-60.732,28.777-60.732,64.279s27.189,64.278,60.732,64.278,60.732-28.777,60.732-64.278S1278.179,756.826,1244.636,756.826Zm0,0c-33.543,0-60.732,28.777-60.732,64.279s27.189,64.278,60.732,64.278,60.732-28.777,60.732-64.278S1278.179,756.826,1244.636,756.826Zm0,0c-33.543,0-60.732,28.777-60.732,64.279s27.189,64.278,60.732,64.278,60.732-28.777,60.732-64.278S1278.179,756.826,1244.636,756.826Zm0,0c-33.543,0-60.732,28.777-60.732,64.279s27.189,64.278,60.732,64.278,60.732-28.777,60.732-64.278S1278.179,756.826,1244.636,756.826Zm0,0c-33.543,0-60.732,28.777-60.732,64.279s27.189,64.278,60.732,64.278,60.732-28.777,60.732-64.278S1278.179,756.826,1244.636,756.826Zm0,0c-33.543,0-60.732,28.777-60.732,64.279s27.189,64.278,60.732,64.278,60.732-28.777,60.732-64.278S1278.179,756.826,1244.636,756.826Zm0,0c-33.543,0-60.732,28.777-60.732,64.279s27.189,64.278,60.732,64.278,60.732-28.777,60.732-64.278S1278.179,756.826,1244.636,756.826Zm0,0c-33.543,0-60.732,28.777-60.732,64.279s27.189,64.278,60.732,64.278,60.732-28.777,60.732-64.278S1278.179,756.826,1244.636,756.826Zm0,0c-33.543,0-60.732,28.777-60.732,64.279s27.189,64.278,60.732,64.278,60.732-28.777,60.732-64.278S1278.179,756.826,1244.636,756.826Zm0,0c-33.543,0-60.732,28.777-60.732,64.279s27.189,64.278,60.732,64.278,60.732-28.777,60.732-64.278S1278.179,756.826,1244.636,756.826Zm0,0c-33.543,0-60.732,28.777-60.732,64.279s27.189,64.278,60.732,64.278,60.732-28.777,60.732-64.278S1278.179,756.826,1244.636,756.826Zm0,0c-33.543,0-60.732,28.777-60.732,64.279s27.189,64.278,60.732,64.278,60.732-28.777,60.732-64.278S1278.179,756.826,1244.636,756.826Zm0,0c-33.543,0-60.732,28.777-60.732,64.279s27.189,64.278,60.732,64.278,60.732-28.777,60.732-64.278S1278.179,756.826,1244.636,756.826Zm0,0c-33.543,0-60.732,28.777-60.732,64.279s27.189,64.278,60.732,64.278,60.732-28.777,60.732-64.278S1278.179,756.826,1244.636,756.826Zm0,0c-33.543,0-60.732,28.777-60.732,64.279s27.189,64.278,60.732,64.278,60.732-28.777,60.732-64.278S1278.179,756.826,1244.636,756.826Zm0,0c-33.543,0-60.732,28.777-60.732,64.279s27.189,64.278,60.732,64.278,60.732-28.777,60.732-64.278S1278.179,756.826,1244.636,756.826Zm0,0c-33.543,0-60.732,28.777-60.732,64.279s27.189,64.278,60.732,64.278,60.732-28.777,60.732-64.278S1278.179,756.826,1244.636,756.826Zm0,0c-33.543,0-60.732,28.777-60.732,64.279s27.189,64.278,60.732,64.278,60.732-28.777,60.732-64.278S1278.179,756.826,1244.636,756.826Zm0,0c-33.543,0-60.732,28.777-60.732,64.279s27.189,64.278,60.732,64.278,60.732-28.777,60.732-64.278S1278.179,756.826,1244.636,756.826Zm0,0c-33.543,0-60.732,28.777-60.732,64.279s27.189,64.278,60.732,64.278,60.732-28.777,60.732-64.278S1278.179,756.826,1244.636,756.826Zm0,0c-33.543,0-60.732,28.777-60.732,64.279s27.189,64.278,60.732,64.278,60.732-28.777,60.732-64.278S1278.179,756.826,1244.636,756.826Zm392.084,13.129c-5.607-43.229-16.923-82.1-33.119-121.043a44.193,44.193,0,0,0-28.017-25.724c-75.152-22.01-156.317-34.156-254.988-38.874-28.9-1.367-59.3-2.092-91.491-2.263-142.1.7-249.361,12.68-346.58,41.18A43.867,43.867,0,0,0,854.65,648.72c-24.3,58.088-34.854,112.482-34.854,185.9,0,65.154,9.884,117.84,29.71,171.658a44.55,44.55,0,0,0,28.864,27.475c98.309,29.375,206.6,41.714,350.735,42.418,151.88-.747,263.965-14.388,366.508-47.264a25.825,25.825,0,0,0,16.3-15.946c20.291-55.719,28.823-111.671,28.823-178.341A502.563,502.563,0,0,0,1636.72,769.955ZM1244.636,944.9c-68.336,0-123.742-55.8-123.742-124.65S1176.3,695.6,1244.636,695.6a122.489,122.489,0,0,1,75.96,26.258,124.7,124.7,0,0,1,47.782,98.393C1368.378,889.1,1312.972,944.9,1244.636,944.9Zm193.148-174.946a39.772,39.772,0,1,1,39.492-39.771A39.636,39.636,0,0,1,1437.784,769.955Zm-193.148-13.129c-33.543,0-60.732,28.777-60.732,64.279s27.189,64.278,60.732,64.278,60.732-28.777,60.732-64.278S1278.179,756.826,1244.636,756.826Zm0,0c-33.543,0-60.732,28.777-60.732,64.279s27.189,64.278,60.732,64.278,60.732-28.777,60.732-64.278S1278.179,756.826,1244.636,756.826Zm0,0c-33.543,0-60.732,28.777-60.732,64.279s27.189,64.278,60.732,64.278,60.732-28.777,60.732-64.278S1278.179,756.826,1244.636,756.826Zm0,0c-33.543,0-60.732,28.777-60.732,64.279s27.189,64.278,60.732,64.278,60.732-28.777,60.732-64.278S1278.179,756.826,1244.636,756.826Zm0,0c-33.543,0-60.732,28.777-60.732,64.279s27.189,64.278,60.732,64.278,60.732-28.777,60.732-64.278S1278.179,756.826,1244.636,756.826Zm0,0c-33.543,0-60.732,28.777-60.732,64.279s27.189,64.278,60.732,64.278,60.732-28.777,60.732-64.278S1278.179,756.826,1244.636,756.826Zm0,0c-33.543,0-60.732,28.777-60.732,64.279s27.189,64.278,60.732,64.278,60.732-28.777,60.732-64.278S1278.179,756.826,1244.636,756.826Zm0,0c-33.543,0-60.732,28.777-60.732,64.279s27.189,64.278,60.732,64.278,60.732-28.777,60.732-64.278S1278.179,756.826,1244.636,756.826Zm0,0c-33.543,0-60.732,28.777-60.732,64.279s27.189,64.278,60.732,64.278,60.732-28.777,60.732-64.278S1278.179,756.826,1244.636,756.826Zm0,0c-33.543,0-60.732,28.777-60.732,64.279s27.189,64.278,60.732,64.278,60.732-28.777,60.732-64.278S1278.179,756.826,1244.636,756.826Zm0,0c-33.543,0-60.732,28.777-60.732,64.279s27.189,64.278,60.732,64.278,60.732-28.777,60.732-64.278S1278.179,756.826,1244.636,756.826Zm0,0c-33.543,0-60.732,28.777-60.732,64.279s27.189,64.278,60.732,64.278,60.732-28.777,60.732-64.278S1278.179,756.826,1244.636,756.826Zm0,0c-33.543,0-60.732,28.777-60.732,64.279s27.189,64.278,60.732,64.278,60.732-28.777,60.732-64.278S1278.179,756.826,1244.636,756.826Zm0,0c-33.543,0-60.732,28.777-60.732,64.279s27.189,64.278,60.732,64.278,60.732-28.777,60.732-64.278S1278.179,756.826,1244.636,756.826Zm0,0c-33.543,0-60.732,28.777-60.732,64.279s27.189,64.278,60.732,64.278,60.732-28.777,60.732-64.278S1278.179,756.826,1244.636,756.826Zm0,0c-33.543,0-60.732,28.777-60.732,64.279s27.189,64.278,60.732,64.278,60.732-28.777,60.732-64.278S1278.179,756.826,1244.636,756.826Zm0,0c-33.543,0-60.732,28.777-60.732,64.279s27.189,64.278,60.732,64.278,60.732-28.777,60.732-64.278S1278.179,756.826,1244.636,756.826Zm0,0c-33.543,0-60.732,28.777-60.732,64.279s27.189,64.278,60.732,64.278,60.732-28.777,60.732-64.278S1278.179,756.826,1244.636,756.826Zm0,0c-33.543,0-60.732,28.777-60.732,64.279s27.189,64.278,60.732,64.278,60.732-28.777,60.732-64.278S1278.179,756.826,1244.636,756.826Zm0,0c-33.543,0-60.732,28.777-60.732,64.279s27.189,64.278,60.732,64.278,60.732-28.777,60.732-64.278S1278.179,756.826,1244.636,756.826Zm0,0c-33.543,0-60.732,28.777-60.732,64.279s27.189,64.278,60.732,64.278,60.732-28.777,60.732-64.278S1278.179,756.826,1244.636,756.826Zm0,0c-33.543,0-60.732,28.777-60.732,64.279s27.189,64.278,60.732,64.278,60.732-28.777,60.732-64.278S1278.179,756.826,1244.636,756.826Zm0,0c-33.543,0-60.732,28.777-60.732,64.279s27.189,64.278,60.732,64.278,60.732-28.777,60.732-64.278S1278.179,756.826,1244.636,756.826Zm0,0c-33.543,0-60.732,28.777-60.732,64.279s27.189,64.278,60.732,64.278,60.732-28.777,60.732-64.278S1278.179,756.826,1244.636,756.826Zm0,0c-33.543,0-60.732,28.777-60.732,64.279s27.189,64.278,60.732,64.278,60.732-28.777,60.732-64.278S1278.179,756.826,1244.636,756.826Zm0,0c-33.543,0-60.732,28.777-60.732,64.279s27.189,64.278,60.732,64.278,60.732-28.777,60.732-64.278S1278.179,756.826,1244.636,756.826Zm0,0c-33.543,0-60.732,28.777-60.732,64.279s27.189,64.278,60.732,64.278,60.732-28.777,60.732-64.278S1278.179,756.826,1244.636,756.826Zm0,0c-33.543,0-60.732,28.777-60.732,64.279s27.189,64.278,60.732,64.278,60.732-28.777,60.732-64.278S1278.179,756.826,1244.636,756.826Zm0,0c-33.543,0-60.732,28.777-60.732,64.279s27.189,64.278,60.732,64.278,60.732-28.777,60.732-64.278S1278.179,756.826,1244.636,756.826Zm0,0c-33.543,0-60.732,28.777-60.732,64.279s27.189,64.278,60.732,64.278,60.732-28.777,60.732-64.278S1278.179,756.826,1244.636,756.826Zm0,0c-33.543,0-60.732,28.777-60.732,64.279s27.189,64.278,60.732,64.278,60.732-28.777,60.732-64.278S1278.179,756.826,1244.636,756.826Zm0,0c-33.543,0-60.732,28.777-60.732,64.279s27.189,64.278,60.732,64.278,60.732-28.777,60.732-64.278S1278.179,756.826,1244.636,756.826Zm0,0c-33.543,0-60.732,28.777-60.732,64.279s27.189,64.278,60.732,64.278,60.732-28.777,60.732-64.278S1278.179,756.826,1244.636,756.826Z"/>
      <path d="M999.309,1196.059q-8.683,13.737-17.548,27.347,11.77,2.85,23.76,5.422C1003.363,1217.642,1000.963,1204.065,999.309,1196.059ZM786.6,491.557c-5.3,2.519-10.608,5.081-15.893,7.728-.061,4.995-.1,10.162-.162,16.736,5.77-2.39,8.694-3.629,14.483-5.977,5.788-2.327,8.733-3.5,14.582-5.764C794.483,499.2,790.509,495.314,786.6,491.557ZM1941.71,681.126q-13.193-11.3-26.2-22.031c-1.393,9.756-2.663,17.869-4.66,30.144a130.727,130.727,0,0,0-.14,40.048c-17.771-14.26-36.286-27.88-55.125-40.539a18.787,18.787,0,0,0,15.732-16.2c2.38-17.974,3.53-27.624,5.346-44.681q-10.076-7.877-20.069-15.391c-6.414,10.161-9.843,15.562-16.4,26.044a46.959,46.959,0,0,0-5.608,36.185q-29.952-18.669-60.248-36.591a48.7,48.7,0,0,0,29.61-22.223q8.532-14.7,17.144-29.353-27.078-19.149-53.914-36.035c-1.251,2.39-2.582,4.974-4.054,7.834-15.329-7.813-23.1-11.57-38.707-18.786-4.477,9.457-6.7,14.218-11.113,23.718,13.594,6.3,20.351,9.542,33.7,16.288a57.365,57.365,0,0,0,39.13,4.718c-10.126,18.444-15.147,27.667-25.072,46.218-38.04-19.427-76.464-37.487-115.573-54.373A48.964,48.964,0,0,0,1672.2,550.2q9.2-21.776,18.536-43.529c-24.083-12.4-48.287-23.589-72.794-33.58q-8.834,25.137-17.568,50.3a47.337,47.337,0,0,0,2.925,36.8c-22.469-7.536-44.959-14.688-67.63-21.5a47.364,47.364,0,0,0,24.123-28.264q8.109-26.578,16.378-53.157-36.274-12.681-73.821-22.138a55.507,55.507,0,0,1-26.686,14.624c4.923,17.484,7.323,26.279,11.619,43.742a130.389,130.389,0,0,0,15.611,36.718c-22.307-5.444-44.535-10.29-67.065-14.645a19.013,19.013,0,0,0,8.189-21.241c-5.245-18.572-8.088-27.944-14-46.5-9.358-1.622-14.058-2.348-23.458-3.778-1.976,12.681-2.964,19.021-4.9,31.7a46.765,46.765,0,0,0,9.178,35.458c-23.4-3.437-46.755-6.489-70.252-9.179,10.246-8.219,17.063-19.726,18.515-32.364q3.389-29.235,6.818-58.514-33.7-3.587-69.143-5.3l-4.275-.192q12.282,30.87,23.376,62.1a107.564,107.564,0,0,0,6.858,15.264,102.124,102.124,0,0,0,12.4,17.74q-6.261-.607-12.585-1.153c-18.032-1.537-36.165-2.583-54.2-3.074.564-.192.827-.3,1.372-.469,6.151-2.156,7.947-12.489,3.811-23.291-1.311-3.48-1.976-5.294-3.328-8.817-11.255-.384-17.527-.533-27.612-.619-1.734-.021-2.6-.021-4.317-.021-12.767-.128-19.161-.085-31.908.192-1.432,3.5-2.1,5.294-3.49,8.731-4.3,10.717-2.6,21.327,3.49,23.355.544.213.827.277,1.372.491-22.248.213-44.657,1.323-66.824,3.266a102.925,102.925,0,0,0,19.706-32.747q11.558-31.19,24.346-62.016c-62.81,1.58-120.86,6.938-175.7,16.587a43.112,43.112,0,0,0,2.944,18.04c.463.917.645,1.494,1.109,2.326,12.808,22.778,44.859,33.431,69.1,24.4,12.506-4.654,22.671-9.628,24.89-26.365,10.992,15.926,16.318,23.931,26.664,40.092.707.811-.564,1.878-3.287,4.824-12.828,10.141-17.528,12.895-34.31,18.509-44.131,14.772-102.382,2.135-125.839-43.507-.464-.9-.686-1.366-1.151-2.263a68.058,68.058,0,0,1-7.482-26.472,853.269,853.269,0,0,0-133.948,42.5q23.052,23.441,45.1,47.734A105.775,105.775,0,0,0,903.5,544.244c-21.259,6.255-42.437,13.428-63.192,21.348.444-.364.686-.577,1.11-.939,4.921-4.121,2.561-14.581-5.406-22.971-2.562-2.712-3.873-4.142-6.475-6.874-5.95,2.22-10.408,3.906-14.844,5.636-4.418,1.729-8.875,3.479-14.745,5.849-11.759,4.739-17.649,7.215-29.287,12.3.041,3.757.1,5.7.141,9.414.121,11.549,5.668,20.622,12.1,20.238.565-.022.868-.065,1.432-.043-20.351,8.6-40.541,18.146-60.166,28.457a102.9,102.9,0,0,0,5.647-37.765q-1.149-28.5-1.553-57.127A1112.633,1112.633,0,0,0,632.558,582.5a57.723,57.723,0,0,1,8.21,4.035c8.754,5.209,15.591,14.154,17.649,23.269,6.03,26.77-11.4,52.858-32.151,66.456-18.759,12.275-44.152,16.353-65.23,9.564A45.811,45.811,0,0,0,540,683.9c12.788-15.5,26.221-30.613,40.078-45.045A11.379,11.379,0,0,0,593.49,649.98a45.426,45.426,0,0,0,9.8-3.5,24.652,24.652,0,0,0,2.9-1.6c8.895-5.871,14.179-15.136,12.626-20.174a10.193,10.193,0,0,0-4.659-4.889c-6.838-4.056-16.984-3.672-34.048,2.477-.745.277-1.492.534-2.238.789h-.02C507.928,677.54,435.4,743.419,355.787,822.172c36.85,35.181,72.874,68.954,108.7,101,1.149-4.59,2.3-9.2,3.449-13.791a102.444,102.444,0,0,0,2.561-37.1c15.612,14.281,31.707,28.157,48.085,41.436a18.125,18.125,0,0,0-15.954,14.431q-2.722,11.976-5.305,23.974,19.273,16.715,38.545,32.683,10.891-6.948,21.723-14.025c6.555-4.227,9.48-12.531,7.825-20.729C582.094,962.385,599.2,974.3,616.5,985.59a90.454,90.454,0,0,0-32.332,14.3q-7.988,5.6-16.015,11.08,18.7,14.826,37.557,28.9,4.871-8.71,9.742-17.4a47.8,47.8,0,0,0,4.3-34.776c17.83,11.7,36.083,22.906,54.519,33.43a43.133,43.133,0,0,0-26,21.455l-10.65,20.43q10.5,7.4,21.1,14.559c.827-8.218,3.772-15.605,8.694-21.219,16.014-18.317,44.252-17.377,64.725-7.536,16.519,7.941,33.6,28.435,36.991,47.947A45.806,45.806,0,0,0,777.056,1115c-20.613-3.608-30.94-5.678-51.635-10.353a10.971,10.971,0,0,0,2.138-16.075,25.548,25.548,0,0,0-7.241-6.49c-.666-.32-1.432-.982-2.3-1.43-8.471-4.249-18.012-3.566-20.977.149-2.057,2.583-2,7.258.04,12.3,1.917,4.718,6.7,9.842,13.394,15.563,2.279,1.922,4.557,3.928,6.757,6.042.019,0,.039.021.06.042q29.256,17.357,59.561,32.812c4.095-11.016,7.444-20.046,12.606-33.965a47.26,47.26,0,0,0-.806-34.946c19.04,8.326,38.4,16.1,57.867,23.226a44.83,44.83,0,0,0-22.247,25.682c-5.1,15.157-8.289,24.55-12.465,36.91q29.469,13.546,60.167,25.148c4.134-14.559,6.938-24.486,11.759-41.436a46.705,46.705,0,0,0-3.529-34.477c19.523,6.575,39.311,12.553,59.158,17.911a45.465,45.465,0,0,0-20.11,27.56c-4.457,17.7-7.019,27.752-10.932,43.315q17.429,5.764,35.318,10.887,17.427-24.56,34.248-49.676a21.032,21.032,0,0,0,.1-22.544c17.932,4.206,26.907,6.127,44.939,9.564,6.374,21.754,3.731,12.275,7.6,26.194,4.578,20.43,9.6,40.027,14.886,59.582q25.2,4.323,51.433,7.451,2.449-24.273,4.922-48.545a47.705,47.705,0,0,0-9.319-33.41c20.17,2.6,40.521,4.59,60.792,5.956a46.51,46.51,0,0,0-14.885,30.805q-1.755,24.53-3.55,49.037,44.2,3.714,91.511,4.055,40.813-.288,78.865-2.86-1.362-24.369-2.744-48.737a46.767,46.767,0,0,0-14.623-31.3c13.655-.725,21.642-1.238,33.4-2.241,6.313-.619,26.4-2.476,32.7-3.2,36.79-5.529,76.464,22.223,83.141,61.61.423,2.69.726,4.7,1.068,6.7,6.777-1.323,13.515-2.733,20.17-4.206q-4.084-23.408-8.168-46.794a45.29,45.29,0,0,0-17.67-28.756c36.287-7.151,72.027-15.648,107.709-25.617,5,19.4,7.5,29.118,12.505,48.524a45.683,45.683,0,0,0-33.886-4.27c-12.546,3.288-18.839,4.846-31.445,7.749,1.916,9.372,2.864,14.047,4.78,23.419,14.462-3.352,21.683-5.145,36.044-8.945,1.413,5.978,2.521,10.717,3.57,15.221,20.09-6.276,39.654-13.193,58.836-20.75-12.787-8.005-20.654-20.708-21.017-33.943-.686-24.87,19.666-45.151,40.683-53.242,16.963-6.532,42.518-4.419,57.646,7.024a40.019,40.019,0,0,0,17.628,7.194c-17.145,12.7-25.879,18.871-43.607,30.826,1.432-6.4-2.764-12.659-9-13.107a23.668,23.668,0,0,0-9.358.683c-.685.256-1.655.363-2.562.683-8.774,3.2-15.067,10.759-14.724,15.605.242,3.373,3.308,6.682,8.048,8.8,4.417,1.963,11.113,2.113,19.605,1.259a121.364,121.364,0,0,1,21.582-.512.027.027,0,0,0,.04,0q23.9-11.721,47.178-24.849-5.628-14.378-11.235-28.734a44.232,44.232,0,0,0-23.437-24.465c19.2-8.176,38.262-16.972,56.98-26.322a48.239,48.239,0,0,0,.746,34.947q5.265,12.392,10.55,24.806,6.686-4.131,13.351-8.326c-5.647-36.313,13.534-74.142,44.153-92.116a78.415,78.415,0,0,1,40.863-10.888,33.14,33.14,0,0,0,18.78-5.422c-4.619,18.082-7.4,28.436-12.083,44.3q22.842-17.356,45.787-36.014c-1.635-2.711-3.288-5.4-4.923-8.113a41.951,41.951,0,0,0-27.41-19.447c18.576-12.766,36.79-25.789,54.9-39.259-1.229,6.511,1.916,12.659,7.563,14.837q11.136,4.131,22.329,8.027,15.734-13.546,31.667-27.668c-.626-.853-1.27-1.728-1.9-2.583a41.206,41.206,0,0,0-29.286-16.5c16.841-13.6,33.381-27.817,49.436-42.461a42.874,42.874,0,0,0,8.391,31.317l2.964,3.779c29.993-27.069,60.772-55.526,92.721-85.328C2040.462,769.571,1990.219,722.691,1941.71,681.126ZM897.269,522.554c-3.651-11.87,3.832-24.678,16.862-28.329,13.03-3.672,26.242,3.331,29.388,15.328,3.167,12-4.518,24.337-17.044,27.838C913.95,540.913,900.94,534.4,897.269,522.554ZM681.612,588.2c11.86-6.4,26.181-2.434,31.808,8.6,5.628,11.015.767,24.742-10.65,30.89-11.416,6.17-25.414,2.626-31.485-8.154C665.234,608.757,669.753,594.6,681.612,588.2ZM1953.227,836.027C1822.808,936.7,1721.676,1003.01,1610.6,1043.977c-105.751,39-220.539,55.013-378.227,55.889-154.3-.854-267.515-16.225-371.39-53.413C747.184,1005.7,644.6,938.8,511.5,836.027a7.767,7.767,0,0,1,.02-12.126c135.26-104.413,239.014-171.872,355.031-212.39,102.363-35.779,214.285-50.594,365.823-51.449,32.191.171,62.587,1,91.491,2.5,107.183,5.593,193.732,20.772,274.351,48.951,94.678,33.089,181.167,84.068,283.267,158.423,23.034,16.779,46.856,34.733,71.745,53.967A7.756,7.756,0,0,1,1953.227,836.027Zm-707.36-431.74q-7.11-.1-14.3-.128c-2.743,6.063-5.284,11.869-8.794,19.96,6.313-.043,9.5-.064,15.773,0,6.313.064,9.479.086,15.793.213C1250.95,416.22,1248.488,410.371,1245.867,404.287Zm564.778,641.846a50.508,50.508,0,0,0-23.881,35.053q24.567-16.875,48.953-35.309C1829.121,1039.259,1819.117,1041.138,1810.645,1046.133Zm-411.124,185.086c-3.307-21.22-22.65-33.815-42.013-31.744-2.1.235-11.719,1.131-18.355,1.751q1.875,22.318,3.791,44.595,29.529-2.946,57.525-7.343C1400.186,1236.279,1399.905,1234.144,1399.521,1231.219Z"/>
    </g>
    <path d="M1401.256,1244.5c-.3-2.391-.545-4.227-.787-6.02-.283-2.2-.564-4.334-.948-7.259-3.307-21.22-22.65-33.815-42.013-31.744-2.1.235-11.719,1.131-18.355,1.751q1.875,22.318,3.791,44.595,1.816,21.231,3.611,42.483c5.042-.556,16.781-1.794,19.585-2.114C1386.007,1283.949,1403.575,1266.892,1401.256,1244.5Zm0,0c-.3-2.391-.545-4.227-.787-6.02-.283-2.2-.564-4.334-.948-7.259-3.307-21.22-22.65-33.815-42.013-31.744-2.1.235-11.719,1.131-18.355,1.751q1.875,22.318,3.791,44.595,1.816,21.231,3.611,42.483c5.042-.556,16.781-1.794,19.585-2.114C1386.007,1283.949,1403.575,1266.892,1401.256,1244.5Zm0,0c-.3-2.391-.545-4.227-.787-6.02-.283-2.2-.564-4.334-.948-7.259-3.307-21.22-22.65-33.815-42.013-31.744-2.1.235-11.719,1.131-18.355,1.751q1.875,22.318,3.791,44.595,1.816,21.231,3.611,42.483c5.042-.556,16.781-1.794,19.585-2.114C1386.007,1283.949,1403.575,1266.892,1401.256,1244.5Zm0,0c-.3-2.391-.545-4.227-.787-6.02-.283-2.2-.564-4.334-.948-7.259-3.307-21.22-22.65-33.815-42.013-31.744-2.1.235-11.719,1.131-18.355,1.751q1.875,22.318,3.791,44.595,1.816,21.231,3.611,42.483c5.042-.556,16.781-1.794,19.585-2.114C1386.007,1283.949,1403.575,1266.892,1401.256,1244.5Zm0,0c-.3-2.391-.545-4.227-.787-6.02-.283-2.2-.564-4.334-.948-7.259-3.307-21.22-22.65-33.815-42.013-31.744-2.1.235-11.719,1.131-18.355,1.751q1.875,22.318,3.791,44.595,1.816,21.231,3.611,42.483c5.042-.556,16.781-1.794,19.585-2.114C1386.007,1283.949,1403.575,1266.892,1401.256,1244.5Zm0,0c-.3-2.391-.545-4.227-.787-6.02-.283-2.2-.564-4.334-.948-7.259-3.307-21.22-22.65-33.815-42.013-31.744-2.1.235-11.719,1.131-18.355,1.751q1.875,22.318,3.791,44.595,1.816,21.231,3.611,42.483c5.042-.556,16.781-1.794,19.585-2.114C1386.007,1283.949,1403.575,1266.892,1401.256,1244.5Zm0,0c-.3-2.391-.545-4.227-.787-6.02-.283-2.2-.564-4.334-.948-7.259-3.307-21.22-22.65-33.815-42.013-31.744-2.1.235-11.719,1.131-18.355,1.751q1.875,22.318,3.791,44.595,1.816,21.231,3.611,42.483c5.042-.556,16.781-1.794,19.585-2.114C1386.007,1283.949,1403.575,1266.892,1401.256,1244.5Zm0,0c-.3-2.391-.545-4.227-.787-6.02-.283-2.2-.564-4.334-.948-7.259-3.307-21.22-22.65-33.815-42.013-31.744-2.1.235-11.719,1.131-18.355,1.751q1.875,22.318,3.791,44.595,1.816,21.231,3.611,42.483c5.042-.556,16.781-1.794,19.585-2.114C1386.007,1283.949,1403.575,1266.892,1401.256,1244.5Zm0,0c-.3-2.391-.545-4.227-.787-6.02-.283-2.2-.564-4.334-.948-7.259-3.307-21.22-22.65-33.815-42.013-31.744-2.1.235-11.719,1.131-18.355,1.751q1.875,22.318,3.791,44.595,1.816,21.231,3.611,42.483c5.042-.556,16.781-1.794,19.585-2.114C1386.007,1283.949,1403.575,1266.892,1401.256,1244.5ZM1971.3,933.949q-15.945,14.123-31.667,27.668c22.329,7.813,44.859,14.965,67.609,21.262Q1989.241,958.414,1971.3,933.949ZM1401.256,1244.5c-.3-2.391-.545-4.227-.787-6.02-.283-2.2-.564-4.334-.948-7.259-3.307-21.22-22.65-33.815-42.013-31.744-2.1.235-11.719,1.131-18.355,1.751q1.875,22.318,3.791,44.595,1.816,21.231,3.611,42.483c5.042-.556,16.781-1.794,19.585-2.114C1386.007,1283.949,1403.575,1266.892,1401.256,1244.5Zm-395.735-15.67c-2.158-11.186-4.558-24.763-6.212-32.769q-8.683,13.737-17.548,27.347-3.42,5.251-6.878,10.5c9.883,2.22,26,6.063,33.2,7.429C1007.336,1238.029,1006.449,1233.653,1005.521,1228.828Zm395.735,15.67c-.3-2.391-.545-4.227-.787-6.02-.283-2.2-.564-4.334-.948-7.259-3.307-21.22-22.65-33.815-42.013-31.744-2.1.235-11.719,1.131-18.355,1.751q1.875,22.318,3.791,44.595,1.816,21.231,3.611,42.483c5.042-.556,16.781-1.794,19.585-2.114C1386.007,1283.949,1403.575,1266.892,1401.256,1244.5ZM1971.3,933.949q-15.945,14.123-31.667,27.668c22.329,7.813,44.859,14.965,67.609,21.262Q1989.241,958.414,1971.3,933.949ZM1401.256,1244.5c-.3-2.391-.545-4.227-.787-6.02-.283-2.2-.564-4.334-.948-7.259-3.307-21.22-22.65-33.815-42.013-31.744-2.1.235-11.719,1.131-18.355,1.751q1.875,22.318,3.791,44.595,1.816,21.231,3.611,42.483c5.042-.556,16.781-1.794,19.585-2.114C1386.007,1283.949,1403.575,1266.892,1401.256,1244.5Zm-395.735-15.67c-2.158-11.186-4.558-24.763-6.212-32.769q-8.683,13.737-17.548,27.347-3.42,5.251-6.878,10.5c9.883,2.22,26,6.063,33.2,7.429C1007.336,1238.029,1006.449,1233.653,1005.521,1228.828Zm0,0c-2.158-11.186-4.558-24.763-6.212-32.769q-8.683,13.737-17.548,27.347-3.42,5.251-6.878,10.5c9.883,2.22,26,6.063,33.2,7.429C1007.336,1238.029,1006.449,1233.653,1005.521,1228.828Zm395.735,15.67c-.3-2.391-.545-4.227-.787-6.02-.283-2.2-.564-4.334-.948-7.259-3.307-21.22-22.65-33.815-42.013-31.744-2.1.235-11.719,1.131-18.355,1.751q1.875,22.318,3.791,44.595,1.816,21.231,3.611,42.483c5.042-.556,16.781-1.794,19.585-2.114C1386.007,1283.949,1403.575,1266.892,1401.256,1244.5ZM1971.3,933.949q-15.945,14.123-31.667,27.668c22.329,7.813,44.859,14.965,67.609,21.262Q1989.241,958.414,1971.3,933.949ZM1401.256,1244.5c-.3-2.391-.545-4.227-.787-6.02-.283-2.2-.564-4.334-.948-7.259-3.307-21.22-22.65-33.815-42.013-31.744-2.1.235-11.719,1.131-18.355,1.751q1.875,22.318,3.791,44.595,1.816,21.231,3.611,42.483c5.042-.556,16.781-1.794,19.585-2.114C1386.007,1283.949,1403.575,1266.892,1401.256,1244.5Zm-395.735-15.67c-2.158-11.186-4.558-24.763-6.212-32.769q-8.683,13.737-17.548,27.347-3.42,5.251-6.878,10.5c9.883,2.22,26,6.063,33.2,7.429C1007.336,1238.029,1006.449,1233.653,1005.521,1228.828Zm0,0c-2.158-11.186-4.558-24.763-6.212-32.769q-8.683,13.737-17.548,27.347-3.42,5.251-6.878,10.5c9.883,2.22,26,6.063,33.2,7.429C1007.336,1238.029,1006.449,1233.653,1005.521,1228.828Zm395.735,15.67c-.3-2.391-.545-4.227-.787-6.02-.283-2.2-.564-4.334-.948-7.259-3.307-21.22-22.65-33.815-42.013-31.744-2.1.235-11.719,1.131-18.355,1.751q1.875,22.318,3.791,44.595,1.816,21.231,3.611,42.483c5.042-.556,16.781-1.794,19.585-2.114C1386.007,1283.949,1403.575,1266.892,1401.256,1244.5ZM1971.3,933.949q-15.945,14.123-31.667,27.668c22.329,7.813,44.859,14.965,67.609,21.262Q1989.241,958.414,1971.3,933.949ZM1401.256,1244.5c-.3-2.391-.545-4.227-.787-6.02-.283-2.2-.564-4.334-.948-7.259-3.307-21.22-22.65-33.815-42.013-31.744-2.1.235-11.719,1.131-18.355,1.751q1.875,22.318,3.791,44.595,1.816,21.231,3.611,42.483c5.042-.556,16.781-1.794,19.585-2.114C1386.007,1283.949,1403.575,1266.892,1401.256,1244.5Zm-395.735-15.67c-2.158-11.186-4.558-24.763-6.212-32.769q-8.683,13.737-17.548,27.347-3.42,5.251-6.878,10.5c9.883,2.22,26,6.063,33.2,7.429C1007.336,1238.029,1006.449,1233.653,1005.521,1228.828Zm0,0c-2.158-11.186-4.558-24.763-6.212-32.769q-8.683,13.737-17.548,27.347-3.42,5.251-6.878,10.5c9.883,2.22,26,6.063,33.2,7.429C1007.336,1238.029,1006.449,1233.653,1005.521,1228.828Zm395.735,15.67c-.3-2.391-.545-4.227-.787-6.02-.283-2.2-.564-4.334-.948-7.259-3.307-21.22-22.65-33.815-42.013-31.744-2.1.235-11.719,1.131-18.355,1.751q1.875,22.318,3.791,44.595,1.816,21.231,3.611,42.483c5.042-.556,16.781-1.794,19.585-2.114C1386.007,1283.949,1403.575,1266.892,1401.256,1244.5ZM1971.3,933.949q-15.945,14.123-31.667,27.668c22.329,7.813,44.859,14.965,67.609,21.262Q1989.241,958.414,1971.3,933.949ZM1401.256,1244.5c-.3-2.391-.545-4.227-.787-6.02-.283-2.2-.564-4.334-.948-7.259-3.307-21.22-22.65-33.815-42.013-31.744-2.1.235-11.719,1.131-18.355,1.751q1.875,22.318,3.791,44.595,1.816,21.231,3.611,42.483c5.042-.556,16.781-1.794,19.585-2.114C1386.007,1283.949,1403.575,1266.892,1401.256,1244.5Zm-395.735-15.67c-2.158-11.186-4.558-24.763-6.212-32.769q-8.683,13.737-17.548,27.347-3.42,5.251-6.878,10.5c9.883,2.22,26,6.063,33.2,7.429C1007.336,1238.029,1006.449,1233.653,1005.521,1228.828Zm0,0c-2.158-11.186-4.558-24.763-6.212-32.769q-8.683,13.737-17.548,27.347-3.42,5.251-6.878,10.5c9.883,2.22,26,6.063,33.2,7.429C1007.336,1238.029,1006.449,1233.653,1005.521,1228.828Zm395.735,15.67c-.3-2.391-.545-4.227-.787-6.02-.283-2.2-.564-4.334-.948-7.259-3.307-21.22-22.65-33.815-42.013-31.744-2.1.235-11.719,1.131-18.355,1.751q1.875,22.318,3.791,44.595,1.816,21.231,3.611,42.483c5.042-.556,16.781-1.794,19.585-2.114C1386.007,1283.949,1403.575,1266.892,1401.256,1244.5ZM1971.3,933.949q-15.945,14.123-31.667,27.668c22.329,7.813,44.859,14.965,67.609,21.262Q1989.241,958.414,1971.3,933.949ZM1401.256,1244.5c-.3-2.391-.545-4.227-.787-6.02-.283-2.2-.564-4.334-.948-7.259-3.307-21.22-22.65-33.815-42.013-31.744-2.1.235-11.719,1.131-18.355,1.751q1.875,22.318,3.791,44.595,1.816,21.231,3.611,42.483c5.042-.556,16.781-1.794,19.585-2.114C1386.007,1283.949,1403.575,1266.892,1401.256,1244.5Zm-395.735-15.67c-2.158-11.186-4.558-24.763-6.212-32.769q-8.683,13.737-17.548,27.347-3.42,5.251-6.878,10.5c9.883,2.22,26,6.063,33.2,7.429C1007.336,1238.029,1006.449,1233.653,1005.521,1228.828ZM786.6,491.557c-4.619-4.44-9.136-8.731-15.389-14.559-.242,9.051-.383,15.456-.5,22.287-.061,4.995-.1,10.162-.162,16.736,5.77-2.39,8.694-3.629,14.483-5.977,5.788-2.327,8.733-3.5,14.582-5.764C794.483,499.2,790.509,495.314,786.6,491.557Zm218.925,737.271c-2.158-11.186-4.558-24.763-6.212-32.769q-8.683,13.737-17.548,27.347-3.42,5.251-6.878,10.5c9.883,2.22,26,6.063,33.2,7.429C1007.336,1238.029,1006.449,1233.653,1005.521,1228.828Zm395.735,15.67c-.3-2.391-.545-4.227-.787-6.02-.283-2.2-.564-4.334-.948-7.259-3.307-21.22-22.65-33.815-42.013-31.744-2.1.235-11.719,1.131-18.355,1.751q1.875,22.318,3.791,44.595,1.816,21.231,3.611,42.483c5.042-.556,16.781-1.794,19.585-2.114C1386.007,1283.949,1403.575,1266.892,1401.256,1244.5ZM1971.3,933.949q-15.945,14.123-31.667,27.668c22.329,7.813,44.859,14.965,67.609,21.262Q1989.241,958.414,1971.3,933.949ZM1401.256,1244.5c-.3-2.391-.545-4.227-.787-6.02-.283-2.2-.564-4.334-.948-7.259-3.307-21.22-22.65-33.815-42.013-31.744-2.1.235-11.719,1.131-18.355,1.751q1.875,22.318,3.791,44.595,1.816,21.231,3.611,42.483c5.042-.556,16.781-1.794,19.585-2.114C1386.007,1283.949,1403.575,1266.892,1401.256,1244.5Zm-395.735-15.67c-2.158-11.186-4.558-24.763-6.212-32.769q-8.683,13.737-17.548,27.347-3.42,5.251-6.878,10.5c9.883,2.22,26,6.063,33.2,7.429C1007.336,1238.029,1006.449,1233.653,1005.521,1228.828ZM786.6,491.557c-4.619-4.44-9.136-8.731-15.389-14.559-.242,9.051-.383,15.456-.5,22.287-.061,4.995-.1,10.162-.162,16.736,5.77-2.39,8.694-3.629,14.483-5.977,5.788-2.327,8.733-3.5,14.582-5.764C794.483,499.2,790.509,495.314,786.6,491.557Zm0,0c-4.619-4.44-9.136-8.731-15.389-14.559-.242,9.051-.383,15.456-.5,22.287-.061,4.995-.1,10.162-.162,16.736,5.77-2.39,8.694-3.629,14.483-5.977,5.788-2.327,8.733-3.5,14.582-5.764C794.483,499.2,790.509,495.314,786.6,491.557Zm218.925,737.271c-2.158-11.186-4.558-24.763-6.212-32.769q-8.683,13.737-17.548,27.347-3.42,5.251-6.878,10.5c9.883,2.22,26,6.063,33.2,7.429C1007.336,1238.029,1006.449,1233.653,1005.521,1228.828Zm395.735,15.67c-.3-2.391-.545-4.227-.787-6.02-.283-2.2-.564-4.334-.948-7.259-3.307-21.22-22.65-33.815-42.013-31.744-2.1.235-11.719,1.131-18.355,1.751q1.875,22.318,3.791,44.595,1.816,21.231,3.611,42.483c5.042-.556,16.781-1.794,19.585-2.114C1386.007,1283.949,1403.575,1266.892,1401.256,1244.5ZM1971.3,933.949q-15.945,14.123-31.667,27.668c22.329,7.813,44.859,14.965,67.609,21.262Q1989.241,958.414,1971.3,933.949ZM1401.256,1244.5c-.3-2.391-.545-4.227-.787-6.02-.283-2.2-.564-4.334-.948-7.259-3.307-21.22-22.65-33.815-42.013-31.744-2.1.235-11.719,1.131-18.355,1.751q1.875,22.318,3.791,44.595,1.816,21.231,3.611,42.483c5.042-.556,16.781-1.794,19.585-2.114C1386.007,1283.949,1403.575,1266.892,1401.256,1244.5Zm-395.735-15.67c-2.158-11.186-4.558-24.763-6.212-32.769q-8.683,13.737-17.548,27.347-3.42,5.251-6.878,10.5c9.883,2.22,26,6.063,33.2,7.429C1007.336,1238.029,1006.449,1233.653,1005.521,1228.828ZM786.6,491.557c-4.619-4.44-9.136-8.731-15.389-14.559-.242,9.051-.383,15.456-.5,22.287-.061,4.995-.1,10.162-.162,16.736,5.77-2.39,8.694-3.629,14.483-5.977,5.788-2.327,8.733-3.5,14.582-5.764C794.483,499.2,790.509,495.314,786.6,491.557Zm0,0c-4.619-4.44-9.136-8.731-15.389-14.559-.242,9.051-.383,15.456-.5,22.287-.061,4.995-.1,10.162-.162,16.736,5.77-2.39,8.694-3.629,14.483-5.977,5.788-2.327,8.733-3.5,14.582-5.764C794.483,499.2,790.509,495.314,786.6,491.557Zm218.925,737.271c-2.158-11.186-4.558-24.763-6.212-32.769q-8.683,13.737-17.548,27.347-3.42,5.251-6.878,10.5c9.883,2.22,26,6.063,33.2,7.429C1007.336,1238.029,1006.449,1233.653,1005.521,1228.828Zm240.346-824.541c-2.058-4.761-4.236-9.692-7.04-15.968-2.9,6.233-5.143,11.122-7.261,15.84-2.743,6.063-5.284,11.869-8.794,19.96,6.313-.043,9.5-.064,15.773,0,6.313.064,9.479.086,15.793.213C1250.95,416.22,1248.488,410.371,1245.867,404.287ZM1401.256,1244.5c-.3-2.391-.545-4.227-.787-6.02-.283-2.2-.564-4.334-.948-7.259-3.307-21.22-22.65-33.815-42.013-31.744-2.1.235-11.719,1.131-18.355,1.751q1.875,22.318,3.791,44.595,1.816,21.231,3.611,42.483c5.042-.556,16.781-1.794,19.585-2.114C1386.007,1283.949,1403.575,1266.892,1401.256,1244.5Zm56.9-857.1c-16.6-3.052-24.93-4.461-41.631-7-1.553,9.883-2.339,14.815-3.893,24.7,16.338,2.434,24.548,3.8,40.764,6.789,7.746,1.43,14.382-1.644,15.208-5.658.666-3.181.989-4.824,1.634-7.962C1471,394.531,1466.082,388.852,1458.155,387.4ZM1971.3,933.949q-15.945,14.123-31.667,27.668c22.329,7.813,44.859,14.965,67.609,21.262Q1989.241,958.414,1971.3,933.949ZM1401.256,1244.5c-.3-2.391-.545-4.227-.787-6.02-.283-2.2-.564-4.334-.948-7.259-3.307-21.22-22.65-33.815-42.013-31.744-2.1.235-11.719,1.131-18.355,1.751q1.875,22.318,3.791,44.595,1.816,21.231,3.611,42.483c5.042-.556,16.781-1.794,19.585-2.114C1386.007,1283.949,1403.575,1266.892,1401.256,1244.5Zm-395.735-15.67c-2.158-11.186-4.558-24.763-6.212-32.769q-8.683,13.737-17.548,27.347-3.42,5.251-6.878,10.5c9.883,2.22,26,6.063,33.2,7.429C1007.336,1238.029,1006.449,1233.653,1005.521,1228.828ZM786.6,491.557c-4.619-4.44-9.136-8.731-15.389-14.559-.242,9.051-.383,15.456-.5,22.287-.061,4.995-.1,10.162-.162,16.736,5.77-2.39,8.694-3.629,14.483-5.977,5.788-2.327,8.733-3.5,14.582-5.764C794.483,499.2,790.509,495.314,786.6,491.557Zm459.271-87.27c-2.058-4.761-4.236-9.692-7.04-15.968-2.9,6.233-5.143,11.122-7.261,15.84-2.743,6.063-5.284,11.869-8.794,19.96,6.313-.043,9.5-.064,15.773,0,6.313.064,9.479.086,15.793.213C1250.95,416.22,1248.488,410.371,1245.867,404.287ZM1458.155,387.4c-16.6-3.052-24.93-4.461-41.631-7-1.553,9.883-2.339,14.815-3.893,24.7,16.338,2.434,24.548,3.8,40.764,6.789,7.746,1.43,14.382-1.644,15.208-5.658.666-3.181.989-4.824,1.634-7.962C1471,394.531,1466.082,388.852,1458.155,387.4ZM786.6,491.557c-4.619-4.44-9.136-8.731-15.389-14.559-.242,9.051-.383,15.456-.5,22.287-.061,4.995-.1,10.162-.162,16.736,5.77-2.39,8.694-3.629,14.483-5.977,5.788-2.327,8.733-3.5,14.582-5.764C794.483,499.2,790.509,495.314,786.6,491.557Zm218.925,737.271c-2.158-11.186-4.558-24.763-6.212-32.769q-8.683,13.737-17.548,27.347-3.42,5.251-6.878,10.5c9.883,2.22,26,6.063,33.2,7.429C1007.336,1238.029,1006.449,1233.653,1005.521,1228.828Zm240.346-824.541c-2.058-4.761-4.236-9.692-7.04-15.968-2.9,6.233-5.143,11.122-7.261,15.84-2.743,6.063-5.284,11.869-8.794,19.96,6.313-.043,9.5-.064,15.773,0,6.313.064,9.479.086,15.793.213C1250.95,416.22,1248.488,410.371,1245.867,404.287ZM1401.256,1244.5c-.3-2.391-.545-4.227-.787-6.02-.283-2.2-.564-4.334-.948-7.259-3.307-21.22-22.65-33.815-42.013-31.744-2.1.235-11.719,1.131-18.355,1.751q1.875,22.318,3.791,44.595,1.816,21.231,3.611,42.483c5.042-.556,16.781-1.794,19.585-2.114C1386.007,1283.949,1403.575,1266.892,1401.256,1244.5Zm56.9-857.1c-16.6-3.052-24.93-4.461-41.631-7-1.553,9.883-2.339,14.815-3.893,24.7,16.338,2.434,24.548,3.8,40.764,6.789,7.746,1.43,14.382-1.644,15.208-5.658.666-3.181.989-4.824,1.634-7.962C1471,394.531,1466.082,388.852,1458.155,387.4ZM1971.3,933.949q-15.945,14.123-31.667,27.668c22.329,7.813,44.859,14.965,67.609,21.262Q1989.241,958.414,1971.3,933.949ZM1401.256,1244.5c-.3-2.391-.545-4.227-.787-6.02-.283-2.2-.564-4.334-.948-7.259-3.307-21.22-22.65-33.815-42.013-31.744-2.1.235-11.719,1.131-18.355,1.751q1.875,22.318,3.791,44.595,1.816,21.231,3.611,42.483c5.042-.556,16.781-1.794,19.585-2.114C1386.007,1283.949,1403.575,1266.892,1401.256,1244.5Zm-395.735-15.67c-2.158-11.186-4.558-24.763-6.212-32.769q-8.683,13.737-17.548,27.347-3.42,5.251-6.878,10.5c9.883,2.22,26,6.063,33.2,7.429C1007.336,1238.029,1006.449,1233.653,1005.521,1228.828ZM786.6,491.557c-4.619-4.44-9.136-8.731-15.389-14.559-.242,9.051-.383,15.456-.5,22.287-.061,4.995-.1,10.162-.162,16.736,5.77-2.39,8.694-3.629,14.483-5.977,5.788-2.327,8.733-3.5,14.582-5.764C794.483,499.2,790.509,495.314,786.6,491.557Zm459.271-87.27c-2.058-4.761-4.236-9.692-7.04-15.968-2.9,6.233-5.143,11.122-7.261,15.84-2.743,6.063-5.284,11.869-8.794,19.96,6.313-.043,9.5-.064,15.773,0,6.313.064,9.479.086,15.793.213C1250.95,416.22,1248.488,410.371,1245.867,404.287ZM1458.155,387.4c-16.6-3.052-24.93-4.461-41.631-7-1.553,9.883-2.339,14.815-3.893,24.7,16.338,2.434,24.548,3.8,40.764,6.789,7.746,1.43,14.382-1.644,15.208-5.658.666-3.181.989-4.824,1.634-7.962C1471,394.531,1466.082,388.852,1458.155,387.4ZM786.6,491.557c-4.619-4.44-9.136-8.731-15.389-14.559-.242,9.051-.383,15.456-.5,22.287-.061,4.995-.1,10.162-.162,16.736,5.77-2.39,8.694-3.629,14.483-5.977,5.788-2.327,8.733-3.5,14.582-5.764C794.483,499.2,790.509,495.314,786.6,491.557Zm218.925,737.271c-2.158-11.186-4.558-24.763-6.212-32.769q-8.683,13.737-17.548,27.347-3.42,5.251-6.878,10.5c9.883,2.22,26,6.063,33.2,7.429C1007.336,1238.029,1006.449,1233.653,1005.521,1228.828Zm240.346-824.541c-2.058-4.761-4.236-9.692-7.04-15.968-2.9,6.233-5.143,11.122-7.261,15.84-2.743,6.063-5.284,11.869-8.794,19.96,6.313-.043,9.5-.064,15.773,0,6.313.064,9.479.086,15.793.213C1250.95,416.22,1248.488,410.371,1245.867,404.287ZM1401.256,1244.5c-.3-2.391-.545-4.227-.787-6.02-.283-2.2-.564-4.334-.948-7.259-3.307-21.22-22.65-33.815-42.013-31.744-2.1.235-11.719,1.131-18.355,1.751q1.875,22.318,3.791,44.595,1.816,21.231,3.611,42.483c5.042-.556,16.781-1.794,19.585-2.114C1386.007,1283.949,1403.575,1266.892,1401.256,1244.5Zm56.9-857.1c-16.6-3.052-24.93-4.461-41.631-7-1.553,9.883-2.339,14.815-3.893,24.7,16.338,2.434,24.548,3.8,40.764,6.789,7.746,1.43,14.382-1.644,15.208-5.658.666-3.181.989-4.824,1.634-7.962C1471,394.531,1466.082,388.852,1458.155,387.4Zm468.71,193.028c-13.735-9.478-20.714-14.089-34.794-23.055-5.446,8.347-8.168,12.531-13.573,20.9,13.8,8.8,20.674,13.343,34.106,22.586,6.455,4.44,13.695,4.27,16.055.961,1.877-2.647,2.844-3.971,4.721-6.6C1935.6,592.127,1933.439,584.975,1926.865,580.428ZM1971.3,933.949q-15.945,14.123-31.667,27.668c22.329,7.813,44.859,14.965,67.609,21.262Q1989.241,958.414,1971.3,933.949ZM1401.256,1244.5c-.3-2.391-.545-4.227-.787-6.02-.283-2.2-.564-4.334-.948-7.259-3.307-21.22-22.65-33.815-42.013-31.744-2.1.235-11.719,1.131-18.355,1.751q1.875,22.318,3.791,44.595,1.816,21.231,3.611,42.483c5.042-.556,16.781-1.794,19.585-2.114C1386.007,1283.949,1403.575,1266.892,1401.256,1244.5Zm-395.735-15.67c-2.158-11.186-4.558-24.763-6.212-32.769q-8.683,13.737-17.548,27.347-3.42,5.251-6.878,10.5c9.883,2.22,26,6.063,33.2,7.429C1007.336,1238.029,1006.449,1233.653,1005.521,1228.828ZM786.6,491.557c-4.619-4.44-9.136-8.731-15.389-14.559-.242,9.051-.383,15.456-.5,22.287-.061,4.995-.1,10.162-.162,16.736,5.77-2.39,8.694-3.629,14.483-5.977,5.788-2.327,8.733-3.5,14.582-5.764C794.483,499.2,790.509,495.314,786.6,491.557Zm459.271-87.27c-2.058-4.761-4.236-9.692-7.04-15.968-2.9,6.233-5.143,11.122-7.261,15.84-2.743,6.063-5.284,11.869-8.794,19.96,6.313-.043,9.5-.064,15.773,0,6.313.064,9.479.086,15.793.213C1250.95,416.22,1248.488,410.371,1245.867,404.287ZM1458.155,387.4c-16.6-3.052-24.93-4.461-41.631-7-1.553,9.883-2.339,14.815-3.893,24.7,16.338,2.434,24.548,3.8,40.764,6.789,7.746,1.43,14.382-1.644,15.208-5.658.666-3.181.989-4.824,1.634-7.962C1471,394.531,1466.082,388.852,1458.155,387.4Zm468.71,193.028c-13.735-9.478-20.714-14.089-34.794-23.055-5.446,8.347-8.168,12.531-13.573,20.9,13.8,8.8,20.674,13.343,34.106,22.586,6.455,4.44,13.695,4.27,16.055.961,1.877-2.647,2.844-3.971,4.721-6.6C1935.6,592.127,1933.439,584.975,1926.865,580.428ZM2353,814.764c-66.945-66.029-130.319-125.034-191.555-177.508-277.78-237.9-511.973-341.545-837.577-357.492q-45.534-2.241-93.589-2.22c-460.964,0-724.041,143.885-1122.8,537.285a7.822,7.822,0,0,0,.08,11.079c336.354,320.752,621.92,549.068,1124.818,552.548,503.079-3.48,752.279-209.423,1120.481-552.548A7.812,7.812,0,0,0,2353,814.764ZM1858.549,491.087c15.813,8.966,23.719,13.642,39.089,23.163,3.167,1.942,4.741,2.924,7.867,4.889,17.911,11.229,27.107,17.014,44.151,29.054,22.591,15.968,36.751,47.5,20.412,73.992-1.975,2.562-2.984,3.885-4.961,6.447-10.67,13.812-29.066,19.17-47.542,15.84-.766,5.55-1.432,10.247-2.056,14.623-1.393,9.756-2.663,17.869-4.66,30.144a130.727,130.727,0,0,0-.14,40.048c-17.771-14.26-36.286-27.88-55.125-40.539a18.787,18.787,0,0,0,15.732-16.2c2.38-17.974,3.53-27.624,5.346-44.681.12-1.153.262-2.305.382-3.522-7.865-5.251-11.818-7.813-19.786-12.915-.222.362-.443.7-.665,1.046-6.414,10.161-9.843,15.562-16.4,26.044a46.959,46.959,0,0,0-5.608,36.185q-29.952-18.669-60.248-36.591a48.7,48.7,0,0,0,29.61-22.223q8.532-14.7,17.144-29.353,17-29.011,34.31-57.832C1861.958,517.793,1863.168,504.28,1858.549,491.087ZM511.519,823.9c135.26-104.413,239.014-171.872,355.031-212.39,102.363-35.779,214.285-50.594,365.823-51.449,32.191.171,62.587,1,91.491,2.5,107.183,5.593,193.732,20.772,274.351,48.951,94.678,33.089,181.167,84.068,283.267,158.423,23.034,16.779,46.856,34.733,71.745,53.967a7.756,7.756,0,0,1,0,12.126C1822.808,936.7,1721.676,1003.01,1610.6,1043.977c-105.751,39-220.539,55.013-378.227,55.889-154.3-.854-267.515-16.225-371.39-53.413C747.184,1005.7,644.6,938.8,511.5,836.027A7.767,7.767,0,0,1,511.519,823.9ZM681.612,588.2c11.86-6.4,26.181-2.434,31.808,8.6,5.628,11.015.767,24.742-10.65,30.89-11.416,6.17-25.414,2.626-31.485-8.154C665.234,608.757,669.753,594.6,681.612,588.2Zm232.519-93.974c13.03-3.672,26.242,3.331,29.388,15.328,3.167,12-4.518,24.337-17.044,27.838-12.525,3.522-25.535-2.989-29.206-14.837C893.618,510.684,901.1,497.876,914.131,494.225Zm929.048-11.677c-10.669,18.594-15.954,27.881-26.422,46.539-4.659-12.7-14.8-23.91-28.057-30.613-14.4-7.28-21.7-10.759-36.366-17.591-4.417,9.18-6.636,13.79-11.033,22.992,16.176,7.493,24.164,11.378,40.038,19.469-5.83,11.122-9.339,17.826-14.16,27.155-1.251,2.39-2.582,4.974-4.054,7.834-15.329-7.813-23.1-11.57-38.707-18.786-4.477,9.457-6.7,14.218-11.113,23.718,13.594,6.3,20.351,9.542,33.7,16.288a57.365,57.365,0,0,0,39.13,4.718c-10.126,18.444-15.147,27.667-25.072,46.218-38.04-19.427-76.464-37.487-115.573-54.373A48.964,48.964,0,0,0,1672.2,550.2q9.2-21.776,18.536-43.529,10.68-24.977,21.541-49.868a42.4,42.4,0,0,0-1.794-37.082Q1777.949,448.67,1843.179,482.548Zm-297.2-116.41c51.253,14.239,101.757,30.378,151.88,48.566-8.23,19.9-12.324,29.845-20.412,49.762-6.132-12.232-17.709-22.052-31.747-27-5.386-1.9-8.089-2.84-13.515-4.676q-7.14,20.142-14.24,40.305-8.834,25.137-17.568,50.3a47.337,47.337,0,0,0,2.925,36.8c-22.469-7.536-44.959-14.688-67.63-21.5a47.364,47.364,0,0,0,24.123-28.264q8.109-26.578,16.378-53.157,5.961-19.308,12-38.575c-5.507-1.623-8.249-2.412-13.757-3.993-14.32-4.1-29.932-2.967-42.3,3.416C1537.625,397.327,1540.408,386.909,1545.975,366.138Zm-142.3-27.432c3.731.512,5.587.79,9.3,1.3,21.158,2.989,32.877,4.014,52.785,8.646,22.932,5.358,57.423,28.371,49.476,59.305-.807,3.138-1.17,4.739-1.956,7.92a41.783,41.783,0,0,1-10.932,19.255,55.507,55.507,0,0,1-26.686,14.624c4.923,17.484,7.323,26.279,11.619,43.742a130.389,130.389,0,0,0,15.611,36.718c-22.307-5.444-44.535-10.29-67.065-14.645a19.013,19.013,0,0,0,8.189-21.241c-5.245-18.572-8.088-27.944-14-46.5-9.358-1.622-14.058-2.348-23.458-3.778-1.976,12.681-2.964,19.021-4.9,31.7a46.765,46.765,0,0,0,9.178,35.458c-23.4-3.437-46.755-6.489-70.252-9.179,10.246-8.219,17.063-19.726,18.515-32.364q3.389-29.235,6.818-58.514l4.962-42.141c1.492-12.595-3.086-25.447-12.889-35.63C1376.325,335.205,1385.5,336.272,1403.676,338.706ZM1202.3,326.623c7.4-.149,12.949-.235,18.476-.277,5.526-.022,11.114-.022,18.5.021,14.744.107,22.166.256,36.931.79-7.665,5.828-10.186,15.029-6.636,23.226q11.861,27.411,22.934,55.291,12.282,30.87,23.376,62.1a107.564,107.564,0,0,0,6.858,15.264,102.124,102.124,0,0,0,12.4,17.74q-6.261-.607-12.585-1.153c-18.032-1.537-36.165-2.583-54.2-3.074.564-.192.827-.3,1.372-.469,6.151-2.156,7.947-12.489,3.811-23.291-1.311-3.48-1.976-5.294-3.328-8.817-11.255-.384-17.527-.533-27.612-.619-1.734-.021-2.6-.021-4.317-.021-12.767-.128-19.161-.085-31.908.192-1.432,3.5-2.1,5.294-3.49,8.731-4.3,10.717-2.6,21.327,3.49,23.355.544.213.827.277,1.372.491-22.248.213-44.657,1.323-66.824,3.266a102.925,102.925,0,0,0,19.706-32.747q11.558-31.19,24.346-62.016,11.406-27.57,23.619-54.693C1212.284,341.737,1209.9,332.579,1202.3,326.623Zm-172.856,13.641c17.346-6.383,39.956-8.326,58.028-5.059a60.683,60.683,0,0,0,26.564-1.238c-8.551,20.3-12.606,30.463-20.33,50.893-10.933-13.855-33.967-12.915-47.925-8.134-19.1,6.576-35.357,23.91-36.506,44.468a43.112,43.112,0,0,0,2.944,18.04c.463.917.645,1.494,1.109,2.326,12.808,22.778,44.859,33.431,69.1,24.4,12.506-4.654,22.671-9.628,24.89-26.365,10.992,15.926,16.318,23.931,26.664,40.092.707.811-.564,1.878-3.287,4.824-12.828,10.141-17.528,12.895-34.31,18.509-44.131,14.772-102.382,2.135-125.839-43.507-.464-.9-.686-1.366-1.151-2.263a68.058,68.058,0,0,1-7.482-26.472C959.111,390.389,994.024,353.329,1029.443,340.264ZM729.98,426.852c5.042-2.135,10.145-4.228,16.942-6.96,13.575-5.486,20.413-8.176,34.168-13.3-4.679,8.261-3.287,17.632,3.247,23.845q22.118,21.006,43.629,42.845,23.052,23.441,45.1,47.734A105.775,105.775,0,0,0,903.5,544.244c-21.259,6.255-42.437,13.428-63.192,21.348.444-.364.686-.577,1.11-.939,4.921-4.121,2.561-14.581-5.406-22.971-2.562-2.712-3.873-4.142-6.475-6.874-5.95,2.22-10.408,3.906-14.844,5.636-4.418,1.729-8.875,3.479-14.745,5.849-11.759,4.739-17.649,7.215-29.287,12.3.041,3.757.1,5.7.141,9.414.121,11.549,5.668,20.622,12.1,20.238.565-.022.868-.065,1.432-.043-20.351,8.6-40.541,18.146-60.166,28.457a102.9,102.9,0,0,0,5.647-37.765q-1.149-28.5-1.553-57.127-.514-34.359,0-68.612c.121-8.859-5.749-16.417-15.087-19C719.874,431.206,724.937,429.008,729.98,426.852Zm-201.6,105.2c21.542-14.09,48.71-19.427,72.753-10.5a60.441,60.441,0,0,0,22.389,3.885c-16,13.769-31.667,28.222-46.694,43.166.283-7.109-6.071-12.382-13.513-10.994a33.271,33.271,0,0,0-11.014,3.82c-.705.491-1.875.94-2.843,1.581-9.621,6.3-15.007,16.651-13.252,21.518,1.21,3.352,5.788,5.636,11.779,6.148,5.587.449,13.494-1.6,22.813-5.187,19.483-7.472,42.2-10.717,61.759-2.989a57.723,57.723,0,0,1,8.21,4.035c8.754,5.209,15.591,14.154,17.649,23.269,6.03,26.77-11.4,52.858-32.151,66.456-18.759,12.275-44.152,16.353-65.23,9.564A45.811,45.811,0,0,0,540,683.9c12.788-15.5,26.221-30.613,40.078-45.045A11.379,11.379,0,0,0,593.49,649.98a45.426,45.426,0,0,0,9.8-3.5,24.652,24.652,0,0,0,2.9-1.6c8.895-5.871,14.179-15.136,12.626-20.174a10.193,10.193,0,0,0-4.659-4.889c-6.838-4.056-16.984-3.672-34.048,2.477-.745.277-1.492.534-2.238.789h-.02c-12.586,4.483-26.3,8.518-40.32,7.451-20.029-1.516-37.738-11.7-42.417-26.173C485.822,575.625,505.609,546.955,528.381,532.054Zm-45.826,550.691q-29.166-21.36-57.2-44.361a17.188,17.188,0,0,0,16.539-13.983q10.257-50.947,22.591-101.232c1.149-4.59,2.3-9.2,3.449-13.791a102.444,102.444,0,0,0,2.561-37.1c15.612,14.281,31.707,28.157,48.085,41.436a18.125,18.125,0,0,0-15.954,14.431q-2.722,11.976-5.305,23.974-6.988,32.214-13.13,64.62,26.079-15.594,51.675-31.937,10.891-6.948,21.723-14.025c6.555-4.227,9.48-12.531,7.825-20.729C582.094,962.385,599.2,974.3,616.5,985.59a90.454,90.454,0,0,0-32.332,14.3q-7.988,5.6-16.015,11.08-38.424,26.418-77.937,50.915C483.4,1065.88,480.5,1074.248,482.555,1082.745Zm120.556,78.56q-31.192-17.964-61.478-37.7a38.668,38.668,0,0,0,28.036-19.469q18.032-32.118,36.044-64.257,4.871-8.71,9.742-17.4a47.8,47.8,0,0,0,4.3-34.776c17.83,11.7,36.083,22.906,54.519,33.43a43.133,43.133,0,0,0-26,21.455l-10.65,20.43q-16.368,31.348-32.695,62.72C599.339,1136.435,598.673,1149.222,603.111,1161.305ZM736.958,1189.7c-16.821,21.541-47.137,19.62-68.839,8.689-19.888-10.012-36.306-28.819-40.321-52.388a51.442,51.442,0,0,0-7.342-19.384c21.5,6.725,32.253,9.778,53.733,15.371-5.466,3.288-6.716,10.93-2.319,16.374a43.2,43.2,0,0,0,7.625,6.532,22.984,22.984,0,0,0,2.7,1.623c9.117,4.568,18.96,4.034,21.965.234a9.788,9.788,0,0,0,1.25-6.233c-.4-7.579-5.828-15.328-18.395-26.3-9.741-8.518-19.6-18.508-24.607-31.445a55.25,55.25,0,0,1-3.691-25.191c.827-8.218,3.772-15.605,8.694-21.219,16.014-18.317,44.252-17.377,64.725-7.536,16.519,7.941,33.6,28.435,36.991,47.947A45.806,45.806,0,0,0,777.056,1115c-20.613-3.608-30.94-5.678-51.635-10.353a10.971,10.971,0,0,0,2.138-16.075,25.548,25.548,0,0,0-7.241-6.49c-.666-.32-1.432-.982-2.3-1.43-8.471-4.249-18.012-3.566-20.977.149-2.057,2.583-2,7.258.04,12.3,1.917,4.718,6.7,9.842,13.394,15.563,2.279,1.922,4.557,3.928,6.757,6.042.019,0,.039.021.06.042,13.453,12.788,24.687,28.628,26.5,48.4C744.522,1173.068,742.284,1182.439,736.958,1189.7Zm79.531,69.531c-36.065-13.514-60.167-56.316-45.382-96.173,2.178-5.87,4.013-10.866,5.747-15.5,4.095-11.016,7.444-20.046,12.606-33.965a47.26,47.26,0,0,0-.806-34.946c19.04,8.326,38.4,16.1,57.867,23.226a44.83,44.83,0,0,0-22.247,25.682c-5.1,15.157-8.289,24.55-12.465,36.91-1.351,3.971-2.783,8.262-4.437,13.129-6.395,18.936,2.481,39.964,20.13,46.154,17.406,6.106,36.265-5.166,41.731-24.422.988-3.5,1.9-6.7,2.743-9.713,4.134-14.559,6.938-24.486,11.759-41.436a46.705,46.705,0,0,0-3.529-34.477c19.523,6.575,39.311,12.553,59.158,17.911a45.465,45.465,0,0,0-20.11,27.56c-4.457,17.7-7.019,27.752-10.932,43.315-.645,2.519-1.311,5.188-2.037,8.048C896.2,1250.219,852.371,1272.677,816.489,1259.228Zm376.755,70.149c-39.151-1.174-78.321-4.1-117.188-9.051-.1-.022-.162-.022-.263-.043-.322-.043-.665-.086-1.009-.128-21.057-2.84-41.912-6.021-62.869-9.543a19.086,19.086,0,0,0,8.169-20.664c-.968-3.758-1.452-5.636-2.4-9.394-19.626-3.48-44.616-9.222-64.847-13.748-1.714,2.519-3.409,5.038-5.123,7.558-6.313,8.816-7.14,18.679-1.735,22.158.485.321.707.47,1.191.769-21.2-5.145-42.176-10.61-63.192-16.481a78.024,78.024,0,0,0,27.249-22.842q16.49-22.1,32.413-44.6,17.427-24.56,34.248-49.676a21.032,21.032,0,0,0,.1-22.544c17.932,4.206,26.907,6.127,44.939,9.564,6.374,21.754,3.731,12.275,7.6,26.194,4.578,20.43,9.6,40.027,14.886,59.582,5.022,18.488,10.246,36.911,15.551,56a80.523,80.523,0,0,0,14.542,27.133,42.313,42.313,0,0,0,16.66-29.673q2.329-22.994,4.68-46.005,2.449-24.273,4.922-48.545a47.705,47.705,0,0,0-9.319-33.41c20.17,2.6,40.521,4.59,60.792,5.956a46.51,46.51,0,0,0-14.885,30.805q-1.755,24.53-3.55,49.037-1.514,20.845-3.026,41.713c11.477.94,17.185,1.345,28.682,2.007a47.517,47.517,0,0,0,34.087-11.678C1194.01,1299.639,1193.748,1309.566,1193.244,1329.377Zm166.542-6.17h.162c-.263.043-.525.064-.787.086a1.428,1.428,0,0,0-.3.043c-.021-.022-.021-.022-.041-.022-21.239,2.007-42.377,3.651-63.677,4.953a43.438,43.438,0,0,0,12.667-32.876q-1.3-23.216-2.621-46.41-1.362-24.369-2.744-48.737a46.767,46.767,0,0,0-14.623-31.3c13.655-.725,21.642-1.238,33.4-2.241,6.313-.619,26.4-2.476,32.7-3.2,36.79-5.529,76.464,22.223,83.141,61.61.423,2.69.726,4.7,1.068,6.7.283,1.964.606,3.907,1.029,6.511C1446.073,1282.668,1398.512,1318.425,1359.786,1323.207Zm98.228-14.2a44.069,44.069,0,0,0,8.532-34.242q-4.114-23.568-8.25-47.158-4.084-23.408-8.168-46.794a45.29,45.29,0,0,0-17.67-28.756c36.287-7.151,72.027-15.648,107.709-25.617,5,19.4,7.5,29.118,12.505,48.524a45.683,45.683,0,0,0-33.886-4.27c-12.546,3.288-18.839,4.846-31.445,7.749,1.916,9.372,2.864,14.047,4.78,23.419,14.462-3.352,21.683-5.145,36.044-8.945,1.413,5.978,2.521,10.717,3.57,15.221,1.513,6.4,2.924,12.36,4.9,20.793-14.785,3.928-22.208,5.764-37.073,9.2,1.976,9.65,2.965,14.474,4.942,24.1,13.453-3.1,20.17-4.761,33.563-8.262a49,49,0,0,0,29.367-21.732c4.942,19.128,7.4,28.692,12.324,47.841C1539.461,1291.421,1499.019,1301.027,1458.014,1309.011Zm204.422-54.117c-20.613,7.536-44.454,6.106-62.506-7.834a45.127,45.127,0,0,0-17.71-8.5c19.384-11.058,28.944-16.78,47.742-28.649a10.544,10.544,0,0,0,9.017,13.492,40.063,40.063,0,0,0,9.661-.961,22.183,22.183,0,0,0,2.985-.833c9.42-3.458,16.056-11.122,15.713-16.1a9.3,9.3,0,0,0-3.167-5.38c-5.244-5.124-14.179-6.682-30.214-5.273-12.425,1.088-25.878,1.195-37.779-4.4a49.83,49.83,0,0,1-5.607-3.074c-12.787-8.005-20.654-20.708-21.017-33.943-.686-24.87,19.666-45.151,40.683-53.242,16.963-6.532,42.518-4.419,57.646,7.024a40.019,40.019,0,0,0,17.628,7.194c-17.145,12.7-25.879,18.871-43.607,30.826,1.432-6.4-2.764-12.659-9-13.107a23.668,23.668,0,0,0-9.358.683c-.685.256-1.655.363-2.562.683-8.774,3.2-15.067,10.759-14.724,15.605.242,3.373,3.308,6.682,8.048,8.8,4.417,1.963,11.113,2.113,19.605,1.259a121.364,121.364,0,0,1,21.582-.512.027.027,0,0,0,.04,0c13.636,1.067,26.866,5.187,37.7,14.922,7.019,6.6,11.578,14.965,12.506,24.1C1707.839,1225.5,1685.087,1246.633,1662.436,1254.894ZM1724,1228.38a44.006,44.006,0,0,0,1.8-35.48q-11.526-29.524-23.074-59.091-5.628-14.378-11.235-28.734a44.232,44.232,0,0,0-23.437-24.465c19.2-8.176,38.262-16.972,56.98-26.322a48.239,48.239,0,0,0,.746,34.947q5.265,12.392,10.55,24.806,13.16,30.932,26.321,61.844a39.692,39.692,0,0,0,25.636,22.8C1766.958,1209,1745.637,1218.859,1724,1228.38Zm182.477-109.749a15.637,15.637,0,0,0-4.981,5.422,92.748,92.748,0,0,1-33.18,33.516c-38.041,22.351-92.177,15.178-112.1-30.207-.383-.875-.565-1.3-.949-2.178a81.4,81.4,0,0,1-5.587-19.469c-5.647-36.313,13.534-74.142,44.153-92.116a78.415,78.415,0,0,1,40.863-10.888,33.14,33.14,0,0,0,18.78-5.422c-4.619,18.082-7.4,28.436-12.083,44.3-.786,2.668-1.633,5.486-2.541,8.539a17.89,17.89,0,0,0-3.126-4.248c-6.6-6.618-16.6-4.739-25.072.256a50.508,50.508,0,0,0-23.881,35.053,45.841,45.841,0,0,0,3.268,26.066c.4.854.605,1.3,1.008,2.156,11.82,23.483,39.675,27.8,60.449,15.627a43.753,43.753,0,0,0,14.18-13.151c-2.1-3.906-3.147-5.87-5.224-9.777-8.855,5.38-13.292,8.005-22.207,13.172-6.555-12.809-9.823-19.192-16.358-32q34.248-19.821,67.247-41.906c-3.491,12.233-2.1,25.084,3.791,35.288,9.158,15.947,13.757,23.91,22.914,39.836A14.531,14.531,0,0,0,1906.472,1118.631Zm125.3-76.895c1.735-7.152-1.917-13.535-8.269-15.307-32.695-9.18-64.967-20.067-96.835-32.108q19.361,29.716,38.724,59.454a38.065,38.065,0,0,0,29.227,17.1q-29.106,22-59.3,42.312c3.73-12.425,2.076-25-3.914-34.861q-22.116-36.378-44.232-72.754c-1.635-2.711-3.288-5.4-4.923-8.113a41.951,41.951,0,0,0-27.41-19.447c18.576-12.766,36.79-25.789,54.9-39.259-1.229,6.511,1.916,12.659,7.563,14.837q11.136,4.131,22.329,8.027c22.329,7.813,44.859,14.965,67.609,21.262q-18-24.465-35.942-48.93c-.626-.853-1.27-1.728-1.9-2.583a41.206,41.206,0,0,0-29.286-16.5c16.841-13.6,33.381-27.817,49.436-42.461a42.874,42.874,0,0,0,8.391,31.317l2.964,3.779q28.079,35.832,56.173,71.622a37.383,37.383,0,0,0,30.881,14.282Q2060.491,1018.349,2031.768,1041.736ZM1928.659,601.819c1.877-2.647,2.844-3.971,4.721-6.6,2.218-3.1.059-10.247-6.515-14.794-13.735-9.478-20.714-14.089-34.794-23.055-5.446,8.347-8.168,12.531-13.573,20.9,13.8,8.8,20.674,13.343,34.106,22.586C1919.059,605.3,1926.3,605.128,1928.659,601.819ZM1468.6,406.229c.666-3.181.989-4.824,1.634-7.962.767-3.736-4.155-9.415-12.082-10.867-16.6-3.052-24.93-4.461-41.631-7-1.553,9.883-2.339,14.815-3.893,24.7,16.338,2.434,24.548,3.8,40.764,6.789C1461.141,413.317,1467.777,410.243,1468.6,406.229Zm-68.134,832.249c-.283-2.2-.564-4.334-.948-7.259-3.307-21.22-22.65-33.815-42.013-31.744-2.1.235-11.719,1.131-18.355,1.751q1.875,22.318,3.791,44.595,1.816,21.231,3.611,42.483c5.042-.556,16.781-1.794,19.585-2.114,19.867-2.241,37.435-19.3,35.116-41.692C1400.953,1242.107,1400.711,1240.271,1400.469,1238.478ZM1238.545,424.119c6.313.064,9.479.086,15.793.213-3.388-8.112-5.85-13.961-8.471-20.045-2.058-4.761-4.236-9.692-7.04-15.968-2.9,6.233-5.143,11.122-7.261,15.84-2.743,6.063-5.284,11.869-8.794,19.96C1229.085,424.076,1232.272,424.055,1238.545,424.119Zm-239.236,771.94q-8.683,13.737-17.548,27.347-3.42,5.251-6.878,10.5c9.883,2.22,26,6.063,33.2,7.429-.747-3.309-1.634-7.685-2.562-12.51C1003.363,1217.642,1000.963,1204.065,999.309,1196.059ZM799.606,504.28c-5.123-5.081-9.1-8.966-13.01-12.723-4.619-4.44-9.136-8.731-15.389-14.559-.242,9.051-.383,15.456-.5,22.287-.061,4.995-.1,10.162-.162,16.736,5.77-2.39,8.694-3.629,14.483-5.977C790.812,507.717,793.757,506.543,799.606,504.28Zm1127.259,76.148c-13.735-9.478-20.714-14.089-34.794-23.055-5.446,8.347-8.168,12.531-13.573,20.9,13.8,8.8,20.674,13.343,34.106,22.586,6.455,4.44,13.695,4.27,16.055.961,1.877-2.647,2.844-3.971,4.721-6.6C1935.6,592.127,1933.439,584.975,1926.865,580.428ZM1458.155,387.4c-16.6-3.052-24.93-4.461-41.631-7-1.553,9.883-2.339,14.815-3.893,24.7,16.338,2.434,24.548,3.8,40.764,6.789,7.746,1.43,14.382-1.644,15.208-5.658.666-3.181.989-4.824,1.634-7.962C1471,394.531,1466.082,388.852,1458.155,387.4Zm-212.288,16.887c-2.058-4.761-4.236-9.692-7.04-15.968-2.9,6.233-5.143,11.122-7.261,15.84-2.743,6.063-5.284,11.869-8.794,19.96,6.313-.043,9.5-.064,15.773,0,6.313.064,9.479.086,15.793.213C1250.95,416.22,1248.488,410.371,1245.867,404.287ZM786.6,491.557c-4.619-4.44-9.136-8.731-15.389-14.559-.242,9.051-.383,15.456-.5,22.287-.061,4.995-.1,10.162-.162,16.736,5.77-2.39,8.694-3.629,14.483-5.977,5.788-2.327,8.733-3.5,14.582-5.764C794.483,499.2,790.509,495.314,786.6,491.557Zm218.925,737.271c-2.158-11.186-4.558-24.763-6.212-32.769q-8.683,13.737-17.548,27.347-3.42,5.251-6.878,10.5c9.883,2.22,26,6.063,33.2,7.429C1007.336,1238.029,1006.449,1233.653,1005.521,1228.828Zm395.735,15.67c-.3-2.391-.545-4.227-.787-6.02-.283-2.2-.564-4.334-.948-7.259-3.307-21.22-22.65-33.815-42.013-31.744-2.1.235-11.719,1.131-18.355,1.751q1.875,22.318,3.791,44.595,1.816,21.231,3.611,42.483c5.042-.556,16.781-1.794,19.585-2.114C1386.007,1283.949,1403.575,1266.892,1401.256,1244.5ZM1971.3,933.949q-15.945,14.123-31.667,27.668c22.329,7.813,44.859,14.965,67.609,21.262Q1989.241,958.414,1971.3,933.949Zm-44.434-353.521c-13.735-9.478-20.714-14.089-34.794-23.055-5.446,8.347-8.168,12.531-13.573,20.9,13.8,8.8,20.674,13.343,34.106,22.586,6.455,4.44,13.695,4.27,16.055.961,1.877-2.647,2.844-3.971,4.721-6.6C1935.6,592.127,1933.439,584.975,1926.865,580.428ZM1458.155,387.4c-16.6-3.052-24.93-4.461-41.631-7-1.553,9.883-2.339,14.815-3.893,24.7,16.338,2.434,24.548,3.8,40.764,6.789,7.746,1.43,14.382-1.644,15.208-5.658.666-3.181.989-4.824,1.634-7.962C1471,394.531,1466.082,388.852,1458.155,387.4Zm-56.9,857.1c-.3-2.391-.545-4.227-.787-6.02-.283-2.2-.564-4.334-.948-7.259-3.307-21.22-22.65-33.815-42.013-31.744-2.1.235-11.719,1.131-18.355,1.751q1.875,22.318,3.791,44.595,1.816,21.231,3.611,42.483c5.042-.556,16.781-1.794,19.585-2.114C1386.007,1283.949,1403.575,1266.892,1401.256,1244.5ZM1245.867,404.287c-2.058-4.761-4.236-9.692-7.04-15.968-2.9,6.233-5.143,11.122-7.261,15.84-2.743,6.063-5.284,11.869-8.794,19.96,6.313-.043,9.5-.064,15.773,0,6.313.064,9.479.086,15.793.213C1250.95,416.22,1248.488,410.371,1245.867,404.287Zm-240.346,824.541c-2.158-11.186-4.558-24.763-6.212-32.769q-8.683,13.737-17.548,27.347-3.42,5.251-6.878,10.5c9.883,2.22,26,6.063,33.2,7.429C1007.336,1238.029,1006.449,1233.653,1005.521,1228.828ZM786.6,491.557c-4.619-4.44-9.136-8.731-15.389-14.559-.242,9.051-.383,15.456-.5,22.287-.061,4.995-.1,10.162-.162,16.736,5.77-2.39,8.694-3.629,14.483-5.977,5.788-2.327,8.733-3.5,14.582-5.764C794.483,499.2,790.509,495.314,786.6,491.557ZM1458.155,387.4c-16.6-3.052-24.93-4.461-41.631-7-1.553,9.883-2.339,14.815-3.893,24.7,16.338,2.434,24.548,3.8,40.764,6.789,7.746,1.43,14.382-1.644,15.208-5.658.666-3.181.989-4.824,1.634-7.962C1471,394.531,1466.082,388.852,1458.155,387.4Zm-212.288,16.887c-2.058-4.761-4.236-9.692-7.04-15.968-2.9,6.233-5.143,11.122-7.261,15.84-2.743,6.063-5.284,11.869-8.794,19.96,6.313-.043,9.5-.064,15.773,0,6.313.064,9.479.086,15.793.213C1250.95,416.22,1248.488,410.371,1245.867,404.287ZM786.6,491.557c-4.619-4.44-9.136-8.731-15.389-14.559-.242,9.051-.383,15.456-.5,22.287-.061,4.995-.1,10.162-.162,16.736,5.77-2.39,8.694-3.629,14.483-5.977,5.788-2.327,8.733-3.5,14.582-5.764C794.483,499.2,790.509,495.314,786.6,491.557Zm218.925,737.271c-2.158-11.186-4.558-24.763-6.212-32.769q-8.683,13.737-17.548,27.347-3.42,5.251-6.878,10.5c9.883,2.22,26,6.063,33.2,7.429C1007.336,1238.029,1006.449,1233.653,1005.521,1228.828Zm395.735,15.67c-.3-2.391-.545-4.227-.787-6.02-.283-2.2-.564-4.334-.948-7.259-3.307-21.22-22.65-33.815-42.013-31.744-2.1.235-11.719,1.131-18.355,1.751q1.875,22.318,3.791,44.595,1.816,21.231,3.611,42.483c5.042-.556,16.781-1.794,19.585-2.114C1386.007,1283.949,1403.575,1266.892,1401.256,1244.5ZM1971.3,933.949q-15.945,14.123-31.667,27.668c22.329,7.813,44.859,14.965,67.609,21.262Q1989.241,958.414,1971.3,933.949ZM1458.155,387.4c-16.6-3.052-24.93-4.461-41.631-7-1.553,9.883-2.339,14.815-3.893,24.7,16.338,2.434,24.548,3.8,40.764,6.789,7.746,1.43,14.382-1.644,15.208-5.658.666-3.181.989-4.824,1.634-7.962C1471,394.531,1466.082,388.852,1458.155,387.4Zm-56.9,857.1c-.3-2.391-.545-4.227-.787-6.02-.283-2.2-.564-4.334-.948-7.259-3.307-21.22-22.65-33.815-42.013-31.744-2.1.235-11.719,1.131-18.355,1.751q1.875,22.318,3.791,44.595,1.816,21.231,3.611,42.483c5.042-.556,16.781-1.794,19.585-2.114C1386.007,1283.949,1403.575,1266.892,1401.256,1244.5ZM1245.867,404.287c-2.058-4.761-4.236-9.692-7.04-15.968-2.9,6.233-5.143,11.122-7.261,15.84-2.743,6.063-5.284,11.869-8.794,19.96,6.313-.043,9.5-.064,15.773,0,6.313.064,9.479.086,15.793.213C1250.95,416.22,1248.488,410.371,1245.867,404.287Zm-240.346,824.541c-2.158-11.186-4.558-24.763-6.212-32.769q-8.683,13.737-17.548,27.347-3.42,5.251-6.878,10.5c9.883,2.22,26,6.063,33.2,7.429C1007.336,1238.029,1006.449,1233.653,1005.521,1228.828ZM786.6,491.557c-4.619-4.44-9.136-8.731-15.389-14.559-.242,9.051-.383,15.456-.5,22.287-.061,4.995-.1,10.162-.162,16.736,5.77-2.39,8.694-3.629,14.483-5.977,5.788-2.327,8.733-3.5,14.582-5.764C794.483,499.2,790.509,495.314,786.6,491.557Zm459.271-87.27c-2.058-4.761-4.236-9.692-7.04-15.968-2.9,6.233-5.143,11.122-7.261,15.84-2.743,6.063-5.284,11.869-8.794,19.96,6.313-.043,9.5-.064,15.773,0,6.313.064,9.479.086,15.793.213C1250.95,416.22,1248.488,410.371,1245.867,404.287ZM786.6,491.557c-4.619-4.44-9.136-8.731-15.389-14.559-.242,9.051-.383,15.456-.5,22.287-.061,4.995-.1,10.162-.162,16.736,5.77-2.39,8.694-3.629,14.483-5.977,5.788-2.327,8.733-3.5,14.582-5.764C794.483,499.2,790.509,495.314,786.6,491.557Zm218.925,737.271c-2.158-11.186-4.558-24.763-6.212-32.769q-8.683,13.737-17.548,27.347-3.42,5.251-6.878,10.5c9.883,2.22,26,6.063,33.2,7.429C1007.336,1238.029,1006.449,1233.653,1005.521,1228.828Zm395.735,15.67c-.3-2.391-.545-4.227-.787-6.02-.283-2.2-.564-4.334-.948-7.259-3.307-21.22-22.65-33.815-42.013-31.744-2.1.235-11.719,1.131-18.355,1.751q1.875,22.318,3.791,44.595,1.816,21.231,3.611,42.483c5.042-.556,16.781-1.794,19.585-2.114C1386.007,1283.949,1403.575,1266.892,1401.256,1244.5ZM1971.3,933.949q-15.945,14.123-31.667,27.668c22.329,7.813,44.859,14.965,67.609,21.262Q1989.241,958.414,1971.3,933.949ZM1401.256,1244.5c-.3-2.391-.545-4.227-.787-6.02-.283-2.2-.564-4.334-.948-7.259-3.307-21.22-22.65-33.815-42.013-31.744-2.1.235-11.719,1.131-18.355,1.751q1.875,22.318,3.791,44.595,1.816,21.231,3.611,42.483c5.042-.556,16.781-1.794,19.585-2.114C1386.007,1283.949,1403.575,1266.892,1401.256,1244.5ZM1245.867,404.287c-2.058-4.761-4.236-9.692-7.04-15.968-2.9,6.233-5.143,11.122-7.261,15.84-2.743,6.063-5.284,11.869-8.794,19.96,6.313-.043,9.5-.064,15.773,0,6.313.064,9.479.086,15.793.213C1250.95,416.22,1248.488,410.371,1245.867,404.287Zm-240.346,824.541c-2.158-11.186-4.558-24.763-6.212-32.769q-8.683,13.737-17.548,27.347-3.42,5.251-6.878,10.5c9.883,2.22,26,6.063,33.2,7.429C1007.336,1238.029,1006.449,1233.653,1005.521,1228.828ZM786.6,491.557c-4.619-4.44-9.136-8.731-15.389-14.559-.242,9.051-.383,15.456-.5,22.287-.061,4.995-.1,10.162-.162,16.736,5.77-2.39,8.694-3.629,14.483-5.977,5.788-2.327,8.733-3.5,14.582-5.764C794.483,499.2,790.509,495.314,786.6,491.557Zm0,0c-4.619-4.44-9.136-8.731-15.389-14.559-.242,9.051-.383,15.456-.5,22.287-.061,4.995-.1,10.162-.162,16.736,5.77-2.39,8.694-3.629,14.483-5.977,5.788-2.327,8.733-3.5,14.582-5.764C794.483,499.2,790.509,495.314,786.6,491.557Zm218.925,737.271c-2.158-11.186-4.558-24.763-6.212-32.769q-8.683,13.737-17.548,27.347-3.42,5.251-6.878,10.5c9.883,2.22,26,6.063,33.2,7.429C1007.336,1238.029,1006.449,1233.653,1005.521,1228.828Zm395.735,15.67c-.3-2.391-.545-4.227-.787-6.02-.283-2.2-.564-4.334-.948-7.259-3.307-21.22-22.65-33.815-42.013-31.744-2.1.235-11.719,1.131-18.355,1.751q1.875,22.318,3.791,44.595,1.816,21.231,3.611,42.483c5.042-.556,16.781-1.794,19.585-2.114C1386.007,1283.949,1403.575,1266.892,1401.256,1244.5ZM1971.3,933.949q-15.945,14.123-31.667,27.668c22.329,7.813,44.859,14.965,67.609,21.262Q1989.241,958.414,1971.3,933.949ZM1401.256,1244.5c-.3-2.391-.545-4.227-.787-6.02-.283-2.2-.564-4.334-.948-7.259-3.307-21.22-22.65-33.815-42.013-31.744-2.1.235-11.719,1.131-18.355,1.751q1.875,22.318,3.791,44.595,1.816,21.231,3.611,42.483c5.042-.556,16.781-1.794,19.585-2.114C1386.007,1283.949,1403.575,1266.892,1401.256,1244.5Zm-395.735-15.67c-2.158-11.186-4.558-24.763-6.212-32.769q-8.683,13.737-17.548,27.347-3.42,5.251-6.878,10.5c9.883,2.22,26,6.063,33.2,7.429C1007.336,1238.029,1006.449,1233.653,1005.521,1228.828ZM786.6,491.557c-4.619-4.44-9.136-8.731-15.389-14.559-.242,9.051-.383,15.456-.5,22.287-.061,4.995-.1,10.162-.162,16.736,5.77-2.39,8.694-3.629,14.483-5.977,5.788-2.327,8.733-3.5,14.582-5.764C794.483,499.2,790.509,495.314,786.6,491.557Zm218.925,737.271c-2.158-11.186-4.558-24.763-6.212-32.769q-8.683,13.737-17.548,27.347-3.42,5.251-6.878,10.5c9.883,2.22,26,6.063,33.2,7.429C1007.336,1238.029,1006.449,1233.653,1005.521,1228.828Zm395.735,15.67c-.3-2.391-.545-4.227-.787-6.02-.283-2.2-.564-4.334-.948-7.259-3.307-21.22-22.65-33.815-42.013-31.744-2.1.235-11.719,1.131-18.355,1.751q1.875,22.318,3.791,44.595,1.816,21.231,3.611,42.483c5.042-.556,16.781-1.794,19.585-2.114C1386.007,1283.949,1403.575,1266.892,1401.256,1244.5ZM1971.3,933.949q-15.945,14.123-31.667,27.668c22.329,7.813,44.859,14.965,67.609,21.262Q1989.241,958.414,1971.3,933.949ZM1401.256,1244.5c-.3-2.391-.545-4.227-.787-6.02-.283-2.2-.564-4.334-.948-7.259-3.307-21.22-22.65-33.815-42.013-31.744-2.1.235-11.719,1.131-18.355,1.751q1.875,22.318,3.791,44.595,1.816,21.231,3.611,42.483c5.042-.556,16.781-1.794,19.585-2.114C1386.007,1283.949,1403.575,1266.892,1401.256,1244.5Zm-395.735-15.67c-2.158-11.186-4.558-24.763-6.212-32.769q-8.683,13.737-17.548,27.347-3.42,5.251-6.878,10.5c9.883,2.22,26,6.063,33.2,7.429C1007.336,1238.029,1006.449,1233.653,1005.521,1228.828Zm0,0c-2.158-11.186-4.558-24.763-6.212-32.769q-8.683,13.737-17.548,27.347-3.42,5.251-6.878,10.5c9.883,2.22,26,6.063,33.2,7.429C1007.336,1238.029,1006.449,1233.653,1005.521,1228.828Zm395.735,15.67c-.3-2.391-.545-4.227-.787-6.02-.283-2.2-.564-4.334-.948-7.259-3.307-21.22-22.65-33.815-42.013-31.744-2.1.235-11.719,1.131-18.355,1.751q1.875,22.318,3.791,44.595,1.816,21.231,3.611,42.483c5.042-.556,16.781-1.794,19.585-2.114C1386.007,1283.949,1403.575,1266.892,1401.256,1244.5ZM1971.3,933.949q-15.945,14.123-31.667,27.668c22.329,7.813,44.859,14.965,67.609,21.262Q1989.241,958.414,1971.3,933.949ZM1401.256,1244.5c-.3-2.391-.545-4.227-.787-6.02-.283-2.2-.564-4.334-.948-7.259-3.307-21.22-22.65-33.815-42.013-31.744-2.1.235-11.719,1.131-18.355,1.751q1.875,22.318,3.791,44.595,1.816,21.231,3.611,42.483c5.042-.556,16.781-1.794,19.585-2.114C1386.007,1283.949,1403.575,1266.892,1401.256,1244.5Zm-395.735-15.67c-2.158-11.186-4.558-24.763-6.212-32.769q-8.683,13.737-17.548,27.347-3.42,5.251-6.878,10.5c9.883,2.22,26,6.063,33.2,7.429C1007.336,1238.029,1006.449,1233.653,1005.521,1228.828Zm0,0c-2.158-11.186-4.558-24.763-6.212-32.769q-8.683,13.737-17.548,27.347-3.42,5.251-6.878,10.5c9.883,2.22,26,6.063,33.2,7.429C1007.336,1238.029,1006.449,1233.653,1005.521,1228.828Zm395.735,15.67c-.3-2.391-.545-4.227-.787-6.02-.283-2.2-.564-4.334-.948-7.259-3.307-21.22-22.65-33.815-42.013-31.744-2.1.235-11.719,1.131-18.355,1.751q1.875,22.318,3.791,44.595,1.816,21.231,3.611,42.483c5.042-.556,16.781-1.794,19.585-2.114C1386.007,1283.949,1403.575,1266.892,1401.256,1244.5ZM1971.3,933.949q-15.945,14.123-31.667,27.668c22.329,7.813,44.859,14.965,67.609,21.262Q1989.241,958.414,1971.3,933.949ZM1401.256,1244.5c-.3-2.391-.545-4.227-.787-6.02-.283-2.2-.564-4.334-.948-7.259-3.307-21.22-22.65-33.815-42.013-31.744-2.1.235-11.719,1.131-18.355,1.751q1.875,22.318,3.791,44.595,1.816,21.231,3.611,42.483c5.042-.556,16.781-1.794,19.585-2.114C1386.007,1283.949,1403.575,1266.892,1401.256,1244.5Zm-395.735-15.67c-2.158-11.186-4.558-24.763-6.212-32.769q-8.683,13.737-17.548,27.347-3.42,5.251-6.878,10.5c9.883,2.22,26,6.063,33.2,7.429C1007.336,1238.029,1006.449,1233.653,1005.521,1228.828Zm0,0c-2.158-11.186-4.558-24.763-6.212-32.769q-8.683,13.737-17.548,27.347-3.42,5.251-6.878,10.5c9.883,2.22,26,6.063,33.2,7.429C1007.336,1238.029,1006.449,1233.653,1005.521,1228.828Zm395.735,15.67c-.3-2.391-.545-4.227-.787-6.02-.283-2.2-.564-4.334-.948-7.259-3.307-21.22-22.65-33.815-42.013-31.744-2.1.235-11.719,1.131-18.355,1.751q1.875,22.318,3.791,44.595,1.816,21.231,3.611,42.483c5.042-.556,16.781-1.794,19.585-2.114C1386.007,1283.949,1403.575,1266.892,1401.256,1244.5ZM1971.3,933.949q-15.945,14.123-31.667,27.668c22.329,7.813,44.859,14.965,67.609,21.262Q1989.241,958.414,1971.3,933.949ZM1401.256,1244.5c-.3-2.391-.545-4.227-.787-6.02-.283-2.2-.564-4.334-.948-7.259-3.307-21.22-22.65-33.815-42.013-31.744-2.1.235-11.719,1.131-18.355,1.751q1.875,22.318,3.791,44.595,1.816,21.231,3.611,42.483c5.042-.556,16.781-1.794,19.585-2.114C1386.007,1283.949,1403.575,1266.892,1401.256,1244.5Zm-395.735-15.67c-2.158-11.186-4.558-24.763-6.212-32.769q-8.683,13.737-17.548,27.347-3.42,5.251-6.878,10.5c9.883,2.22,26,6.063,33.2,7.429C1007.336,1238.029,1006.449,1233.653,1005.521,1228.828Zm0,0c-2.158-11.186-4.558-24.763-6.212-32.769q-8.683,13.737-17.548,27.347-3.42,5.251-6.878,10.5c9.883,2.22,26,6.063,33.2,7.429C1007.336,1238.029,1006.449,1233.653,1005.521,1228.828Zm395.735,15.67c-.3-2.391-.545-4.227-.787-6.02-.283-2.2-.564-4.334-.948-7.259-3.307-21.22-22.65-33.815-42.013-31.744-2.1.235-11.719,1.131-18.355,1.751q1.875,22.318,3.791,44.595,1.816,21.231,3.611,42.483c5.042-.556,16.781-1.794,19.585-2.114C1386.007,1283.949,1403.575,1266.892,1401.256,1244.5ZM1971.3,933.949q-15.945,14.123-31.667,27.668c22.329,7.813,44.859,14.965,67.609,21.262Q1989.241,958.414,1971.3,933.949ZM1401.256,1244.5c-.3-2.391-.545-4.227-.787-6.02-.283-2.2-.564-4.334-.948-7.259-3.307-21.22-22.65-33.815-42.013-31.744-2.1.235-11.719,1.131-18.355,1.751q1.875,22.318,3.791,44.595,1.816,21.231,3.611,42.483c5.042-.556,16.781-1.794,19.585-2.114C1386.007,1283.949,1403.575,1266.892,1401.256,1244.5Zm-395.735-15.67c-2.158-11.186-4.558-24.763-6.212-32.769q-8.683,13.737-17.548,27.347-3.42,5.251-6.878,10.5c9.883,2.22,26,6.063,33.2,7.429C1007.336,1238.029,1006.449,1233.653,1005.521,1228.828Zm0,0q-12.01-2.562-23.76-5.422-3.42,5.251-6.878,10.5c9.883,2.22,26,6.063,33.2,7.429C1007.336,1238.029,1006.449,1233.653,1005.521,1228.828Zm395.735,15.67c-.3-2.391-.545-4.227-.787-6.02-.283-2.2-.564-4.334-.948-7.259-3.307-21.22-22.65-33.815-42.013-31.744-2.1.235-11.719,1.131-18.355,1.751q1.875,22.318,3.791,44.595,1.816,21.231,3.611,42.483c5.042-.556,16.781-1.794,19.585-2.114C1386.007,1283.949,1403.575,1266.892,1401.256,1244.5ZM1971.3,933.949q-15.945,14.123-31.667,27.668c22.329,7.813,44.859,14.965,67.609,21.262Q1989.241,958.414,1971.3,933.949ZM1401.256,1244.5c-.3-2.391-.545-4.227-.787-6.02-.283-2.2-.564-4.334-.948-7.259-3.307-21.22-22.65-33.815-42.013-31.744-2.1.235-11.719,1.131-18.355,1.751q1.875,22.318,3.791,44.595,1.816,21.231,3.611,42.483c5.042-.556,16.781-1.794,19.585-2.114C1386.007,1283.949,1403.575,1266.892,1401.256,1244.5Zm0,0c-.3-2.391-.545-4.227-.787-6.02-.283-2.2-.564-4.334-.948-7.259-3.307-21.22-22.65-33.815-42.013-31.744-2.1.235-11.719,1.131-18.355,1.751q1.875,22.318,3.791,44.595,1.816,21.231,3.611,42.483c5.042-.556,16.781-1.794,19.585-2.114C1386.007,1283.949,1403.575,1266.892,1401.256,1244.5ZM1971.3,933.949q-15.945,14.123-31.667,27.668c22.329,7.813,44.859,14.965,67.609,21.262Q1989.241,958.414,1971.3,933.949ZM1401.256,1244.5c-.3-2.391-.545-4.227-.787-6.02-.283-2.2-.564-4.334-.948-7.259-3.307-21.22-22.65-33.815-42.013-31.744-2.1.235-11.719,1.131-18.355,1.751q1.875,22.318,3.791,44.595,1.816,21.231,3.611,42.483c5.042-.556,16.781-1.794,19.585-2.114C1386.007,1283.949,1403.575,1266.892,1401.256,1244.5Zm0,0c-.3-2.391-.545-4.227-.787-6.02-.283-2.2-.564-4.334-.948-7.259-3.307-21.22-22.65-33.815-42.013-31.744-2.1.235-11.719,1.131-18.355,1.751q1.875,22.318,3.791,44.595,1.816,21.231,3.611,42.483c5.042-.556,16.781-1.794,19.585-2.114C1386.007,1283.949,1403.575,1266.892,1401.256,1244.5Zm0,0c-.3-2.391-.545-4.227-.787-6.02-.283-2.2-.564-4.334-.948-7.259-3.307-21.22-22.65-33.815-42.013-31.744-2.1.235-11.719,1.131-18.355,1.751q1.875,22.318,3.791,44.595,1.816,21.231,3.611,42.483c5.042-.556,16.781-1.794,19.585-2.114C1386.007,1283.949,1403.575,1266.892,1401.256,1244.5Zm0,0c-.3-2.391-.545-4.227-.787-6.02-.283-2.2-.564-4.334-.948-7.259-3.307-21.22-22.65-33.815-42.013-31.744-2.1.235-11.719,1.131-18.355,1.751q1.875,22.318,3.791,44.595,1.816,21.231,3.611,42.483c5.042-.556,16.781-1.794,19.585-2.114C1386.007,1283.949,1403.575,1266.892,1401.256,1244.5Zm0,0c-.3-2.391-.545-4.227-.787-6.02-.283-2.2-.564-4.334-.948-7.259-3.307-21.22-22.65-33.815-42.013-31.744-2.1.235-11.719,1.131-18.355,1.751q1.875,22.318,3.791,44.595,1.816,21.231,3.611,42.483c5.042-.556,16.781-1.794,19.585-2.114C1386.007,1283.949,1403.575,1266.892,1401.256,1244.5Zm0,0c-.3-2.391-.545-4.227-.787-6.02-.283-2.2-.564-4.334-.948-7.259-3.307-21.22-22.65-33.815-42.013-31.744-2.1.235-11.719,1.131-18.355,1.751q1.875,22.318,3.791,44.595,1.816,21.231,3.611,42.483c5.042-.556,16.781-1.794,19.585-2.114C1386.007,1283.949,1403.575,1266.892,1401.256,1244.5Zm0,0c-.3-2.391-.545-4.227-.787-6.02-.283-2.2-.564-4.334-.948-7.259-3.307-21.22-22.65-33.815-42.013-31.744-2.1.235-11.719,1.131-18.355,1.751q1.875,22.318,3.791,44.595,1.816,21.231,3.611,42.483c5.042-.556,16.781-1.794,19.585-2.114C1386.007,1283.949,1403.575,1266.892,1401.256,1244.5Zm0,0c-.3-2.391-.545-4.227-.787-6.02-.283-2.2-.564-4.334-.948-7.259-3.307-21.22-22.65-33.815-42.013-31.744-2.1.235-11.719,1.131-18.355,1.751q1.875,22.318,3.791,44.595,1.816,21.231,3.611,42.483c5.042-.556,16.781-1.794,19.585-2.114C1386.007,1283.949,1403.575,1266.892,1401.256,1244.5Zm0,0c-.3-2.391-.545-4.227-.787-6.02-.283-2.2-.564-4.334-.948-7.259-3.307-21.22-22.65-33.815-42.013-31.744-2.1.235-11.719,1.131-18.355,1.751q1.875,22.318,3.791,44.595,1.816,21.231,3.611,42.483c5.042-.556,16.781-1.794,19.585-2.114C1386.007,1283.949,1403.575,1266.892,1401.256,1244.5Z"/>
    <ellipse cx="1244.632" cy="821.105" rx="60.731" ry="64.278"/>
  </g>
</svg>
